<mxfile host="65bd71144e">
    <diagram id="O6swXGCepZuOlW0WUuzz" name="Page-1">
        <mxGraphModel dx="1420" dy="619" grid="0" gridSize="10" guides="1" tooltips="1" connect="1" arrows="1" fold="1" page="1" pageScale="1" pageWidth="3300" pageHeight="4681" math="0" shadow="0">
            <root>
                <mxCell id="0"/>
                <mxCell id="1" parent="0"/>
                <mxCell id="4" value="" style="shape=image;verticalLabelPosition=bottom;labelBackgroundColor=#ffffff;verticalAlign=top;imageAspect=0;image=data:image/png,iVBORw0KGgoAAAANSUhEUgAABLAAAASwCAQAAABBKHtEAAAABGdBTUEAALGPC/xhBQAAACBjSFJNAAB6JgAAgIQAAPoAAACA6AAAdTAAAOpgAAA6mAAAF3CculE8AAAAAmJLR0QA/4ePzL8AAH9CSURBVHja7d13vBXVuYfxh97roQgIgoIFBEWsgAUFsWFHTaxJrDGxpGlummleTdGg0Rt7bFHB3sCuSFEDKE2w0QUph9455f5hBeFwyi6z1jzf+dz7uTdRWPO+M3t+e83aM9WQVBE12JF2FFBAC1rQggIKqE8DagPNgFo0BNayAVhBCUWsYj2FFFLIYpZQSCHzmcsmSylJ8apmCaTtaEZXOtGJjnSkI+2plYE/s5hPmcXML/7nfRZbZkkyYEmxq0kHutGLrnRjjxycJ8t4n/FM5X3Gs87yS5IBS4rJjvSlN73Zkzp5GsEmpjOGMYzmE9shSQYsKVzV6UFfDuJg2idoVJ8xmtGMYTxFtkiSDFhSOFrQj/4Mok2Cx7iG13iGEcyxXZJkwJKSrDo96c8gDqJ6MGOewbM8w5tssH2SJClZanA4/2IxpYFuy7mXY6ltIyVJUhJUpy9DmB9stPrmtoz7GJSRB0ZIkiRVUg/+wbwootU3t8X8iwNtriRJyrW6DOal6KLVN7dpXEULGy1JknKjG9dRGHW4+nJbz1D6+6MVSZKUTbU4m3GpiFbf3N7nEurbfEmSlHmNuZw5qQtXX//KcAjtPAgkSVLmdOQ6lqU2XH25beA+unkwSJKkquvGQ2xKfbj6civmafbzoJAkSZXXkdsoMlZ9a3uJfTw4JElSxXXgNmeutrmV8Ax7eZBIkqTya8f/scEYtd3bhffT2YNFkiRtXz2uYpXxqZzbRobQ1INGkiSVZRAzjU0V3Aq5nBoeOpIkaWv2YaRxqdIPIz3KA0iSJG2uFfdQbFCq0vYoO3kgSZKkLw1msQEpA9sarvJmoSRJgo6MMBplcJtATw8qSZLSrDoX+ovBLPyy8DrqeHBJkpROe/K2cShL21QO8gCTpExzFYaSrhoX8igdLUSWtOQ86vMGJZZCkqS0aMWzzjLlYHubLh5skpQ5zmApyQbygi8rzol2nEch4y2EJElxq8cQSpxbyvHzsZp74ElSJlSzBEqk3XicrpYh52ZzivNYklR13iJUEh3H87S3DHnQlHNZyAQLIUlSXKpxla/CyfN2H/U8ECWpahczKUkKeJCBliHvJnAysy2DJBmwFIOePO4TrxJiEafxhmWQpMpxDZaSYyDP09oyJEQDzmKhC94lyYClsF3Ag678SZTqDKI5L1gISTJgKUzVuIa/U91CJM4B7MGzFFkISarohU3Kt7r8m9MtQ2KN4QSWWAZJMmApJC15lv0tQ6JN42h/UyhJBiyFYwdeYk/LkHgLGMBUyyBJBiyFoAOv0NkyBGEhA5loGSSpfFxWrPzpxOvGq2C05jUOtAySZMBSsu3BKDpZhoA04yUOtwySZMBScvXiTdpahsA05GkGWAZJ2j7XYCkfuvMaBZYhSOs4ltcsgyQZsJQ0XRjJDpYhWGsZyCjLIEkGLCVJB0ayk2UI2gqO8C2FkmTAUnK0YyQ7W4bgLeFQ3rcMkrQtLnJXLrXkJeNVFFrwKrtZBknaFmewlDuNGcleliEaM+nNZ5ZBkrbGGSzlSk2GGq+i0olnaWAZJMmApXy6iYEWITK9eIQalkGSvs0PR+XGL7naIkRoV1rzrGWQJAOW8mEwt7reL1L7spy3LYMkGbCUa315glqWIVpHMpnplkGSvslZBWVbe8bT0jJEbQ0HMsUySNLXXOSu7KrDo8ar6DXgcZpaBkkyYClX/sn+FiEFunCfnyaS9DXXYCmbLuB3FiEldqOIkZZBkj7nGixlT09GU88ypEYJxzHcMkiSAUvZ1JLxtLcMqbKUfZlpGSTJNVjKXnS/y3iVOs0Z6gM5JAlcg6VsuZQrLUIKtaWU1y2DJHmLUNmwB+OobxlSqYQjjFiSZMBS5tXhLfa2DKk1l71YZhkkpZtrsJR5fzZepVp7brMIktLONVjKtEP5lzOjKdeNj5lsGSSlmRdCZVYDJtPJMqTeCrrxqWWQlF7eIlRmXW+8EtCEIRZBUpo5g6VMOoAxhnZ94WSesAiSDFhSVdVmAt0sg76wgG7+mlBSWjnboMz5lfFK39CG/7UIktLKGSxlyu68Rx3LoG8opT+vWgZJBiyp8kfSaA6yDNrCB/Rgo2WQlD4+B0uZcTaXWQR9SwtWMNYySEofZ7CUCfWZRgfLoK1Yxa58ZhkkpY2L3JUJvzReaRsa8XuLICl9nMFS1bVnOvUtg7ahhP0ZbxkkGbCkinmY01NegXUUfrHBajYBNWkENKElBbRIffx8g8M8TSQZsKSKOJg3UngcbWI6k5jMTGYyi8Xb+aeb05GO7Ew3etAtlQ+zGMyjniqSDFhS+Y2md4r2dh6jGMMYJlf64QM12YPe9KE3u6Sobh/RlSJPFkkGLKl8juG5VOznekbxMi9ndC3RDhzJcRxJk1RU8Pvc4+kiyYAlle/4eYv9I9/HDbzEMJ5gVZb+/DocyWBOpFHkdZzNrj5yVJKk8jiR0qi3t/kBjXNSyXp8l9coibqaF3vCSJK0fdWZFG0YWMOt7JXzinbhryyLtqZzqetJI0nS9pwRaRBYyDUU5K2qDbmQDyKt7OWeNJIkbW/+alqEEWABlyXgMQo1OY8ZUVbXB9JKklSmk6K7/C/hZwkKALW5mE+jq/ElnjiSJJVldFQX/k3cRsvE1bg+17A2qjp/Qg1PHUmStuXAqC77r9A1sZXuyONR1fokTx5Jkrbl0Wgu+Mu4MPHPgxvE3GjqPcqTR5KkrduZokgu94+zQxAVb8pd0USsgzyBJEnampujuNCvDeyxASexJIq6+9pnSZK2OpuyOoLL/H/pElzl2/FqBJUvYmdPIkmxq24JVGFn0yD4fbifQ/gouFF/ygB+T2ngta/BBZ5EkiRtaWLgMyjruTDo+p/KyuAfOFrL00iSpG8K/QENhRwafA/2ZLYPa5CkJPMWoSoq7Ns7M+jDG8H3YAoHMt6jSJKkWDQOeoH7uAQ+rb2yGvFy0AvdO3gySYqZM1iqmO8GvMD9vxzJ4mg6sYpjeTLY0dfg+55MkiR9aVywcyav0jC6btRiaLD9mOPXO0mSPrdbsJfzMRHGq89ngsKNWId6QkmKl98hVRGnBzru9ziW1VF2pJizeD7QsZ/mCSVJEsCUIGdKptA86q7UZ1SQfVlIDU8pSZL2DPShljtF35kCPgiyN0d4UkmKlbcIVX4h3tJZx0nMjr4zhRzNogDHfbonlSRJ04ObISnh5NR05xA2BtefJb4yR5KUdnsFeAvqf1PVocsD7NBRnliS4uQtQpXXicGN+BV+naoODeHe4MZ8vCeWJCndxga3uL1l6nrUILjF7jM9sSRJadacosBWXx2byj71YkNgEWt3Ty5JMfIWocpnYGDPLLqJ51LZp/FcE9iIj/bkkiSl171BzYp8SL0Uf2kK62bui55ckmJUzRKoXBft+bQOZrSlDOCVFHdrT8ZTO5jRbqBFpK8xkpTyC6e0ffsEFK/gjlTHK5jC9QGNtg6HeYJJMmApnQYENNYlXJX6fv2ZGQGN9khPMEkGLKXTwQGN9dcsT32/NvCzgEbb1xNMUnxcg6XyHCVLaB7IWKeyN0W2DHghmJmhYgpYYcMkxcUZLG1ft2DiFfzEePWFX1ASyEhrsL/tkmTAUvr0CWako/3R/1cm8phHmCQZsOTlr+p+bbM2q0Yos3muwpJkwFIK9Q5knK/wus36hg95JJCRHkBN2yXJgKV02YFdAhnpX2zWtypSGsQ4G7KXzZJkwFK67BfIOKfwks3awqRgatLLZkkyYCld9gxknH8PZLYm11UJQw9bJcmApXQJ4+ZNIQ/bqq14kelBjLO7rZJkwFK6hDG3cC/rbdVW3RPIUeZDjyVFxQ81la0Oq4P4hVc33rdZW9WCedQJYJw7McdmSYqHM1jaXnAJIV6NNV5t0xKeD2Kc3iSUZMBSioSxAushG1WGMFanucxdkgFLKRLCbwhLAnopTD48x5oARukMliQDllJk5wDG+CbzbVQZ1vBsAKPcxUZJMmApPToFMManbdN2PBPAGDvaJkkx8VeEKttymiR+jF2ZZqPK1IKFAXyZasRqWyUpFs5gqSzNA4hXc41X27WEcQGMcicbJcmApXToGMAYh9umchgRwBg72SZJBiylQwiXvDdtUyRV6mibJBmwlA4hXPJG26ZyeIsi47wkGbCUDB0SP8IFzLRN5bCaSYkfo2uwJBmwlBItEz/Cd2xSNJVqaZMkGbCUDi0SP8KJNqmckj+DVWCTJBmwZMBKhsk2KZqA1cImSTJgKR2aG7CiMYXSxB9tPvhYkgFLqZD0VTHFzLBJ5bSCRQkfYS0a2yZJBizFrx71Ez7CeWyyTeWW/N9bepNQkgFLKZD8Rcc+oqEiZnnESZIBS/nXLPEjnG2TooqjzWySJAOW4lcn8SP8zCZVwKLEj7CuTZJkwJIBK/8KbVIFLEn8CGvbJEkGLMUv+Zc7A1Zc1apjkyQZsGTAyr9lNqkClhqwJMmAJS9327fOJkVVLW8RSjJgKQWSf7nbaJMqYINHnCQZsOTlLobIYLUqwluEkgxYSoGaiR9hkU2Kqlq1bJIkA5a8IHtBDkvyq+WLjyQZsJQCyb/ceUsprmq5pk6SAUspkPzLnYuiDViSZMCSASvD6tukqKrlLUJJBiylQPIvdwU2qQJaGOklyYAlA5YBK23VMmBJMmApBdYbGaLSPPEj9LlmkgxYSoHkv+lvB5sUVbWW2yRJBiwZsPKvo02qgE6JH+FSmyTJgKX4LTdgGbCM9JJkwFJmbWJ1wkfYhrq2KaI4utwmSTJgKQ2WJ/743dUmlVOLxP8koJiVtkmSAUtpkPxbNt1tUjntFUCcL7VNkgxYSoPFiR9hD5tUTnsmfoSFNkmSAUvp8KkBKxo9PNokyYClZJiX+BEe4DFcTgclfoRzbJIkA5bSIflzCs3Y3TaVQ0EAdZpnmyQZsJQOIVzy+timclWpmkebJBmwlAxzAxjjIbapHA42zkuSAUtJEcKy4yM9isthoAFLkgxYSopFiX+WO7RiHxu1HTsG8bywWTZKkgFL6VDKBwGM8mgbFUGFPvNFOZIMWEqPEALWibZpO04KYIzTbZMkA5YMWEmyD11sVBmacYQBS5IMWPKyV1Gn2agynEJto7wkGbBkwKqoM2xU8NVxBktSVKpZApWpHquoEcA4D+Itm7VVnfg4iC9SOzPTZkmKhzNYKtu6QG7dnG+rtuEHQZzlK5htqyQZsJQmE4IY5Rk0tlVbUZPzAjnKSmyWJAOW0mR8EKNswPdt1VacQrsgxvlfWyXJgKV0mRDIOK+gps36liuN8ZJkwFIyA1YYN2924hSbtYXDOCCQkY6zWZIMWEqX1XwUyEh/4a9iv1WRMCzzF4SSDFhKn3cCGec+vjRnMwcF85bGcZTaLkkGLKXNyGBG+keP6G/4UzAjHWWzJBmwlD5vBDPSbj7T/Sv9ONwjTJLyxTUrKo9PaRvISOexO2tsGNV5h16BjHUDTVlvyyTF9jEsbd+bwYx0R35qu4ALg4lX8JbxSpIBS+kU0i2cq2if+n414w8BjXakJ5gkA5bSKaRLYH1uSX2/rqel8V2SpOSbQ2lA22mp7tWhlATUq7XU8/SSFB9nsFQ+zwc12ptontpO1eX2oH688irrPL0kGbCUVsODGm1r7khtp/7KrkGN9zlPLklSejVgXVA3CUv5Xir7NDCo24OllLKTJ5ckKc1eCOzCvYrOqetRaz4LrEuTPbEkxclbhCqv4YGNtyGP0yBVHarJI7QObMzPemJJktKtY3A3n0p5IFUd+ltw/SmlryeWJCnt3g7wAn55arpzeoAB+FPn0CXFyo83ld/QAMf8d05IRW/24+4A3yw6lBJPK0lS2rUPcI6klDXsH31nOrEwwM6UcqAnlSRJMCbIy/h8do66K634IMi+zApwzk2SyslbhKqIoUGOug2vRfy0pSYMD+zRol96hFJPKUmSoC1FQc6VlDI9uAcYlE8jxgbakVL29YSSJOlzzwZ7OZ9Km+i60YRRAfdDkiLmLUJVzD3BjrwrYyJbi9WcF+kT7Ojv9GSSJOlLtVkU7JxJKbPZPZpO7MjUgDuxnhaeTJJi5gyWKmZj0E9H78AYDouiD90ZQ9eAx/8kSzyZJEn6WreA500+nzs5M/geHM3KwLswwBNJkqTNjQn84l7CX6gZbPWrcXWwv+X8cpvp3LkkSVs6I/DLeymlvELLIGvfmMcjqP4vPYkkSdpSLeZFcJGfS7/gKt8r0Ge2b/nyogJPIkmxq2kJVGGbuIVrg9+LHXmZv/JbNgYy3ur8jD9SO4Lj5z4KPYmC1ZACWtKCAgoooA61aQA0oDbQlNUUUcpyYCNrKKHwi20JhXZdaeO7wFQZLZhDvSj2ZAI/4L0AxtmZOyL5/WMpXZnuKRTMV/Ad6Uinr/6nJXUq/WeVsIS5zGQWs5jFTGayzgLLgCVt6XYuiGRPNvF3/pDoj/qa/JTfRRJo4XmO9fRJ+FWhE3vRne7sRaes3uVYwBQmMpnJTA1mJlkyYCnLujE5oqPnI67kuYSO7RBuYq+IjpwjecnTJ5F2ozcH0IM9aZSHrzkfMJlxjGW8UUtS2sXwa7ZvbsPZI3E13olHIqvyu36pS5g69ObnPJmYNzSsZSTXchzNbY2ktOpFSWQX/43cRvvE1Lclf2dtZBUu5RRPnISoRk9+yRusS+zT6qZwI0dS11ZJSp/no7v8l7Kem2ib98oW8GdWRVjdyT5gNAGacRr3sCCYh3o8y4/YxbZJSpPeEUaAUkrZwL/pnreq7sI/WRNpZU/3pMmr9vyEUYG+B+BD/sb+tlBSWrwSaRAopYQXOJlaOa1mdY7iseBfg7Pt7X3nr/KmLZcxKoKb+jO4jp62U1L8Dok2DHy+fcZ1dMvRvNXvmB15Nc/0hMmDFvyQ1ymO6kj6kD/S1dZKittzkYeCz1cO/Ybds1bBjvyM/6agilOp4emSU9U4nIdYH+0RNZrzqG+bleRTUKqKHrybkhs/nzCC4bzB6gz9efXow9EclZpv4sfzjKdLzuzAuZxP5+j3cwUPckcQ72KQAUuqsHs5J0V7W8RERjOaCcygpFJ/Qkf2pg996BXFewXLaySHeqrkyBFcwvE5Xj+YX+O4jQdYb+tlwFJcduKDKryfLFxrmMpkZjCLWcymcJsf77UpoD0d6cTOdGNPmqSwVqUcxNueKllXi9P5SUoXgS/iFm5liQeBDFiKyQ1caRFYQyFLKGUtG4BaNASa0yIPrx1JnmGcZhGyrAkXchk7proGa7mXG/nIg0EGLMWiOR/QwjJoGzbRlY8tQxbtyJWcT2MLAZTwNH9hrIVQ/vlcGlXdUn5tEbRNQ4xXWdSS6/iQnxivvrqmncgYXmI/S6F8cwZLmflQG+tTlrVVn7E7KyxDVhTwY37iTehteJmrmGAZZMBS6PblbedDtRVn8IhFyIJG/JBfpvInE+VXynP8mokWQvnho/+UGfPpxN6WQVt4hassQsbV4gqeYBB1LUWZqrErF9CBt1ljMZSPA1DKjNZMp6ll0DdsZG+mWYYMO5a/s5tlqICV/JkhbLAQyi1v6ihTFvJTi6DN3Gi8yrA9GMGzxqsKasz1TOEEC6HccgZLmTyaXqS/ZdAXPqAn6yxDxjTjGi5J1RPaM+1lrmSKZZABSyHaiSk0tAwCSjiMNy1DxgziX7S1DFVUxK38jyuylBveIlQmzeZXFkEA3GS8ypg2PMbTxqsMqMllTHKeXbnhDJYyHdnfoK9lSL2Z9GC1ZcjIZ/QF/NXHiGZUKQ9wJYUWQgYshWVXJtDAMqRaCYfzhmXIgN25wy8sWbGAS3nCMiibvEWoTPuQKyxCyg0xXmXk6+/lvGu8ypI2PM6DPqhV2T2Fpcx7hNMsQmpNZn/WW4YqasXdHGsZsmwOZzPSMsiApXA0YyLtLUMqrWFfpluGKhrIv9nBMuRACf/k52y0EMo8bxEqG5ZxNiWWIZUuN15VUT2GMNx4lbNr4GWMoouFUOb5LkJlx2zqu3okhYbxPxahSvbkFY713kJOteM8ZjPZQsiApTC8ziF0tAypMpNBrr6qkjN83lVe1OEUmvOK8+7KJL8nKXtaMYF2liE11tOX8Zah0mryJ37hZ3IejWYwCyyDMsU1WMqeRZzq4tEU+aHxqgpaMIKrjFd51Yf36GcZlCneIlQ2zWM1R1mGVLiFay1CpfXiFXpahrxrwJlsZLSFkAFLyfcWu9HdMkRvDN+l2DJU0pk8RYFlSITq9KctI1yNpapzQlrZVo/XOMAyRG0B+zLfMlTSr/mDn8QJ8wKDWWUZZMBS0u3A23SwDNFaRz/etgyVUpN/cpFlSKApHMscy6CqcJG7su8zjmaFZYhUCd81XlVSI542XiXUnrxFL8sgA5aS7n3OcoVOpH7KkxahUjowhqMtQ2K14TX7o6pwkbty40OW+2EVoVv4rUWolN14g86WIdHqcDqf+IR3GbCUdG9Tm4MtQ1Se5TxKLUMl9OBVn9gegOqcxHwmWAgZsJRsr9HWVQ0RGcsJbLAMldCLl2hlGYJQjUGs5C0LIQOWku159qCbZYjCRI5kpWWohL68SDPLEFDEGkg9XrYQMmApyUp5igPYxUIE7yMOZ4llqITDeI5GliG4UGzEkgFLCVfMUxxGewsRtDkc5oNFK2UAz1HfMgQZsRrwkmWQAUtJtpFh9GNHCxGs+RzOTMtQCQfzLPUsQ6D6AG9YBhmwlGQbeNSIFax59OMjy1AJPRnhzcGgHcY6XwQtA5aSHrGcxQrTXA7nY8tQCd15heaWIXD9WcQ4y6Dy8V2EypemvMh+liEos7w5WEm7MdIHM0ShhPO43zLIgKVka8RT9LMMwZhJP2ZbhkrYiVHO10ajiNN4wjLIgKVkq8ODnGIZgvA+A5lnGSqhMaPobhkisp4jGGMZtD2+7Fn5tIHTucsyBOBtDjFeVUotHjNeRaYuT9HFMsiApWQr5gL+ZhkS7lkOp9AyVEI1bqe/ZYhOC4bT0jKobP6KUPn3Emvo7+3qxLqHs3znYCX9listQpSacwAPUWwhZMBSso1hMoOoZSESp5RruYISC1EpZzPELw7R2omdXewuA5aSbzovMsjHMCbMes5jiGWopN48Tk3LELHulPpsd22b366UHG15hn0sQ2Is4WTetAyV1JrxtLMMkSvheJ6zDNo6F7krOeZzGE9ahoR4l32MV5VWi0eNV6m4gt7PLpZBBiwl3ypO5n9cOJoAj3Iwcy1Dpf2NvhYhFZrxOPUtgwxYSr5S/pcjWGgh8qiIqzmNNRai0r7LZRYhNXpwp0XQ1rjIXckzm4fp46tF8uRTjuMhy1ClC+5T/iI2VbqzjLctg7bkInclU11u4BLLkHOv8F0WWYYqaMi7dLYMKbOJvrxjGbQ5bxEqmdbzQ0706eE5VcwfGWi8qqKbjFcpVIsHaWgZtDlnsJRkrfk3R1mGnJjNOYy0DFV0Eo9bhJS6mx9YBH2Ta7CUZGv4D8s43OM064ZxLB9Yhipqx/P+oiy1ejKdqZZBX3MGS8nXi3vobhmyppCLedQyVFl1XuJwy5BiS9mLeZZBX38kSEk3nn35A5ssRFY8Qw/jVUb81HiVcs25z2uqvuatF4WgmNd5mgNoYykyaiHn82tWWYgM6M7Dfp6mXidWMtYy6HPeIlQ4avELfk1dC5ERpdzHT1hqITL0VXU0B1gGsZbuzLAMAm8RKiSb+DN7+mrVjJjBQM4zXmXMj41XAqA+/3LiQl9+75JCsoz/MIEDaWYpqvAd+1rO9DeDGbQTj1LbMgiAXZjJRMsgbxEqTPW4iqu8WVgpz/JjZlmGjBrBQIugryylq+9TlbcIFaZ1XMOu3E6JpaiQ9ziEQcarDDvXeKXNNOdGiyBnsBS2ffkL/SxDuczh99xLsYXIsJZMo8AyaAvHuVpUzmApZOM4nAGud9iuQq5mN+42XmXBn4xX2ooh1LEIaecid4VuBnfwMV1pYSm2ahXXcTqvUmQpsmAv/uXXVG1Fc1YyxjKkm7cIFctXhdP5FV0txGZW8n/8ncUWImte9Ra1tnn27epS93Tzu5fiUMx/6M7xTLAUX1jC7+nI1carLDrFeKVtasyfLUK6OYOl2L4yHMOVqX8n3Fz+zh2s9XDIqrpMZWfLABSzEljPOmrQGKjnI1QAKGE/v/IZsKS47MWVnJHSRaZvczPD2OhBkHW/5NqUxoZPmMYsZjKLzyhkMcu/9c/Up4AW7EAHOtKRLnRLaeR6k0Mp9VQxYElx2YFLOZ8dUrTHGxjKzfzX1udESz6hUar2+APGMJaJTGVNhf/dGnShB/vTm14pe+b9yTzhySIpPrU4iecoojT6bTa/prUNz6G/puCo+nybw+2cTMsM1a0uh/BnxlOSkupNdqWzpHi153fMivYDfA33c4Qf4jnWhjUpCAdT+A17ZqmCrTmfF1Px5ec7ni6SYladw7mdwqg+uEsYyfdTdpsqKW6KPBR8yp/oloM6tuQS3om8ltN93qSk+NXmOB5gZQTRaiw/paMNzduc6Ppo40Axz3I8NXNaz725hRURR6xzPWUkpUM9TuZuFgZ6+RvJ5exoE/PqtmhvN99KlzzVtDE/ZXakdf2EWp40ktKjOgfwJ94N5kN6CQ9xXqp+FZlUO7MxwhCwgt/n/a2KtTiLD6KMWBd62khKnx05h3sSvAi+iNH8lv1dx5EYt0Z3+V/NdYl5ZXVNvsfMCOewPH8lpVYnvsd9bErQRe8Vfs8AF7EnTIvIfj9YzD20SViNa/MzlkcWsQZ76khKtyWJ+DD+O/vleJmxyuu3UV32R7NfQuvcijsojqjSb3nqSDJg5X872EYkVB0WRLTq6vKEPz/tIKZEFLE8q1PHxxNKUnmdE83PDJ6hK0MoSfQYx7IPv4/mvZo/9fSRlGbOYGnbqvF+FHMpa7k8oKrvyaRIHgy8h6dQujiDJUnlc2wUl8h32IshAY13CgdxexTx/HJPIQOWJOnbLo1gH27nYD4KbMxruIjvsCb42p9DU08iA5YkaXPtGRD4HqznB1wU6Jqmh9mX6YHXvx5neBoZsCRJmzs/8IdFzqcvdwc8/un05tXAj6ELPI0MWJKkb6rBeUGPfwq9GR94D5YxkNuC3oN92MdTyYAlSfra0XQIePSv0IfZEXShiEu4Jug9cA7LgCVJ+oaQX9f7HMexMpI+lPJ7Lk3487vKciYNPZkMWJKkz7Xh6GDHPpSTWB9VN27lPIoCHXsj30powJIkfemsYN8NOZTvsim6ftzPhZQGOvZzPJ0MWJKkz50e6Lhf4ByKo+zIPfw40JEfQltPKAOWJAl2oVeQ436ZE9kQbVdu4epAr7qneEoZsCRJoc5fTeXUyNZebel6bg5y3Kd5ShmwJElhBqz5HMOK6DtzBU8FOOo+QT/yQwYsScqI3egR3JjXchxzUtCbEs7kveBGXc2bhAYsSVKI81c/5N2UdGcNJ7LEY0oGLEkKzcnBjXgI96aoP7M5O7gHj+7Pjp5YBixJSrO2wd0gHMPPU9ajEfwxsBFX4yhPLQOWJKXZ0VQLaryrOS/CB4tuzx94I7ARG7AMWJKUaqFdCC/loxR2qYTvBfa2xQHU8uQyYElSWtWkf1DjfYz7UtqpmVwe1Hgb09vTy4AlSWl1EE0DGu2KwEJGZv2bF4MarzcJDViSlFpHBzXan/Bpqrt1Eas9tmTAkqTkGxjQWN/gnpR3a1ZQvybs4UufDViSlE6N2SuYsRZzOaWp79g/+DCYsVbjYE8xA5YkpdFB1AhmrHcy0YaxMahngPWxYQYsSUqjcH7ntZLf2i4AnuZlA5YMWJKUZH2DGemNLLJdX/hlMLdK96KR7TJgSVLa1GT/QEa6nCG26yvjeDaQkdbgANtlwJKktNmLhoGM9K8ss13f8Jtg5rC8SWjAkqTUCeUG4SpusVmbmcjzBiwZsCQpmUK5QXgHK2zWFv4WzDFWzWYZsCQpXcJ4BlaR66+24nXeCWKcTdjJZhmwJClN6rBrEON8gjk2ayv+Gcg4e9gqA5YkpUlXagUxzjts1VY9GsjCfwOWAUuSUiWMC99MXrFVW7WOB4MYZ3dbZcCSpDTZM4hR3kWJrdqGOw1YMmBJUtKEscT9YRu1TROZGsAod6WerTJgSVJ6hDCz8A6f2KgyDA1gjDXoaqMMWJKUFo3YIYBRPmKjIqhPFxtlwJKktOgUxCifsFFl+iCIm4SdbJQBS5IMWMkxnZk2ajtGBDDGjrbJgCVJBqzkGG6boqiRM1gGLElKjRBeYPKCbdquUaw2YMmAJUle9MqriNG2abs28Fbix9jB67ABS5LSomPiR/heAHMzSZD8GFqbtrbJgCVJBqxkGGuTymVUAGP0JqEBS5JSoS5NDFiReDuAlwntYJsMWJKUBi0CGON7tqlcVjEj8WMssE0GLEkyYCXBBj6yTeU02eNNBixJSoLkzyhMocg2ldMkjzcZsCTJC155TLdJ5TbN400GLElKguTfsvElOeU3y+NNBixJ8oIXR2gwjJafM1gGLElKhWYGrIgsZo0BSwYsScq/+okf4ac2qdxKWZDwEdazSQYsSUqD2okfYaFNqoAlCR9fHVtkwJKkNEj6Ba+UZTYpojha2xYZsCQpDZJ+wVvuU7CiCljOYBmwJMmAlQBrbFFU9apNNZtkwJKk+CV9RmGjLaqQDUZ6GbAkycudAcuAJQOWJEWnlgErKsmvl6uwDFiSlAKlCR9fDVsUWb380YIBS5JSYFPCx+cNpYpJ/vzQBptkwJKk+CV9PsEbSrHVy5u+BixJSoGkz2AZsCqmbsLHV0yxTTJgSZIBK9+a+9ykCtYr2bxBaMCSpFRI+g2bWjSySREFLG8QGrAkKRVWJX6EBTapAlomfHzOYBmwJCkVViR+hK1sUgW0MGDJgCVJ+bcy8SPsYJPKrV7i4+hym2TAkqQ0SP4twk42qdw6Jv4nAUtskgFLktIg+bcIO9qkiMJooU0yYElSGixN/Ag726SIamXAMmBJUiosTPwIe9ikcuue+BEutkkGLElKg88SP8LW/o4wojDqDJYBS5IMWMaGwK5xXQ1YMmBJUhKsCeB3hPvapnLZg4YGLBmwJCkZkj+H1ccmRVOnObbJgCVJ6TA3gODgp3d59A1gjLNskwFLktJhRuJH2Iw9bFMUAWsRa2yTAUuS0mFmAGMcYJu2q0sAjxmdaZsMWJKUFjMCGONRtimKGhmwDFiSlBohXPQOpb6N2o6jPdZkwJKk5Pg4gDHW9SbhdjTksABGOctGxaqmJZAAaMs+7EODRIzlJaYy8Yttma3Jg0IWBfCs9NN4ylaVYRD1AhjlDBsVq2qWQKm2I73Yh17sQ5uEjnA2E5nIe4xlge3KoVfpl/gxrqI162zVNj3JCQGMsk0Qbw6QAUsql+p051AOpQ+tAxr1x4xmFKOZTqktzLqb+VEAoxzMo7ZqG5qwkDqJH+Vi3yoZL28RKk1q0JNDOIy+NAtw9J3pzLnAEkYzilGMo8iWZs37QYzyPAPWNn0ngHgFk2yUpLB15Ic8wwpKI9qWMZTv09bmZsUhQRwDRbS3VdswLogO3mCjJIWpBr24hnGURBWtNt8+YQj9qW2zM6oJxUF0/3e2aqv2CuTsPc9WSQpNc87hYZZFHKw231bwGGfR2MZnzAdB9H0utWzVVtwRyHm7r62SFI76DOYZNqQmWn1zW88znGPMyogHA+n5WbbqW1qxLpBbvPVslqQwotXpPB7IR2s2t7U8zhk09ICokisD6fa7tupb/hhI7ybbKklJV5NBPMTq1EerzWPWMI6jhgdHJfUNptM+0X1zDVkSSOf+ZbMkJdku/JlPDVTb2ObxZzp7kFRCAzYF0uPRNmsz/xPM2Xm2zZKUTHUYzEtR/0IwU9s4LkzIa4BC8nYw/T3aZn2lCYXB9K2T7ZKUPHsyJKAP0mQ8N+sW9vbAqYC/BhSgfSvHl34fTNfm2yxJyVKN/jzjvFUlt1EMdl1WOR0fUF/PtF0AtAtoJeYjtktSctThHKYYk6r8aNKraOrBtF3NA3nY6Odr7bwFDPBAQOfhZbZLUjK05dpgfh0Uwg3Dv/iale2aFFBHf2+7ODComW0fMiopAXbn3pQ+OjSb2yYeoocHVxluCKib69g15d2qyYSA+rXEW/WS8m0P7gvmB/PhbSU8Qy8Psm0YGFQvX0/5UvergurWg55ekvKpK/dRZAzKQcjydsXW1GVNUJ28IMW96hjYg4Z9xZGkvOnO0IAWGYcfsp6kpwfdtwwPqovL6ZjSPtVgZFCdKqaVJ1fsqlsCJVJnhjKRwR6hOVONExjPU67J2sILQY22CfendGXPLzk4qPFOYJEnlwFLyrUC/sFUBvvoxDyErON5l7toaym+0ILDAxtxX/4nhX06gN8FNuLhnlyScqsuv2CZN+zyvK3mGp+qBBzF/CB/G3pYyvrUnBnBdam3p5ekXM6fnMks401iXuNxfqp/Rl6Pm4N9W8BCdkxRp6ozIrgOfeYjGiTlTh/GGWsStk3iyJQejfvwftCde4s6qenVHwPszy1+4EvKjZbc7bsFE7o9zU4pOxprcHUED7W9PyVrGL8T5CfHoX7oS8q+apzDYoNMgre1XEPt1ByPHXg9kr5dk4JuHcz6IG+/e4NQUtb14m0jTADbZPqm4ng8m+URPdnse5F3a3cKg+zMED/4JWVXU4b4lPaALtf30TLq47EJD0TWsyJOj7hf7YP9ScxBfvhLyqZBQf4EPt3bYs6LdmVPf+ZG2LENHB1pv9rycaA9meMT/iRlTzPuNa4Euo2I8BEAdbkh2h9ZrI3yl6BtmBpsR/7iBUBSthwV5VxBerblXBjV8diNd6Pu1wZOjuwTZCc+DLgfe3gJkJQNTbnHiBLB9lgk67Gq89Mgf4dW0We7fzeiz5DdmBNwL0Z6EZCUDUczz3ASybaQk4I/HtvzSkq6VczPI/kM6cuSoDtxtpcBSZlWh+soNphEtQ2lecBH5OBAf+Rf2e1OagX/KXIqawO/vV7fS4GkzNqVCQaSCLfZgf7kvGl0j2Qo3w8UQg7E1bkm+J8i3OylQFJmncMqw0i063uuoXpgx+NBfJLSbs1h/0A/QxrzRAT139uLgaTMacT9xpDIt6cDmhmpzfWpvlW9lvMD/BTZN9inXn1zG+vlQFLm9Ar6B9Vusd0qjP2RDOXbHg3qVmF1rmJjFHU/zQuCpEz5fgp+Au/2+baRnyb8CdXVuJx1dopSSpkXzONHd+LVSGo+w1c8S8qMWtzihSx1twqbJPZ4bMsLdmiz7d8UJPwzpAZXRLR68zIvCpIyoTUjvYSlcJtGl0Qej6cG/vSkbD3L7KwEzzruw9sR1bqQhl4W0qa6JVCWPhoPtgwptDvjOC5hY2rEbQxL/GxNPrTift6hdwJHVsAQ3gn2F49b83+s9oCTVFXfc6VLyh/ckKSbIX2ZYU/K3Iq5j04J6lhDfsmKyGq8njZeGCRVTQ2GeMly4w5qJ+BorMWfKbIb5fqJwr9on4CO1eNKFkZ5PiiFqlkCZVB9HuJ4yyDgTU5hcV5HsDv3s6+NKLcNPMANvJ+3v785F/NjdoiwshvZjVkeYJIqrzXvOBfg9tU2k655/Or4Q9bYgwpvJTzLkXlYm7s7N0X8todbvTg4gyVVxR48l6iVHMq/pQxiTB7+3h24i2Msf6XN4i7u4dOc/F31OZUL6BtxNdfTOUe1lAFLUerNU7SwDNrCBs7ksRz/nUdxt0uKq6yEsQzjET7L2t9QhyMZzAk0jrySN/ITDycDllRZ3+Vu6lgGbUURF3NXzv62htwY5Lv2kqqYNxnBcCZl9E9tw1EczZEJfixt5qxhFxZ6IBmwpMq5nBs9krRNpfyGP+fkbzqQ++lswbNgPm8whlFMprgKf0oH+tKbQ9gzRZ8X13O1h48BS6qcX/Eni6DtuIXLKMnq31CTX/MralrqrFrDVCYymenMYjYby3GFaUMndmVPetCd1qmr11K6sNTDxoAlVcZ1XGURVA7DOJNNWfvTu3A/B1jknCphPvMppJBC1rPmi7hVjaZUpwUFFNCSnVK+dOAybvZAMWBJlTl6buAKy6Byep6T2ZCVP/kcbvFNb0qcaeyVxS8VSjzfRajKqsGdxitVwDE8Qd2M/6kteZJ7jVdKoCuNV+nmDJYqpzYPMNgyqIJGcBLrM/jnHck9tLWsSqCnOcEiGLCkiqrBfzjNMqgSXuAk1mXkT6rHdfzYzzAl0ka686FlSDdvEaoy8eoB45UqaSBPUi8Df86+vMtlxisl1E3GK/nxpIqH8rs51zKoCl7mBNZWKeJfze+oZSGVULPZk9WWwYulVLFI/k/jlaqoP09V4ef7O/EqfzJeKcF+bLySAUsVdT2XWARlIGL9hxqV+jcH8x6HWEAl2AM8YxFEJT/ilFbX+lhRZcgetOK5Cv47TbmLP2ThUQ9S5hRyAmssgwxYqohf8TuLoIzZlxq8VoF//khepLdlU8JdzFiLIAOWKuK7/NMfRSijDmV1OS9GdfkTt9LYkinhXuVnFkEGLFXEkQz1aFHGDWAGk7b7T+3NC5xkvFfiLecoVlgGfc5F7iqPnjzqr7aUBdW4m+O28xn1C96mq6VSAC5mjkXQ1x9v0vbsyFh2tAzKkrUcxn+38d914F4Os0QKwr2cZxFkwFL5NWc0u1sGZdF8DmDeVv7zwdxGM8ujIMygJystg77mLUKVrS5PGa+UZW15/Fuvz2nGwww1XikQRZxpvJIBSxXxT/paBGXdfty/2afR4UzkdMuiYPyetyyCNufvwlSWn3C1RVBOdKUmrwJQh+u5laaWRMF4jQsptQwyYKm8BvBv5ziVMwczg0l0ZTgnuzpUAZnLAN89qG/zY0zb0oW3XQGjnNrArVziq3AU2FF7KG9bBhmwVF6NGEs3yyBJZbqQOyyCtsYbQNr6cfGg8UqStuN+45UMWKqIaxhkESSpTOO50CJoW7xFqG8bwAijtySVaQEH+mocGbBUfq15lzaWQZLKsJZ+vGMZtG3OU2jLI+IB45UklamY7xqvZMBSRfyW/hZBksp0JU9ZBBmwVH6H82uLIGXQR3yHRZYhMjdws0XQ9rgGS19z9ZWUWbfzE9awD6/SxGJE4zFOo8QyaHucwdLXYfte45WUMYs4notYA0zgeNZZkEi8zFnGKxmwVBE/ZKBFkDLkBXryzFf/30hOYINFicBYTmK9ZVB5eItQn9uZiTS0DFIGrOOX3ETpFv/pyQylhsUJ2nsczjLLoPLxdBdAdZ6gi2WQMmAcA3luK//5NBZxnOUJ2Af0Z4llkAFLFfEzzrcIUpUVcy3nbPNXg+NYwUDvGwTqYw7jM8sgA5YqohsPUdMySFU0g+O5r8wF0G+xiGOMWEHGqyP41DLIgKWKqMkz7GQZpCoaxiA+2u4/NY6POd6fFwVmGkcwzzKoYjzN9Sv2swhSlRRyCqexvFz/7IOcR5ElC8gEDnH2ShXnVHXadWESdS2DVAUvc14FL8CDGEYdCxeE/3IUSy2DKs4ZrLQH7NuMV1IVrOMyjqzw/MYznObTlILwCv2MVzJgqeLOop9FkCrtXfbl5m898ao8nmYAhRYw4Z7gONZYBlWOtwjTrDnTaGUZqmQli1hCIYUUspH1rANWUUpjoA71qUkLCiiggJY0s1xRKeGv/JaNVfgTduN5draQifUPfupLcWTAUmXczgUWocLmMokPmcVMZjGLVRX4N+vTkU50pCNd6EFHz76gzeYcRlb5T2nFM+xvMROomCu52TLIgKXK6M2b3iIutw8YywQmMSljL8poTHe6sw+92cM+BOcBfsSKjPxJ9XmI4y1owqzhuzxtGWTAUmXUYjzdLcN2v8WO401GMYbFWfxbmtGb3hzMQT7uNQjLuIRHMvjn1WAIl1rWBPmMQYyzDDJgqXIuY4hFKMMiXmA4L+Z0GXIT+nM0R9HO8ifYK5yXhUdO/pAbqW1xE+E9TmS2ZZABS5XTjI8osAxbNYdhDOO/eVzc2pNTOY3OtiJxNvA//CNLR0ZvhtHWEufdfVzMOssgA5Yq6wautAjfsoChDGVspX50n3m9OI3TfYlRgkzmTCZn8c/fgWH0tcx5tJErudUySKq8nVlPqds3tmJeYjC1Etep6vRnKBvtUN63Em6jftb7XZPrrHXetk/p7cVBUtU87ofpZh+r19Ah0f1qzVXMsFN53OZyRM66fRZrrHgetjdo7aVBUtUc4ofpV9skzg1kaXENBvO2HcvL9nCOHxG7J5Osek63Iv7gL3glVf2m0zg/UCmllBc5Mrg1iAfzFCX2Lofbcs7KQ5/rcqN9ztk205VvkjLhbD9QKeVlDgq2g3vztB3M2W2j/P3I4Ejm24EcbA/SxMuCpEzcaPog9R+oo3O4niZbejDUS2OWt01cQ428drkpD9mHrG4ruNCLgqTM+H7KP1CncUw0vTyUCV4is7ZNpWciunwBq+xGlrZX6OQlQVJm1OKTFH+cLuWqyJ6VXZ1zWOCFMiuPZGiQmC635TF7kvFtGRf6FEhJmfw2nN7nXN0a6ZPrG/MXn5OV0W0+AxPX5dMM0hndhrKDlwNJmZy/SuuzlKZwYNSd7c5bXjQztD1Gi0T2uAlDKLY/GQnQp3gxkJRZF6fy43Q9v03BS3RrcCWrvXhWcVvJ9xLd5YOZZpeq+MOFITT2UiAps+owJ4UfqO/QNTUd7sQrXkKr9OvSnQM4i3/BcntVye2FFH0aSHL+KotbEX9O4NsFs6k6v2CDF9JKbBv5dZ4fyVB+LbmVTfasgtuHDPIiICk7l94PU/aBOptDU9lpX7NS8W0GfQLr8m4+B60C2yquoY4XAUnZcVLKPlIfpWlqe12fO72oVuCRDP9H/SD7fCST7d92t3X8g1ZeACRlz6hU3Rr8eeqfcHMB6724lmP7jOMC7nINzk3dzHRFtg38Hzv64S8pm/ZP0YfqYgbYcGAfZnqJ3c42gjbB97k6g/1t4VaffDeUzn4MSMq2R1PzsTqeDrb7Cy15zQvtNrfVEb2FrgZnGbI2exjD/XTxA0BS9u1CUUo+WJ9O0AtOkqA293m53er2dnQX4Op8lyl2lpXcwE6e+pJy45aUfLTeTk2bvYVqXEOJl90t1uhdF+2jZ/syNDVfp7a2ou4amnvSS8qVpqxJxYqLK231Npzrs7G+sX3MQZH3uzNDWJG6vk7k3BS8sUFSovw4FXMS59roMhzNWqMVpZRyH41S0fFGXMjU1DyIYSj9Pckl5V78j53cwMm2eTv6sSr14WoxJ6aq59U5nHsj7/s4LvLdgpLy46DoL5trOdo2l+tIWJbqePU8O6Sy7w05h1cojq6fi/gnPT2tJeXPPdHHq342uZx6sjSl4Wotl6b80bMd+BXTI+lmIXdypD9okZRfTSJf4L6BY21yBezPyhTGq0n0sPUA7MzljAr4V6VrGMogl7JLSoIfRf44wZNscQUdmrLl7kVcSy3bvpl2XMyIwH5ZOp0bOdIXNktKjpgXuBfzXRtcCUel6KENMznYhm9DY07jNj5I/PP2n+YSOtkuSclyQNQXzx/Z4Eo6IyWPHr3X35eVQ1vO5A4+SljvVjCc33CYc1aSkummiC+eN9jeKrg6+nBVyGDbXCHtOZubGJXnxzrM5kEupQc1bIhiUM0SRKom82gd6b49y4kU2+IquIUfRrx3r3Ae82xypee0etGLXhxAy5z8fRv5mPFM5X3+y2eWXwYsJd9ARkS6Z+/Qj7U2uIrx+1kGRrpv1/NLSm1xRqLWLnRmF3ZhFzrTLGN/7npmMZNZzGQGk/nEL0uK94NWcfpOpPu1gBONV1VWxBm8Q5dIvzQarzJjPvN586v/rzmdaE1LWnzxv1vSmiZQRvAqYQWrKWQxSyikkEIWM4eZLLC0SgdnsOJUl4VRLvHdxOGMsr0ZsSdv0SDC/ZrBLjY3x+pTh5pfvOdxE6uB1WyyLJJiNNjfDmq7zoj0KNnX1krKv+qWINJLZ4we4J+2NoMe5h+Rfr2QpLzzFmGMmvAZdaPbqw/ZhzU2N6NqMSbC+Z6Z7OI6LEn55gxWjI6NMF4VcY7xKuM2cQaroturTvSytZIMWMq8QRHu029528ZmwSf8JMK98iahpLzzFmF8arIog8+sSYaRHO7TcrLmMU6ObI/8JaEkA5Yyrh+vRrZHa9iTWTY2a1rwfo6e2p07ezLVxkrKJ28Rxie+G4S/Nl5l1RKujG6fjrGtkqTM+jCypxq97atfc+DpyI6aV22ppPzyFmFs9uD9qPaniP14z7ZmXQemfPEk7jhsoiUrbKuk/PEWYWyOi2x//mq8yok5/C6q/anFAJsqyYClzIlr7cl8rrWlOfJPpnsmSJIBS1tTlwOj2p+rWW1Tc2QTP45qf452AYQkA5YypXdUz3B/hwdsaQ69zPMR7c0O9LSlkgxYyozDItqXUq7wjXI59lM2RbQ3h9tQSQYseUnZ0lOMtaE5Np1/R7Q3h9pQSfnjKoWY1GcZtSPZl1J6MtGW5lwHPqROJPuyggJfsCQpX5zBiknfaOIVDDNe5cUc7oxmX5rQw4ZKMmCp6vpFsyfFXGM78+TPrI1mXw6xnZIMWKq6w6LZk6FMs515soA7PCMkqapcgxWPuqykViT7sg/v2tC82ZEZkRxJS2lJiQ2VlA/OYMVjr2ji1SvGq7yax6OR7ElzutpOSQYsVc2+0ezJDTYzz/4ezZ70tpmSDFiqmv0i2Y/pDLeZeTae1yLZk142U5IBS1UTywzWTT6/PQFu9qyQpKpwkXssGrKcGhHsx1rasdx25l1NZtM2gv3YRGPW205JuecMVix6RRGv4GHjVSIUcV8U+1GL7jZTkgFLlRfLrZA7bGViOlHimSFJBqy0i2Mx72TespUJMSOShe4uc5dkwFIVxHEj5AEbmSAPGrAkqbJc5B6HmqymTvB7UcouzLSZidGMzyJ4ffgmGrHBZkrKNWew4rBzBPEK3jFeJcoyXoxgL2rR2VZKMmCpcvaIYi+G2kg7kgW720hJBiyl9xJSyjAbmTBPRXFzzYAlyYClSorhlbYTmWsjE2YlIyPYi91spCQDlionhluEvoHQrmSHM1iSDFiqlGpRfEc3YNmVbH398NfSkvJwaVb42jEv+H1YQQuKbGUCzaRj8PvQPoIzRFJgnMGKQccI9uEl41VCeZNQkgxYKdUhgn143TYm1BsR7MPOtlGSAUsV1z6CfRhtGxNqlGeIJBmwDFhhWs0U25hQnzLbM0SSDFgGrBCNdQVWgo32DJEkA1Ya7Rj8HoyxiQYszxBJBiwlS/iL3MfZxAQbH8EZ4gNpJBmwVEF1aRH8PkyyjQk2hZLgz5EC2yjJgKWKaRf8t/PlvoUw0dbwSfD74CosSQYsVVDL4PdgMqW2MeEdCp2rsCQZsFRBzYPfg4k20YCVZd4ilGTAUgU1C34PPrCJCTfNryGSZMBKm/AvHTNtYsLN8muIJBmwDFhevmUENmBJMmAp5ZeO2TYx4Rax2rNEkgxYBqyQLA7+4p0GoYdg12BJMmApZQFrji00YHmWSDJgyUtHZi2xhXbJs0SSAUtJ08BLt+zSdjSxhZIMWKqY2oGPf7EtDEChZ4kkGbDSpZaXbmVd6DNYBixJBiyl7NKx1BYag7Ouji2UZMBSugLWWltol7Kupp91kgxYqpjQbxFutIV2yfNEkgFLSRP6DNYGW2iXPE8kGbDkhSOznMEyYOWCM1iSDFgyYMkueZ5IMmApn6oFPv4SWxiA4uD3oIZNlGTAUkVsCnz83roJQfiPOXCmVJIBS6m6cPiEohDU9jyRJAOWActLt4zBBixJBixVQei3CA1YBiwDliQDlhIn9B/Q17WFBqysK45gmb4kA5ZyKvQZrGa2MADNAx+/81eSDFhK2aWjwBbaJc8SSQYsJU3oM1gGLLtkwJJkwFLirA98/C1soQEr69bZQkkGLFXMci/dMgZvR6EtlGTAUsUsC3z8bW2hXfIskWTAUtIsDXz87X1LXAA6eZZIkgErXUL/bl6LdjYx4erRyoAlSQYsA1ZYOtnExHeommeJJBmw0iX87+YdbaIdMmBJMmDJS0dmdbaJdsizRJIBS8kS/gxWd5uYcD2C3wMf0yDJgKXUBaweNjHh9gx+DxbbREkGLFXM/OD3oCONbWOiPyXCD1hzbKMkA5YqZimrA9+Dat4kTLTONAh8D0r41DZKMmCpouYFvwd72cQEC/8W7mfBvxJdkgFLeTA3+D3obRPtThZ5g1CSAUupDFh9bGKC9TVgSZIBy4AVoo7saBsTqn4EN3Dn2kZJBiyl8/JxkG1MqAOo7RkiSQasNIrhBkhf22hnDFiSDFjy8pFZA21jQh0ZwT58bBsl5Vo1SxCB2qyhZvB70ZlPbGXiNGVx8MdWMQ1Zbysl5ZYzWDHYyMwI9sI5rCQaEEF0n2m8kmTAUuVMi2AfjrKNCXS0Z4ckGbDS6/0I9uFw6trIxH0+xDCvON1GSjJgKb2XkAZRzJbEpTdtI9gLZ7AkGbBUSe9HsRen20g7YsCSFAd/RRiHhqyMoJdracUam5mgr19zo5jBas4ymykp9x+hisFq5kWwF/U51lYmyCFRxKv5xitJBixVXhy3Qc6wkXYjwybYSEkGLFXeu1HsxXG0sZUJUS+SFVjv2EpJBixV3n+j2ItanG0rE+J0mkaxH+NspaR8cJF7LDowO4r9+IQulNrOBBhN7yj2ozWLbKak3HMGKxZz+CyK/diFw2xmAuzOQVHsxyzjlSQDlqomllshl9jKBPhhJLPb422lJAOWDFgAJ7OLzcyzZnwvkj1xibskA5aq6L+R7EcNfmwz8+yHNPRrhyRVhYvc49EymtUmq+ngwyHzqA6z2CGKPSmiOatsqKR8cAYrHouZGcmeNORi25lHZ0YSr2CC8UqSAUtVNzKaPbmSRrYzT2rwi2j25TXbKcmAJS8nX2vJD21nnpzLbtHsyxu2U1K+uAYrJu2ZE82+FLIzK21pztViOjtHsi9FFHgMScoXZ7BiMpdPotmXAq6woXlwfjTxCsYbryQZsJQZr0a0Lz+hwIbmWD3+J6K98QahJAOWMuT1iPalCdfY0Bz7BTt6NkhSJrgGKy5t+DSinhaxN1Ntas7syHQaRLM3myjwIQ2S8scZrLgs4IOI9qYmN9nSHLo+ongFI41XkgxYypyXotqbwxlkS3PkIL4T1f48Z0slGbCUOc9Gtj83R/NWvGSryT8jWzDwrE2VZMBS5rzGiqj2ZyeXuufEz9gnqv35kI9sqiQDljJnEy9GtkdXcpBtzbIu/DayPXL+SpIBSxn2THTH6L+oZVuzqBq3Ui+yfXIFliQpwwooojSy7be2NYsuju54WUFt2ypJyrSR0V0wN3Ggbc2S3VkT3fEyzLZKyjdvEcbomej2qCYP0tjGZkEt7qN+dHtlwJJkwFIWPB3hPu3sQ0ez4lr2i26f1roCS5KUHROju+lTSmlkD8JMgiMpjvA4ecTGSso/Z7Di9FCUe3UXPW1tBnXgwSg/AQxYkhLAlz3HeumcGeWl82P2Y7ntzYi6vMm+Ee7XKlqzzvZKyjdnsOI0h9FR7ldn7veYzZB/Rhmv4GnjlaQkqGkJIvUfDo5yv47jt748JwN+yA8i3bOhNjcnqtGCRtSkEdCQWl/8X7CJ1cBaNgArWEUhRRZLaT1JFKcCFkT6/PNSzuEBG1wlR/N0pF+uVtKKDTY4w2rRkV3oSGta0IpWtKQFLcs9l7yCxRSyhEIKmc1MZjGLlRZVBiyF6xmOi3TPNjKQ121wpe3NyC9mG2J0N5ez2iZXUXU605Vd6Mwu7EKHjMfxQmYxi0+YwiSmsdGCy4ClkHyH/0S7b8vowzRbXCk78hbtot7DTziLt2x0JdRgd3rRk33omcMIvonpTGYSk5jAQpsgA5aSrz7zaRLt3s3iYObZ5Aprzut0j34vi/gj17r2p9xacAiHsh975f2p/h8xhlGMYRqltkVScv0zyseNfrlNo5UtrqDGvB31MfHNbTSdbPh24/aJDGFiAh83W8gzXMU+TgFISqbukV9C36OZTa6A+ryRmnhVSikrONemb1UNDuXvvBvAc/w/49+cQXNbJilpxkR+CX0r4sXamVabEamKV1++NscQvnnIPpF7WBxYF4sYw2/Yy/ZJSo5zo7+AjqWpbS6HejyfwnhVSilz6Gf7gRZ8jydZG3Qvp/N7utlKScm4rBZGfwF9l5Y2ejsa8HJK41UppZQwhDqpnrscxFA2RNPPqVzD7p7UkvJtSAouoO/T1kaXoRlvpThefb5NYI9U9n4/bmZJlB0dxyU09uSWlD9dU3H5/ITOtnob2jIx9fGqlFLW8sNU/SatDVcxNfKeruZuDvIUl5Qvr6fi8rmY3rZ6K7ozx3D11fZsSh7tsR8PRHRLcHvbZC7zpwyS8mFQSj5m1/Ndm72F/iw3Vm22LWJQ1B2vziBeSmFf13Of67Ik5Vo13k/Jh2wxv7Dd33A+G41UW1nyfgv1oux3C37J3BR3tpjHnMeWlOsLbXo+ZP9DAxsO1OYWw1QZP4voGVm/2/CPwB/BkLkn+J9MdT8AJOVGHRak6AN2kgveaRf9I2arum3g59FchtsxhHX2dLPnZX3XkCUpN36Vqo/XZZGvs9meQ/nMi2w5tldpH3yvd+Rmw9U2lr6f7JsMJWVfc1anbJ3NjdRNZadrcg2bvLyWc1vKaUHPXN3CertY5tPPjvPDX1K2DUndh+vEFL5Uo5O3Biu8/TvIx1U24Hcp+9JU2W0sh/nxLymbOqbwF2Vr+VGqbhKczQovqJV6TG1Yvz2rzjnMs28V2B6lk5cASdlzeyo/Wt9MydNx2vCYF9JKb0VcR61AOn2As5SV+lHDEF+sIylbOqTo2c6bz2NdTc2oO1udS527ysCtpF0S3+lOPGqnKr19yrkue5eUHel9MtK77B9tV7sz2otnRraVfC/Bfa7Jz1ljl6q4vc1eXggkZV6bFD+KsIShdIiuo80Z4m8GM7o9RkEiO70X79idjGybGOLDiCVl3pBUf7Su4ZqIHt5QkwtZ7AUz49tnHJ2wTtfnOorsTAa3jznCi4Ek57Ayu83kexGsyKrO6UzzQpmlrZi/UScxvT6amfYkCzPat9HEC4KkTPqbH658wJkBv0ijGicy0S5meXsvEU9Ra8Td9iKLi96P9oIgKXNastyPVkqZwhkBzmRV5wTG2b2UPEXtAD6yD1mex7oppW98kJQVv/CD9YttFlfRNJi+1eEcptq1nG4v0jZvUfrylD5WJdfb++ztRUFSpi7Un/ix+tW2jOvYKfE9a8NvWWi38rAtysuLw3dipLXP2baOK3w+lqTMGOyH6haLmodzckKf5F2DY3g8ha85StL2f9TPac/P8DZ+zrcR7OCFQZlmbk9n10fS1zJsYSH38h8mJmhEu3MG36e9rcm76ZzF+Jz8TbW5gUsteB7MZzBjLIMMWKqqnowL+Hd02TSTZ7gvRxfTbduJExlMH9uRGEX8mT9SnOW/pSWP0M9i563Hv+Z6yyADlqrqPs62CNs0lecYwSg25fjvrcGBHMUx7GMLEugNzmFOFv/8PgyjjWXO8+fixayzDDJgqSp25IMcrywJzypeYQQjmU5p1v+uLhzMQAbQzLIn2HIu4eEs/dk/5EZqW+K8e5dTmGkZZMBSVVzFdRahXAoZw2hG8x6rM/wn16MHvelLH1pb5kA8wKWszPCfWZd/ca6lTYilDOZVyyADliqvFuPpbhkqoJQZTGIyk/mAmZUOW/XoxK50pzs96EwNyxqcWZzNqAz+eQU8TW/LmiAbuYh/WwYZsFR5vXnTpe6VtoSZzGIuhSxmCYUUso5SlgPrKaE+0Jga1KEFBRTQghbsSEc6OVcVgWL+lz9kaIXeLjzPrpY0cV+m/sg1OVgaIAOWonUbF1oEqRL+y1l8WOU/ZT+eMXIn1DDOYb1lkAFLldOEaf5uSaqUdfySIVX6EwYyjEYWMrHGcAJLLIMqyxtE6baCn1kEqVLq8Q8ep6DS//4lPGe8SrTejGRHy6DKcgZLLzLAIkiVNJ/zeKkS/94f+I3FC8BMjvCxDTJgqXJ24T0aWgapkkoZwi8ruFrnen5h4QLxKf2ZbhlUcd4i1Cf83CJIVfiaegXj2bsC//yNxquAtOONCnRX+opP4RGMZz+6WAap0lpyHkWMLccP+6sxhMstWFAacAYjmWchVNHvXhK0Y7IvaZGq6AW+x4Iy/4nq3M4PLFSAVnFMRh8vqxTwFqEAPuVHFkGqooFM4sQy/vsa3GW8ClQjnmM/yyADliruPwy1CFIVteAJ7tvGj0aq8S/Os0TBasyL9LQMKj9vEepLBUz2oaNSBszkLMZ86z/9iz8nCd4iDmOaZVD5OIOlLxVyvu/ekjKgE6/zP1v8hOgq41UEWvECHS2DysdfEeprH9GAPpZBysAn6xH041VWfPH/n88Q7xdEoQmDeJRVFkLb5ymvb6rJ60YsKUNW8nNuB05kGDUtRzSm0uer6CwZsFRO7Xm3Cm9Xk7S5//A4D1LHQkTlBY6jyDLIgKWKOYZnPS4kqQx3cb5FUNlcg6UtfUR9bxNKUhn2YYMPHpUBSxX1OofTwTJI0jYdwSdMsgzaNm8FaWvaM45WlkGStmk9R2zleWeSAUtl6s2rLsyVpDIspBefWgZtnQ8a1daN4SKLIEllaM0walsGbZ1rsLQtEyngAMugHFpAI4ugoLSnKcMtgwxYqpgX2Y8ulkE5MpN9GcsR1LcUCsgBzOY9y6Bvcw2WytKct+lsGZQDK+nDFKA1d3OM5VBA1tOHCZZBW3INlsqylBNZaRmUdZs4iSkALOQ4fsIGS6Jg1GUYTSyDDFiqmKmcwSbLoCy7mFe/+r9LuZH9v4hbUgh25laLoC25Bkvb8zEzOMmbycqi/+VvW/wnC7mHWvT2uFMguvMxky2DDFiqmMkUcbhlUJY8yg8p/dZ/WsTLjOEIGlsgBeEIHmG5ZZABSxXzJq3ZzzIoC8Zw0jZvQs/gPnZjd4ukANRlX+7dylcFGbCkMg1nT7paBmXYZAayqoz/fi0PM5MBPsxRAehAMW9YBn3JFQ4qr3q8SF/LoAz6mIP5rBz/3K484AyqAlDEwbxlGfQ5f0Wo8lrHCUy1DMqYTxlQrngFH9KHaym2ZEq4mtzlbKu+5C1CVSRiPcpxtLQQyoAlHMFH5f6nS3iVF+lHcwunRGvpbUJ9yVuEqph2vMEulkFVtJIjGFfhf6sxf+VCi6dE28g+zvULvEWoivqUfsy0DKqSdZxQiXgFK7mI01hqAZVgtbnLe0MyYKky5tKfeZZBlbaek3m90v/2MPZhpEVUgh3AJRZB3iJU5XThddpaBlXCWk7kpSp/bl3GX1xMrMRaRTfmWoa0cwZLlfER/VlkGVRhazi2yvEKShlCHz60nEqoRtxoEWTAUuVM41C/oanC8WpQFW4Obm4ce3OTz81WQp3CAIuQdt4iVOXtxEt0sQwqpxUczdgM/5lHcQ87WFol0FT2psgypJkzWKq82RzCJMugclnOwIzHKxjBXjxncZVA3fiBRUg3Z7BUNQUM9yUm2q6FHMOErH2K/ZjrqWuRlTCL2ZXllsGAJVVWI57hUMugMnzCQD7J6t+wJw/Sw0Ln0DJmMYv5FFJIIRtZ+dWrjJpQgwIKKKAFnehEmxRfZ27gpx4qBiyp8uoxjGMtg7ZhPMeyMOt/Sx2u5Uo/0bJqHeOZyCQmMY0VFehMZ7qzF93Zj1Ypq9hG9qzAC6FkwJK+pSa3coFl0Fa8yCmsztHf1Z97fT5bFqziVd5gDBPYVMU/aVcO4mCOpH1qavcfzvQAMmBJVXM113o8aQv384MqX5QrooDbOdmyZ8zHPMFwRrMxw3/unhzFIPqm4GdWJfTwzYQGLKmqTuffLjXWN/yFq/PwpKof8A8aWvwqms0jPJK1HyZ8rh2ncjoHRV7JxzjVw8mAJVVVX56kwDIIKOJK/pmnv7szD3CALaikTTzNHbxESY7+vj24gLNpEW09S+nFux5WkqqqCx9R6pb6rZD+eT0Oa/IHiuxDhbdFXEPrPPSrDufwXrRVfcYLg6RMaMFIL1Qp36bSOQFHYh9m2IsKbB9xEfXy2rEBvBhpbZ1PlZQRtbjJy1WKt6dpnJAjsTH32Y9ybbP4ATUT0bO+vBZhfZ/3siApU85mrZetFG4lXJuwX4adzlL7Uua2hB9RO1E9O4J3ozsv9vSiIClT9vYGTeq2dZyTwCOxfZRzIpnZNnFbIpeXV+ccPouq0nd7SZCUOQXRrqhw29r2AXsn9EiszlVssEPf2kbRNcGfH024heJoar3eR+CmTw1LoKxZx3+oS28fBpIKD3E8cxI6tlJG8zyHRvwogIpbxU+5lEUJHuEGnudVDqJlFPWuyUZe8bCTlEnHsdi5gsi3tVwYwJFYn1spsVuUUsqrdAjk86MOf41kHmupj7+VlGmtGe4lLepbg3sFcywOZL7rrrgmsHsXhzM3ispf7sVAUqZV52o2GkWi3B4I7Ht5a55Ldb9m0CvAT5CCKLr2scslJGXDAXxiHIlsW8kPAjwSq3Fpah8i8kKwr7Kqzu8juFXY3wuBpGxozIOGkoi21+kU7LHYNbonLZVn+9/Af9Z0HCsD78DDXgYkZcsZLnmPZFn7FQl7oGhF1eYvET0EYPvbRr4fwedHj8BXY62P5DeRkhKpFcMMKIFvb7F7FMdiLIunt78tj+bmVLvA5x5/6iVAUjYN4lNjSrAzIddRK5ojsQkPpKBnhewf0adHQ14JuBfTXeguKbta8JBhJcBtHD2iOxbPDX5lT9nbfLpF1rH6Qb8j4mA//iVl24ksMLIEtK3gskjf/bAzY6Lt2jy6RNixOjwbbEd8K6GkHGjCEDYZXYLYnqF9xEdiTa6K8kltixL9tsGqqB3s44uXUcePfkm5sBejjC+JfzjlMSk4Evfnw8j6tox9Iu5Xfd4ItC+D/NiXlBvVOI+FxpiEbhv4M/VSciQ24u6oHqVxUOT9asrUIDvzgB/6knKnGf+kyDiTuO159kjZkXgqhVF0rphTU9CtnYJcx7kyNV9ZJCXEPrxmpEnQ9h4DUnkctuPlCLr385R0a19WB9idk/24l5Rr/VP5CpPkbZ9yYaS/GCyPalzO+qD792CKunVGgP3xlTmS8qAG30vN87WTua3itzRI/XG4d6Drez6fe6yfql7dGFyHVqesQ5ISox5Xscyok5fntN9OGw/AL47CmykJsIdL2TllnarFyOC6dIwnmKR8KeBvrDHy5DRc3ZW6S/P2HB3gIurTUtin9iwNrEs3eXJJyqdWXM8qo4/hKo9+HVgn/53SPp0WWJ8+8tSSlP+ZrD+y3AiU1XB1J5080LYhrJtPM2ic2k79O7Dzrosnl6T8a8pvI3k6UfIeI2q4KkvjoF6gU0L/FPeqGfODOvd+7OklKSmXuqv8dWFGt8X8yQXt23FiUB1N+2uETw3sIb6SlBi1OIOxRqMMbNO4yKdJl8OtAfX0M5qnvl9PBvUqI89ASQlzAA8FdeMmadvLHEM1D6Ny+Sigvn7fdtGRdQF1rJ8Nk5Q87biWJYalCr8D7XZ6ePCUW9uAejuO6jYM+FNAPfu17ZKUTHX5Di9RbHAq1zaGH9DQg6ZCTg9oeXtf2wVAA+YF07XhtktSsueyruITA1QZ2zJuYy8PlEq4JZgeP2mzvnJhMF1bkeL3fUoKRHWO5OHAX8+bja2IlziDOh4glTQxmPkrA/TXavFxMGeofZMUhOacz4tsMlhRSjEjuZQdPCiqoFkwt5+H2qzNnBPMefpDmyUpHC24gJcoSm20KmEMV9DOA6HKBgTT8e42azM1gpnDetBmSQpNSy7i5ZTFrGLe4mfsZPMz5JculQ7WpYH0bqatiplPw1HMmnME/Tk2+vmcpbzCyzzLfFueQY9zUhDj7M8rNmsL9ZlNi0A+o5bZLkmhqs6+/IaxUc5nvcu19PW3SFkxO4gjYKKN2qpQnod1sK2SFL4CvsMdTIsiWH3I3ZznSqssauUy6aDtFMhPFC61VfHyFqHSeOnswyH0ZW9qBjbyEqYwkjd5kwW2McuO5IUARrmWtqywWVs1nKMCGOVtXGyrYlXTEih1FvEETwAN6U0fetGTtgkf8ULeZQJjGe16jZzpGsQohxqvtunOIAKWr66KmDNYEjSjG73oRS92T9Ab3RYwnvGMZyozbFHO3cH5AYyyH6/bqm2oxWc0T/woV9OYUpslKX6NuSsRKzOep5nNyKvRAazfWeDPG8p0dxCrsHa2UbHy/evSN61kYSLGUejNwDwL4RbhoxTbqDI84pEmA5YkJUkbmgYwymE2qkyvUBjAKJ3BMmBJUmp0DmCMyxhjo8pUxEsBjNJ3LxiwJCk1OgUwxpcoslHbMdxjTQYsSfKiF1t4yH+NSjzWZMCSJC965ecbCLdvMZM91mTAkqSkSP7C4znMtU3lMDrxI2ziI1kMWJKUFu0TP0IXuMcSsJzDMmBJUmrsYHAwYOWML203YElSKjSlbuLHOME2lctsliR+jC1skwFLktIg+fNXpUyxTeWU/GXuBiwDliQZsBJhJittUzQBq8AmGbAkKQ1aJX6EU21SuSV/rs+AZcCSpFRI/s/mP7FJ5TYj8SP0FqEBS5JSoUniRzjLJpXbzMSP0BksA5YkpUIjQ0NE5lKc8BE6g2XAkqRUaBxAaFB5bWKBgV4GLEnKv+TfIlxskyog6U/Cqm2LDFiSlAYNEz/CpTYpooBVxxYZsCQpDZI+o7CWtTapAgoNWDJgSVL+1Uz4+FbYogpZbqCXAUuS8q9Wwse3wRZVyMbEX4dr2iQDliQZsAwMYUl+IPUmoQFLklIg6fMJzmDFVi9vEhqwJEkKTIlXYtlWScq/pN+Cc76jYuomfoTOSRqwJCkFkn65M2BVTB2POBmwJCn/kj6D5ZLouOpVyiabZMCSJANWvjW2RVHVy1+FGrAkKRWSfsOmYQCripKkwONNBixJyr/kzyg0t0kV0MKAJQOWJHnBCz8yGEfjCvQyYElSBqxJ/Ah3tEkVuMq19XiTAUuS8q8w8SPsaJPKrV3iH2ux2CYZsCQpDZYYsCLSyUAvA5YkecErj51tkgFLBixJCkvyZ7C62aRy29PjTQYsSUqC5M8odKG+bSqn7h5vMmBJUhIkf0ahBnvYpnLq4fEmA5YkJcFSShM/xp62qVxa0SbxY3QGy4AlSamwKYAfzve2TeXSJ4AxLrBNBixJSofZBodI9A1gjDNtkwFLktIh+Ze8LrSyTVEE0TU+aNSAJUlpMSvxI6zGobZpuxqzTwDHWqmNMmBJkgErKY62Tds1gFqJH6M3CA1YkpQaIVz0jqaajYoghBqwDFiSZMBKkB18VMN2VOOoAEY5y0YZsCQpLWZTEsAoT7VRZTqIdoZ5GbAkKTnWBzGvcLo3Cct0RhCjnGajDFiSlB6TAhjjzvSyUWVc3U4JYJTr+MhWGbAkyYCVLGfZqG06nLYBjHIaxbbKgCVJ6TE5kIBV11ZtwwVBjHKijTJgSVKahDGDVcDJtmoblTnBIC8DliQlzcesDWKcF9qqrTqPOgYsGbAkKWlKmBLEOA9lf5v1LTX5cSAjnWSzDFiSlC6hrI653FZ9y2B2CmKcn7HIZhmwJCldxgYyztPoYLO28DOPMRmwJCmZRgcyzppcZbM2cyz7BDLSUTbLgCVJafNRMLdvLqCT7fpKNX4XzFgNWAYsSUqd0mBu4NTiV7brKyexXyAjXcd7tsuAJUnpMzqYkZ5LV9sFQE3+GMxY32GjDTNgSZIBK8mx4ibbBcClAUVNbxAasCQplcazPpixHsFxNozm/MYALwOWJCXbhqB+Rn+D7yXkWgqCGesmA5YBS5LSakRAY+0S1OxNNhwUyAuePzeGlZ5gBixJSqfhQY32F/RMca/qcGdQV7Thnl4GLElKq8nMC2i0NbmDWqnt1W8D+yXlCE8vA5YkpVdYl8FeAT1kM7P6BvY8+wW+5tmAJUkGrHD8kn4p7FIT7qdGUCMeTqknlwFLktLrZTYF9pn+74B+SZcpt9PR4C4DliSFY0VwP6bvwH8Cm82pqis5LbARb+IlTy0DliSl26PBjfhI/pCi/vTm+uDG/CLLPbEMWJKU9oBVHNyYf8nglHSnI48H+MvJYZ5WBixJSruFvBHcmKtxH71T0JvGPE3r4Ea9gSc9rQxYkqShAY65Lk/TJfK+1OIxugc47hGs8KQyYEmSHqMowFEXMJy2EXelBvfT38AuA5YkhWoJrwY57l14LcAbaOVTjVs5PciRr+dZTykDliQJ4JFAx70rw2kWZbz6BxcGOvbnfMmzAUuS9LmhrAp05D0ZRZsI49VlwY7+Hk8nA5Yk6XOrA14305XX2DGiXtTg7oDj1Tyf4W7AkiR97Y6Ax74bb7JHJH1owBOcF/D47wnwqWoyYElS1rzNewGPviOjo3gJ9A68zqCAx1/CXZ5KBixJ0jeFfWlsxgjODbwDPXiLfYPeg5eY7YlkwJIkfdP9rA16/LX5N7dRO9jxf4cx7BT4MXSHp5EBS5K0uRUBvvZ5SxfyapAPH63FP/gPDQKv/kKe9jQyYEmStnRTBPvQh4mcENiYO/E6l0dQ+3+xyZPIgCVJ2tL4AF/7/G0teJJ/UT+Y8X6fSVG8uHodt3oKGbAkSVvz90j24yKmMCCAcbblce6iYRQ1v5dFnkAGLEnS1jzL9Ej2pBMvcA/NEzzCGlzGB5wUSb1LuNHTx4AlSdq6Um6IZl+qcR4fcTk1Ezm6AxjNkEjmrgCe4kNPHwOWJGlb7o/qRk9z/sEE+idsVJ0YylscENVxc4OnjgFLkrRt6/lnZHvUnZd4lT4JGc2O/B/TGRxZjd9ilKeOAUuSVJabWR7dPvVjFMM5NM+j6MhNfMTFAT8MdVv+4GljwJKUjIcZ1qOarUio5dH8lnBzR/E673B6ntZk7cvDfMSPqRthZccw3NMmjfwQlz63M/3py6F0SMh4VvE2LzOad9hocxKmIZ/QKtq9W8B93M6MHH6ZOI4LE7cOLJOO4FVPGknpsytX8AxLKU3otooXuIoeNipRfp7Y4yUzWzEv8j2aZbmKNTmKe1gVeS1f83RJK2ewlFb1OJRjOIZdAhnvPIbzPC+z2tYlQH0+YYfo93IjL/IEI5if8T+5Af0YxCkUpOBYOdgF7gYsKS2acjyDOTygl4V885I3kkd5nMW2Mc8uY0hK9rSUibzASMZkYHF/LXrRlyM5hDopqd4LHOXJYsCS4teE4zmNAcF/uBfzGkN5giW2NG/q8kFi1uvlRglTGctEpjCpglGrNl3pTnf2Z3/qpapmpRzAfz1ZDFhSzGpzHOcyMKrvzUW8yv08xjrbmxff4T+p3ffPmMlMZrGAQgopZAUlrGcdNWkENKIpBbSgNTvRkU50SOjT4rPvfs7xRDFgSfHanfP4XrS/+lrJw9zvKo+8fHq+wcGWQdu0lt2ZaxkMWFKMGvIdvs+BKdjTydzF/Sy15Tm1L2/7LEFt02/4k0UwYEnx6cRFXEDzFO3xBobyVybb+hy6h/MsgrZqLruz1jIYsKS49OUyTkrpuo/RDOFxij0IcqI1H9LYMmgrBvOoRUi3GpZAUanJmTzA1XRL7a2bDgzmuxQx2ZCVA2sg6meQq7JG8guLkHbOYCketTmXq9nZQgAwn79xm7cosq4O77G7ZdBmNtHLm/VygaZiCVcX8jG3G6++0pYbmM01NLUUWbWB71FiGbSZ641X8hah4ghXl/A436GJpdhCfQ7jIqozgU0WI2vmsQP7WQZ95QPOpMgyyFuECv0IPpVr6WwhyrSYP3OLH/lZ05gptLcMAqCU/rxqGeQtQoWtP+MYarzarpb8gykM9gtVlqzkYougL9xmvNKX3/+lMHXjH/5+q4Le5nLetgxZ8TCnWwQxn66ssAwCZ7AUpibcyHvGqwo7gDHcFe1Lg/LrchZbBHGJ8UoGLIWqGucwnStS+/rYqp7x3+cDrqK2pciwhZxLqWVIudt52iLoS/6KUGHZm8e4jIYWogrq0p8TmcIcS5FRH9OGfS1Din3AKf5eV9+cDZBCUYuf8AfnXjKklDv4OSstRAbVZ7wPHU2tTfTlHcugr3mLUKHozUSuM15l8MvVhUznRAuRQWs5k42WIaV+ZbzS5rxFqDBmBv7IHS7OzrhGnEE3XvOFOhmzgI0MsAwpNJKLXYOnLb/FSkl3CPfS0TJkzSLO5xnLkCHVeZEjLEPKLGFvPrUM2vLDQEqymlzDq8arrGrF09xHAwuRESWczizLkLKen2W80rc5g6Uk68gD9LEMOTGdM5lgGTKiJ6OpZxlS42qutwj6NtdgKbnO4Vlfg5MzLfg+NRjpOpIM+IzFDLIMKfEUl1kEbY0zWEqmBtzOdy1Dzo3gLAotQwbcyQ8sQgp8wP4+7EQGLIWjC4/R3TLkxVwG+77CDKjDm+xnGSK3mgOZahm0dS5yV/KcwjjjVd605w0utAxVtoFTWWgZolbK94xXMmApFDW5jmE0thB5VIfbuJ/6FqKK5nAcayxDxH7JoxZB2+YtQiVJM4b5DKGEGM/xzLcMVXQSj/o1NlK3c5FFUFn8FaGSY2deYX/LkBBt+Q4jjVhVNJ3VDLQMERrBWZRYBhmwFILevOQDRROlEWfyPtMtRJWMpYADLENkpnAM6yyDDFgKwRk8ThPLkDC1OZ1qvG4hquQF9mZ3yxCR+fRjkWWQAUsh+AM3UdMyJFA1DqMtw338aBWU8gyH0d5CRGIp/fnIMqg8H59SvkP+P7nYMiTaU5zBestQBU14mX0tQwRW0p//WgYZsJR8tbmf0yxD4r3OCT6vukpa8DrdLEPg1nGMt8xlwFIIGvCYv7EKxHiOcd1JlbTiDddiBW0jJ/G8ZZABS8lXwAhvmwTkQwYwxzJUwU6MpINlCFQRp/GEZVD5+Qg85UsLXjFeBWVXXjMeVMls+vtksUAVc67xSgYshaAZI9jLMgRmZ96kk2Wogo/owyeWITgb+Q7/sQyqGG8RKh9a8jI9LEOQ5tCPGZahCtrwksvdg7KBM3jSMsiAJeOVjFjJ1poXPQOCsYaTeMkyyICl5GvK694cDNxMDuZTy1AF/sAjFMs5hrGWQZXhGizlVn2eNV4FrxMv0NwyVEEhR/CmZUi8xRxuvJIBSyGoxTD6WIYIdGM4DS1DFaxkAA9ZhkT7hL68axlUWb6LULlTjbsYbBki0Y4DeYRiC1FpxTwOHGYhEmos/ZlrGWTAUghu9J2DUenEnjzqa6Cr5HXmcbSfwwn0KCexwjLIgKUQXM2vLUJkdqcxL1iGKnmXtziBOhYiUW7ifDZZBhmwFIJT+Je/WY3QgSzmv5ahSmYwguNobCESYhMXc60zs6o6L3nKhX0YSQPLEKViTuRZy1BFLXiYIyxDAiziDF6zDMoEZ7CUfW15hRaWIVLVGcRzLLQQVbKW/1CHPn7lzbNRHMFky6DM8HRWtjVklE++itxsDjBiZcAJ3Oetwjy6nR+58kqZ/PYpZTfC3228it5OPEFty1BlT7E/71uGvFjP97jIeKVM8hahsuvnXGERUqA9jRlhGaqskAfpTFcLkWPvM5AXLYMMWApHP/7tLGlKHMhMJlqGKtvAMGbS3wc35ND9nMg8y6BMcw2Wsqc942lpGVJjDQcyxTJkREce8KVSObGY83naMigbnF1QttTiIeNVqjTgcZpYhoyYxWH83hcRZd3L7G28kgFLofmr38BTpwu3W4QMKeIaDmOmhciadVzBkcy3EMoW12ApOwZyszegU6gbc3jPMmTIHO6gJgf5RTgL3uQ4nrMMyiYvgcqGlkxiB8uQSmvoxQeWIYP25k56WYYMWs413EyJhVB2+c1I2YjtdxuvUqsBD/pMrIx6jwO5mvUWIkOepTtDjFfKPm8RKvMu43KLkGJtqcUrliGDShjNo/RgJ0tRRfM4h9+x0kIoF7xFqEzrxjjqWoaUB4J+jLQMGf+0Pp2/0N5CVNI6/s51rLEQMmApTNV5k96WIfVm0t1LWRbU4zJ+RSMLUWHPcpm/yVRueYtQmfVzvm8RRDPq+OqRLChiNPfRkh5+Oa6AdzmD61huIZRbnqTKpF15j3qWQUAxfXnLMmRJH/7KQZahHD7lGu52SbsMWApbdV7nYMugL0ynp799y6L+/C/7WoYyLOFv3MQ6C6H88BahMudSLrYI+koLqvGqZciaGdzJJLrRylJsRSF/5Lu8RpGlUL44g6VMac0HvolOm9nI3kyzDFn+DD+VP7KbhfiG1dzimivlnw8aVab8zXilLdTmJouQZaUMoxun846lAGA+V9Oeq41XSsK3HykT+vCmR5O24jSGWYSc6MtlnJzqZR8fcQu3ue5PBizFpAbj2csyaCvmsQerLUOO7MJlnE/9FO75aK7nWUo9BJSkC6NUdT/mPIugrWpMdV+ckzPLGMGdFNKR5qnZ5xXczQX8Lx/afiWLM1iqupZ8SFPLoG3YyJ58ZBly/Ml+GBdwMnUi38/R3MEw1tpwGbAUpyFcZhFYRSGFwGo2ATVoDDShpUv/gWGcZhHyoICzuYCuUe5bIfdxJ+/bZBmwFK+dmUbtVAaqKUxmJjOZxRwK2biNf64mBbSnIx3ZmW70SOVcXykH+iu3vNmH0zmNjtHsz0qeYigvbvOMkwxYisRDnJGivd3Eu4xhDBOYUckFtTuxN73pw77R3775ptfp56mS10/6/TmNwbQPei/W8AyPMMLfCcqApTTYl3dSchR9xHCGMzJj6z3q0JujOYruKTlSjuV5T5c8q85BnMzR7BHcyBfzAk/znKutZMBSerzC4dHv40SGMixry7Q7cAqns3/05+JkelLsCZMIHTmKozmchokfaTHvMJwRjPd1zZLSpT+lUW/z+TO75+iS92tmRl7NszxhEqU2R/AXxrIxkUfLB9zNGRTYJoXLGSxVxRscEumelfIit/FMTl8VW53+XMiJ0T6dbhp7Og+RQPXYj4PpTe8E/ABjI+MZwyjGsMjGyICl9DqU16Pcrw08yA1MzdPfvjNX8L0Abt5UxukM9bRJrOp05QB60J0eOZ45Wsf7TGIy4/kv62yEDFjSS/SPbp/W8y/+woI8j6I5V3AFjaKr7mT28mUmQWhLd/aiO13oRKus/A2rmcknTGESk/nI1XkyYElfO4gxke3RJu7kz3yakNG04BdcGt1b5U7mCU+dwNSnE53oREc60ZICWlBA9Qr+GStZzBIKmfPFk+NmssTCyoAlbd1zHBPZ/vyUDxI2pvZczxlRnaUT2Nc5rAgUUEABLahLdZoA9agLNGU1RRSzEljLBopZQiGFFLLJkklS+fSI6vdt0xmY2Er3ZnxUtR7oySNJ0rbcHc0FfxPXUTfRta7OhayKpt4+blSSpG1oxbpILvf/pUcQFd+ZVyKpeEmOniwmSXn+bixV3CUJn/Mpn1Juog+TghjrDPpzBRsiqHo1LvMEkiTp2+qwIIKZlNkBPiS1J9MiqPxqmnsSSYqdM1iquDPYIfh9eIP9GRncqN9lvwge1dmACzyJJEna0tvBrwK6LuDX0VTj5xQF3oFZfrWTJGlz3QO/uK/nO8H34ChWBt6FIz2RJMXN75GqqB8EPfqlDOSh4Hswgt7MCXoPvu+JJEnS1+qwOOhbU7tG04l2TA56HrHAk0lSzJzBUsWcQItgxz6TfnwYTSc+5RDeDjion+XJJEnSl0YEO2cyhTbRdaMJo4LtxyRPJkmSPteO4kAv59NoFWVHGjI22Ii1ryeUpHh5i1AVcVqgR8wcjmJRlB1ZzVGMD3Tsp3tCSZIEBDpbMo+OUXelJdMD/clBNU8pSZI6UBLgZXwVPaPvTCc+CzJiHehJJSlW3iJU+X0nwBmHYs7k3eg7M5PjWBPguL1JKEkS4wOcI/lxarozOMD5xbl+xZMkpV3nAOPVfanq0F8C7FBfTyxJcfL7o8prUHAjnsjFqerQL3khuDEf54klyYCldDsmsPGu5GTWpqpDxZzDZ4GN+VhPLElSmjVkfWA3n85JZZ+ODG4l1k6eXJJi5AyWymcAdYIa72MpW3/1pRe5ObARH+3JJcmApfQK6zL4GRemtlNX8UFQ4/UmoSQptaoxL6jbTqemuluHBHWbcC31PcEkxccZLJVHV9oFNNoneTTV3RrJ7QGNth69PcEkGbCUTocGNNY1/Cj1/boqqFdbH+IJJsmAJQNW0v0vn6a+Xyv4tUeXJOWTb7NXeXxK20BGOpfdU/b0q219dXqbfQMZ6waasc6WSYrtY1jant2CiVfwC+MVACX8PJix1mF/GybJgKX0CecWzhSG2q4vvM7LHmGSZMBSch0czEh/Q4nt+kY1QuEyd0lSCk0L5IlK41xTuIXnAuncMjsnKTbOYGl7GrFrICO9nlLbtZnrAhlnUzrbLEkGLKXLPoEcJbN4wmZt4U3eCmSkvWyWJAOW0iWUS9+NFNmsrVTFo0ySDFhKoH2CGOVq/m2rtuLxQB67asCSZMBSyoTxuMqHWWmrtqKIewIJWH4WSYqKv91R2eqxOohL3wG8Y7O2qiOfBNHBXZhhsyTFw2+NKluXII6RycarbZrFK0GMczdbJcmApfTYI4hRPmSjyvCwAUuSDFhKlt2DGOUwG1WGx9lowJIkA5a87FXMOD62UWVYzktGeUkyYMmAVTFP2abteNKAJUm55a8IVfbxsZKGiR/lvoy3VWXakTkBnOvNWG6rJMXCGSyVpVUA8Wox79qo7ZjHlABG2dFGSTJgKR3aBTDGEZTYqHJUKfl2tE2SDFhKh/YBjPEN21QOIz3aJMmAJS955TfGNpXD6ADm+drZJkkGLKVD8i95y/jANpWrTtON85JkwFIyJH9VzNuuwCqntzzaJMmApWRI/gzWRJtUTpMMWJJkwFIytDQ2GLBypoVNkmTAUjo0MzYYsHKmiZ9HkgxYMmAlQalvISy3QgoTPsIaNLJNkgxYil9t6id8hPNZb5vKbZaBXpIMWPJyF0NkSJKZHnGSZMBS/jU1YBmwDFiSZMBS2gLWZzYpqmo1tUmSDFiKX93Ej3CJTaqAQo84STJgKf9qG7Cikvxq1bJJkgxYil/yL3fLbFIFLDXSS5IBS17utm+tTYqqWgYsSQYspUDyZ7A22qQK2GDAkiQDlgxYMUQGqxXXESdJBixVWc3Ej3CTTYqqWgYsSQYspUCRETAqyY8vBmZJBiylQPJXONWxSRWQ/BVO3vKVZMCSAcvIEJg6HnGSZMBS/iV/PqGeTYqqWgYsSQYspUDyL3fNbVIFFBjpJcmAJQPW9rWwSVFVy4AlyYClFEj+5a7AJkVVLQOWJAOWUmB94kfYyiZVQEsDliQZsJR/yX+VckebVAGdEj/CpTZJkgFL8Ss0YBmwPOIkyYClzFrPmoSPcEdfrhJVHF1ikyQZsJQGSb/g1WAXm1ROTRK/Ym0Tq2yTJAOWDFhJ0N0mlVMPqiX+aCu1TZIMWEqD5K+JMWDFUylXYEkyYCklkj+DtZdNMmBJkgFLBqzM2t8mRVMpl7hLMmApJeYkfoQ7sLNtKodGAcz1zbJNkgxYSoeZAYyxj20qh4OoYcCSJAOWDFjldbBtKoe+AYzRgCXJgKWUCOGSd5RtiqRKM2yTpHhUswQq03KaJH6M3XjfRpWpBQsD+DLVMPFvDpCkcnMGS2WbFcAYncPanoEBnOkLjVeSDFhKjxBWYZ1gm7bjeKO8JBmwlCSfBDDGvrSzUWVowHEeaZJkwFKSTA7iKD7VRpVhEPUDGOUkGyXJgKX0COOyd4aNKsPpRnlJyjV/Raiy1WEVtQIY555MtVlb1Zq5QXSwPfNslqR4OIOlsm3gwyDGeb6t2obzgohXS41XkgxYSpcwbhKeTV1btRXV+H4Q4/QGoSQDllImjEtfgeuwtupIdvUokyQDlpInlF93/dQVhVvxM48ySTJgKYnGBTLOPRlos7awF/0DGel4myXJgKV0WcjHgYz05zZrC78IZJyrmGizJBmwlDajAxnn4fSzWd/QNZh1aW9RbLskGbBkwEqqP9qsb/h9MOf3aJslyYCl9BkTzEj7cJTt+sLenGKEl6R88XdXKs9RsoTmgYz1ffaiyJYBLzIgkJEW0ZxVNkxSXJzB0vaVMjaYsXblIhsGnBpMvIKJxitJBiyl06iAxvr7YGbbsqcufwlotN4glGTAUkq9GNBYC7g+9f36DZ0CGu0LnmCS4uMaLJXvOPmUNsGMtpQjeTnF3erO+CBe8Py59RSw1lNMUmycwVL5IktIc1jV+D/qpbZXNbgzoHgFI41XkgxYSq8RQY22c4pvE17N/kGNd7gnlyQpvZpRRGlAWwnHpbJPvdgQVJ9K2c2TS5KUZqMDu3B/RqvU9aghHwXWpRmeWJLi5C1CldeIwMbbmoepmbIe3UXnwEbsDUJJUsp1D2xupJTSlK3E+mmAHRrgiSVJSrv3g7t8lzA4Nd05jE3B9Wdx6uYYJaWGtwhVfkODG3E17uXAVPRmF4YGGFYe9b2RkiTtHuAtqFIWB7cuqeIK+DDI3vTzpJIkCSYFeRl/n4Kou1KfMUH2ZQE1PKUkxcpbhKqIoUGOeg9eplm0PanNoxwU5MgfpdhTSpIk2CXImZJSShlDwyg7UoOhwfakryeUJEmfeyfYy/mrEUas2gwLth+znD+XFDM/4lQxdwY78n68FtlarDo8wqnBjv5uSjydJEn6XCNWBTtnUsqEiF6f05jXAu5EEe09mSTFzBksVcwqHg549D15iz2i6ENbXuewgMc/grmeTJIkfW3/gOdNSilladDB5HPdmRN4F07wRJIkaXPvBX5x38AlQdf/tKBv05ZSynxfkSMpdt4iVMXdGfj4a3Mr91M/yLHX5DoeDv73kPf4ihxJkrbUNPgZlM8XvO8WXOXb80YElS+ikyeRJEnf9o8ILvOlrOVyqgVU9ZMpjKLuQz2BJEnamk5siuJSX8qTtAmi4s24J5KKl3KAJ5AkSVv3SDSX++Vcnvi1iIOYG0293/DkkSRpW/aP5oJfSimv0z2xld6Fp6OqtQ9okCSpDG9Eddkv5r4EPuW9AdewLqo6f+AvlyVJKsvxUV34P38E6dU0SEx9a3Mp86Or8YWeOJIklaU6U6O7/JeykCuol/fa1uJ8ZkVY3fkJqK0kSQk3OMIIUEopi7guj78tbMjlzI60sj/ypJEkaXuq8W6kQaCUNfwfe+e8orvxN5ZHW9PZ1PGkkSRp+46PNgx8vv2XC2mak0o24GzeoCTqal7gCSMpTXMQUlW8Ff1jIzfwEsN4kpVZ+vPrMoDBnBT8+wW3Zxa7sdETRpIBSyqPgYxIxX4W8TbP8DITKM3Yn9mJAfRnII1TUcFzuc/TRZIBSyqvN+mbor2dz2hGM4aJlZ6NqUlX+tCHvuyUorp9QDeKPVkkGbCk8urNqBQeR0V8wGQmM5OZzOKz7fzTLehER3amG93pSu0UHiUn84SniiQDllQR/+E7Ka/ABgq/2EpYx3qgNg2Agi+2tD/96VWO8DSRZMCSKmZHpifoCehKmmL2YZJlkJQuNSyBqmwltTjMMmgb/sU9FkFS2jiDpUyox7RULdlW+S1jV5ZYBklp45vtlQnr+KVF0Fb93nglKY2cwVKmjqSRqXpcg8pnGnuxyTJISh9nsJQZpZzPesugzZRwofFKUjq5yF2ZUkhNl7prM//HvyyCpHTyFqEypzYT6GYZ9IUFdGW5ZZCUTt4iVOZs5Ae+DkVf+aHxSlJ6eYtQmfQpBRxgGQQM448WQVJ6eYtQmdWQKT4RSyyj63bf0ChJEfMWoTJrNed4m1D8yHglKd28RahMm00D+liGVLufP1gESenmLUJlXi1Gsb9lSK2Z7M1KyyAp3bxFqMzbxJmstgwpVcSZxitJ8hahsmEpyzjOMqTS73nQIkiStwiVLU9ygkVIndEc6o8cJMmApewpYBwdLUOqLKEXcyyDJLkGS9lTyImstQwpUsJZxitJMmAp2yZykUVIkf/hBYsgSZ9zkbuyaRKt2c8ypMJTXGYRJOlLrsFSdtXiVfpahuh9yP6ssAySZMBSruzABNpYhqit5kCmWgZJ+pprsJRtn3GCi92jVsxZxitJMmAp1/7LuZRYhmhdyVMWQZI25yJ35cL7rGeAZYjSDfzRIkiSAUv5MZqWvgA6Qs/yA0otgyRtyUXuyl2Yf5zjLUNUxnEYayyDJBmwlE+NeIOeliEan9CbRZZBkrbGRe7KnVUM5H3LEIlPGWC8kiQDlpJgMUcywzJE0smZlkGSDFhKhk/px2zLELgVHOVcpCQZsJQkcxjAAssQsDUcxwTLIEkGLCXLRwyk0DIEah3HMcoySJIBS8kzmSNZYhkCtIbjed0ySNL2+JgG5cvuvEw7yxCUFRzLaMsgSQYsJVknXmZnyxCMZRzN25ZBkgxYSroOvEwXyxCEhQxgsmWQpPJxDZbyaQ4HM8kyBNIp45UkGbAUiIUczljLkHBT6ctHlkGSDFgKRyH9eMgyJNgr9GWuZZCkiqhhCZR3xTwOHGYhEunfnMFayyBJBiyF6HXmcbTHY8KU8gd+QrGFkKSK8leESo4BPEpjy5AYGzmf+y2DJBmwFLq9eNwnYyXEZ5zGm5ZBkirHRe5Kkon05EnLkADjOMB4JUmV55oXJcsGhrKOw51bzavbOZWllkGSpLgcw1JK3fKyreP7HoCSVFXOEyiZOvM43S1Dzs3gFN6zDJJUVd4iVDIt5R5q0duvADk1jOOZZRkkSYrbAOZ70y5H2wrO9oCTJCkdWvK04ScH21vs4sEmSVKanMNqI1AWt01cRy0PM0mS0qYrYwxCWdomc4AHmCRJ6VSNC1lpHMrwtpHrqOPBJUlSmrXlcUNRBrfRdPWgkiRJMJiFRqOM/Gbwcl+UJUmSvlTAbRQZkaqwlfAQ7TyQJEnS5vZghEGpktt4DvYAkiRJWzeIT4xLFdwWc7lvb5AkSWWpzeWsMDaV+xeDQ2jsQSNJkrZvB25ivfFpu48SvZuOHiySJKn8dmSIIWubWzFD2dWDRJIkVVwHbmOTcepbvxd8hr09OCRJUuXtxn1sNFZ9NXP1GD09KCRJUtXtwDUsTX24Ws997O7BIEmSMqcRlzM7teFqEdfRxoNAkiRlXi3O5J3UhaupXEQ9my9JkrKpK9exJBXRah1D6U81Wy5JknKhLoN5iZKo562uormNliRJubYHf4lwXdYCbqaXzZUkSfnUjWuYEUW0KuQ+BlHTlkqSpCSoziH8kwUBR6u7ONJoJUnJ5qJYpVU3jqM/h1IrmBG/zzO8zEg22jxJMmBJSdacI+jPsbRL8BhX8zrP8DzzbJckGbCkcFSnK33pQx86JWhUnzKKMYxiIsW2SJIMWFK42tKHPvSmO3XzNIKNTGMMoxnNLNshSQYsKSY12Ilu9KIr3did6ln/+5bxPuMZz1Smst7yS5IBS4pdY/agE53oREc60YHaGfgzi5jLTGYxk1nMYDpLLbMkGbCk9KpOO9rRggIKKKAFLWhBA+pQH2hMDWrSCFjDRkpZDqxnHWsppJAlLGEJhRQyn3kUWUpJitf/A1Rl5f80jEgsAAAAJXRFWHRkYXRlOmNyZWF0ZQAyMDIyLTA0LTA2VDE5OjA4OjQ1KzAwOjAwRwpBQwAAACV0RVh0ZGF0ZTptb2RpZnkAMjAyMi0wNC0wNlQxOTowODo0NSswMDowMDZX+f8AAAAASUVORK5CYII=;" parent="1" vertex="1">
                    <mxGeometry x="220" y="70" width="400" height="400" as="geometry"/>
                </mxCell>
                <mxCell id="5" value="" style="shape=image;verticalLabelPosition=bottom;labelBackgroundColor=#ffffff;verticalAlign=top;imageAspect=0;image=data:image/png,iVBORw0KGgoAAAANSUhEUgAAAgAAAAIACAYAAAD0eNT6AAAABHNCSVQICAgIfAhkiAAAAAlwSFlzAAAOxAAADsQBlSsOGwAAABl0RVh0U29mdHdhcmUAd3d3Lmlua3NjYXBlLm9yZ5vuPBoAACAASURBVHic7J1nmBzFtYa/U91dPTMbpRUKCIEQUSCJHEUQIEAIk0zGgBHBBky8l2gTDb7G2IBJJmOSicaAyUnkDDbRmCyCQChrtWG6errP/bELCNgw21U9YbfeP/BIU1+d1c5MnT51AsFi6YWamprhSqnRQoihcRw3CSGGMPMQAEMANBFREzPnADR2LpEAajr/vxaAB4ABLOz8swBAW+f/t3T+/zwA85h5HhHN7fzvnDiO57iu+1k+n/8CQJT+T2uxWCwDAyq3AZaKwJFSrgRgHBEtD2B5Zh4NYDSA5QFkymjbN4QAPmfmGUQ0A8AMAB8z87thGL6DDqfCYrFYLEViHYCBR1Mmk1mDmccz8wQAEwCsDiBbZrt0KAB4H8BbAN4goreEEG+2t7d/Vma7LBaLpWKxDkA/J5PJjImiaBMhxERm3gTAWAyQ3zszf01ErwB4No7j5wqFwiuwkQKLxWIBMEAOggGE8DxvbSKaDGAigI0BDC6zTZVEOxG9wszPCiGm5/P5Z2EdAovFMkCxDkD10ySl3JKIJjPz9gBGltugKqKNmZ8noscA3KOU+m+5DbJYLJZSYR2AKkRKuRqAXQFMBbAeAKe8FvUb/svMDzLzXYVC4TkAcbkNslgslrSwDkCVkMlkRjPzTgB2Z+aJ5bZnADCTme9k5js6nQEut0EWi8ViEusAVDCZTGb5OI73BLAngDXLbc8A5jMAtzPzbWEYvlpuYywWi8UE1gGoPKSUcicA+wPYDja8X2m8C+B6pdTV6GheZLFYLFWJdQAqBN/3V2Lmg5h5GhENLbc9ll4JAPxTCHFlPp9/HPaKwGKxVBnWASgvjpRyFyI6gpk3g/19VCvvEtHlQRBci47WxhaLxVLx2AOnPNR4nvczIvofAKuU2xiLMZqZ+TrXdf/Y3t7+RbmNsVgslp6wDkAJqa2tHaqUOhzAEQCaym2PJTUUgNsA/FEp9Va5jbFYLJausA5ACegs4TuFmfcF4JfbHkvJYAAPMfNvwzB8sdzGWCwWy5JYByBFstnsMnEc/4aZD0THiNxqhQF8RUSfMPPnzDyXiOYR0Tfje+fFcTzXcZwFAEBEQXt7+5LjfkN0vNcaAaCmpsaPoigHAHEc1wohmuI4HsLMQzpHC38zYnhk53TCZdAxUriauY+ZTw/D8F/lNsRisVgA6wCkQk1NzXCl1ElE9EtUxijdYpkF4E0AbzLzR0KITwDMCIJgBsrbM9/NZDIjASwfRdFoIloBHRMM10DHuOJqeR8zgLsAnK6UervcxlgsloFNtXxxVguNUsqT0XHHnyu3MT3AAP4L4CUiepOI3szn828CmFNmu5JQ57ruOCIaL4RYg5nXBbA2ALfchvVADOA2Ijo1CIKPym2MxWIZmFgHwAzC87x9AfyxQmv4CwDeYObniOhZpdSTqM7Dvlhyruuu7TjOOp1tk7dEZSZdhsx8WRiGpwJoLrcxFotlYGEdAE0ymcyWcRxfAGBCuW35AW8CeEgI8VA+n38eA3vsrfA8bw0imkJE2zHzRqisCMEsZv5NGIbXwQ4gslgsJcI6AAnxfX8FZv4jgF3KbUsniwE8yswPuq77kK1D75FGKeVkIprCzFMBjCi3QZ28FsfxMYVC4dlyG2KxWPo/1gHoO1JKeSKA36D8JX2tAO4FcLtS6kEA+TLbU40I13U3IaI9AOxGRMPKbA8DuFEp9T+wswYsFkuKWAegD3ietwERXQ1gXBnNaAfwAIDblFL3A2jr5fWW4nEymczmzLwnM++KMuYNMPNsIjpaKXVruWywWCz9G+sAFEdOSnkagONQvul8dgpdaZG+72/LzPsB+CnK93t/wHGcw9rb2z8r0/4Wi6WfYh2AXug8BC4HMLoM27cQ0W1xHF8VhuFLZdjfAiCTyYyJ4/ggANNQnnyBxUR0chAEl8EmCVosFkNYB6B7sr7vn8fMh6L0/04fEtGfgyC4EbY8rJJwpZQ7EtH/dJYXlhRmftx13Z+3t7fPLPXeFoul/2EdgC6QUo4D8DeUvrTvNWa+KAzDm9FRu2+pUDzPW5uIjgGwN0pbUrgQwOFKqVtKuKfFYumHWAfg+wjf9/+Hmc9G6TL8YwB3xXF8XqFQeKFEe1oMkclkxkRRdCwRTQNQU6p9iejqIAiOQUcliMVisfQZ6wB0UlNTMywMw78C2K5EWzKA+5n51DAMXy/Rnpb0GCKlPA7AUQCyJdrzkziO9y0UCs+XaD+LxdKPKFdmc0Xhuu5mcRxPJ6I1S7EfMz8GYM8wDM+L43hWKfa0pE5bFEWPZbPZq6IoigGsi/SvBgYR0c8dx1FRFD2X8l4Wi6WfMdAjAOT7/v8y8+9RmnvcRzqf+F8uwV6WMpLJZJZj5lOYeRpK42hfr5Q6DB19IiwWi6VXBrIDUCulvAbAHiXY630Apyil7ijBXpYKQkq5KoDzUZqrpdeFELvm8/mPS7CXxWKpcgakA+D7/krM/A+k39FvIYBzlFJ/xsAexjPgyWQyk+M4vgjA2JS3mk9E+wRB8HDK+1gslipnwOUA+L4/hZkfBTAqxW0iIrpSKbVLFEWPAohS3MtSBRQKhY+jKLracZzFADZAelUmWQB7u67bHkWRTQ60WCzdMqAiAJ7nHUhElwPwUtzmLWY+2N7zW7ojl8uNKBQKFwPYNc19iOiaIAgOAxCmuY/FYqlOBooDQFLK0wGcnuIeIYDzlVKnAVAp7mPpJ/i+vwMzXwZgZFp7MPOjYRjuBttR0mKx/ICB4AD4UsprAeyT1gZE9BwzH6KUejetPSz9lkbf9//AzIcgvc/jW47jbN/e3v55SvoWi6UK6e8OwBDf9+9OsW97OxEdHwTBX9DR2GegUCOlHB3H8RAhRBMzL0VEQ5i5SQhRw8xZAJnO19YxswsARLSg889CImqJ4zggonlENI+Z5woh5kZRNCcMwy8wwCYe+r6/NTP/FelFA74AsL1S6s2U9C0WS5XRbx2Ampqa4WEYPgJgfEpbvA3gZ/34CzXjed5qACYQ0Vh0TEMczcyjiWhoCfZvBjADwAxm/gTAe8z8dqFQeBPAohLsXw4apJSXoWO+QBosjON4e9s50GKxAP3UAchms8tGUfQYgJVSkGdmvjgMwxPQf0r7Mq7rruM4zsbMvA46nKaVUdohN33hUwBvAnidiF4MguB5dJRc9gs8z9ufiC4FUJuCfCsR7RIEwaMpaFssliqi3zkAmUxm+TiOHwewvGltZv5aCDEtCIIHTWuXmFrf97dk5k0BbAxgHZRu+FEaxAD+Q0TPxXH8nJTy0dbW1qpusZzJZJZn5htTur4KAOyllLo7BW2LxVIl9CsHQEo5FsBjAJY2rU1ET7muu2dra+vXprVLQefUuslEtAOArVHdB34x/AfAvUKIx/L5/FOozlI4V0p5NoATU9BWAPa13SktloFLv3EAPM9bWwjxMDMPMSzNAP6olPo1qqyhj+d56wHYk4h2Rccd/kBlPoB/EtHtQRA8hipzBjzP24+IroD5KYMRM08Lw/BGw7oWi6UK6BcOgJRyHIAnATQZlm4BcGA1PSV5nrcGEe2FjhkHY8ptTwUyj4juIqLb8vn8dHRcH1Q8nb/Xf8D87zQCsJ9S6hbDuhaLpcKpegfA9/2VmfkpAMMNS78HYJcqqe2v9zxvLyL6BTru8y3F8SWAG4UQl+fz+RnlNqYIBksp/wZgimHdkIh2DYLgXsO6FoulgqlqByCbzY6KouhpGA5vM/P0MAx3RYVnlnuet0Hnob8ngJpy21PFRAAeAnCVUuo+VPZVj+N53vlEdJRhXUVEO/eDBFeLxVIkVesA1NTUDAvD8CkAqxiWvkEpdQgqt52v8H1/+ziOjyKiyeU2ph/yCRFdGATB1QBay21Md/i+fzQznw9AGJRti+N4u0Kh8LRBTYvFUqFUqwMwREr5FIDVDGoygDOVUr9FZXb1y3medwARHQtgxXIbMwCYD+Byz/MurtSSQinlzgD+BiBnUHYRM28VhuFrBjUtFksFUo0OQEZK+Tg66tdNoZj5kDAMbzCoaQrZefCfAWBEuY0ZgCgius5xnDPa2tq+KrcxP6Sz0uNeIhpmSpOI5gDYOAiCD01pWiyWyqPaHACSUt4Es4N92joToB4yqGkCz/O8aUR0GlKcFmcpmjZmvlpK+X+V1guis/nVYzBbIfCuUmoigAW9vtJisVQlVeUASCnPBXC8QclWIcRO+Xz+cYOaupDnefsS0VkAliu3MZYf0YyOvhDnAWgvtzHfkEb7ayJ6KgiCbdF/Wl5bLJYlqBoHwPO8g4noKoOSC+M4nlooFF4wqKmF53nrCiH+nOL0Qos5vmDm33Q20amInJHOxNhHAEwwKHuLUupnqJCf0WKxmKMqHADf97dj5n/C3HCa+cw8JQzDVwzpaZHNZkdGUfR7APuiSn4noi4HZ9RwOMOa4AxuADXWwRlUD9FYB6rJgjISiGOQ54GjGGBG3NzSsTiKEbe2g1vaEC9oRryoBfHCxYjnL0Jh5mzEC5rL+8P1ASJ6Jo7jY8Iw/Fe5belkkJTyQQAbGNQ8Qyl1pkE9i8VSAVT8YSOlXBXAywDqTOgR0RxmnqSU+o8JPU2E7/uHM/P/wdDPZxRBcEcNh7faGMhVx8BdZTm4y46Au8wwiMY+mMsMzivE7e1AoffGe5wPEH05B4WZs1H4ZCYKH36G8MPPUfj4C3ChIkv0I2a+JAzDU9DRPbLcNEgpHwWwniE9BrCHUurvhvQsFksFUOkOQK2U8iWYK/ermBInKeVqAK6C2WoGLZzBDZBrj4W/3uqQ66wGb/UVIGpMtp9ncD5E3JYHCoW+ry5EKHz8BdQb70G9+QHU6+8h+mqOQfu0mUFEh1VIQmmjlHI6gLUM6bUA2FAp9Y4hPYvFUmYq2QEgKeXtAHYzpNcax/GUQqHwrCG9pHhSypMB/BplnshHGR/+hhOQ3XI9+JusBW+FUQCV5i3BQYi4tT2RI7Ak8dwFyL/0NoLnX0fw0luIFy42ZKEWNymljgUwt8x2LNXZL2OsIb33lVLrA1hkSM9isZSRinUAOg/J/zMk1y6EmJrP5580pJeIzrkFfwOwbrlsEE0NyG2/GbKTN4S/4XhQprxTgTlQ4NZ2M6H9OIZ65yPkn/kX8o+9hMJnZS3b/5KIDgiC4NFyGtGZX/IMgOUNSf5TKbUzbFKgxVL1VKQDkMlkJsdx/BAAx4CcIqIdgyB42IBWYjzPO4SILkAZevaLxjrkttsEuR02h7/RGoBjsnusCRhxXoFb2oHY3HC+8L0ZaH/0BbQ/8gKiL8tyVcDMfEEYhr9GGUvpMpnMmDiOnwGwtCHJ3yilTDnnFoulTFScA5DNZkfFcfwvZh5iQI4B7K+UusmAVlKapJRXA9i5pLsSwd9oAmr3mYrslIkg6ZV0+yQwM7gtD27Nw+gDJjPUa++i9a7HkX/iFbAKzWkXxxsA9i7nZMnOccLPwEyyaSSEmJLP5x8zoGWxWMpEpTkAwvO8R4loS0N6pymlzjKk1Wc8z1uHiO5ECRv6iMY61Ow1BbX7TIU72tQDX4mJIkSL24AUDup44WK0P/gsWm9/GIXPS9rQrwXAwUqp20q56ZL4vj+Fme+FgXJaZv5aSrlGpXVFtFgsxVNRDoDhe/+yNjCRUu4L4AqYHdTSLe6o4ag7aBfk9poCkcuUYsvU4UAhXtxm9FrgW2JG/rl/o/WWBxG8/LZ5/W4goiuDIDgCQMnDEADged5BRHS1IbkHlVLbw+YDWCxVScU4AJ7nrU1ELwCQulplbmHq+77/Z2Y+tBSbeauNQf1R+yC37cQKvNs3QMyIW1rB+fSmM6s33kfLdfcg/0xpevkw85NSyr3K9fQspTwHwIkmtJj50DAMrzChZbFYSkulOAA1Usp/AVjZgNa7SqmNASw0oNVXmnzfv5uZN0l7I2+lZVH/P/shN3XTkpXulRMOFLi5FczpPWyqtz7A4svvQPDSW6ntsQSfAdheKVW68MN3kJTyNgC7G9BqA7COUuq/BrQsFksJqYiTw/f9K5n5EANSi9HRrKTkXf5831+Rme+HGSemW5xlhqHx+AOQ22kSIPrhE38PcMTglhZwkG70PPj3f7H44lug3nw/1X0ALCKi3ctUKlgjpXwRwDgDWv9WSm0IIL0wjcViMY6JMjstfN//CTP/yYAUA9hLKfWMAa0+4Xnehsz8KBEtm9YelPVRf+TeGHLJyZDjVxoQT/0/hASBMj6IAA71Ggj1hDtiCHI7bQFv7BioNz8At7SltVUGwN5CiDlxHL+a1ibdELqu+xiA/Tvt0GGE4zhOFEXTDdhlsVhKRLkdgHrHce4H0GBA6/dKqb8Y0OkTUspdiOheIjLxM/wYItTsOhlDrvktspM3BLmm5iFVL+R5EFKCwxBI8UrAXW4Ean66Jch1EL79ERClModAENFPHMehKIqeTGOD7oiiaL7rum8D2Av60cCNhBD3xXE8y4BpFoulBJTVAfB9/wIAW+nqMPPjYRgehBJnI0sp9wJwM1Jq6esuOxxDLjsFdb/YFaLWZE/+foAjIDISKERAlEKVQCfkuvDXWQ25KRMRfvR5mg2FJrmuOzSKogfT2qAroih633EcD8BmmlKCiDaIougaAOn9QiwWizHKFkd2XXcTIcRTAHQvsj9TSq0NYJ4Bs4qms7Pf5dC3/0eQ66Bmv5+g4YRphofxlI5o/iK0P/QcCv/5GNG8RaDaLLwVRyG7zcZwlx9pbB9mAC2tiNtLUPDBjLYHnkHzBTelNnOAiK4KguBQlPYQFZ0jhLfRFSKi44IgOM+ATRaLJWXK5QD4UsrXAayqqRPHcbxloVB4yoRRxeL7/tHMfAFS+PdzxyyDpgtPgFxjFdPSpSGO0XzJrWi+9FZwV4cyEWp23QqNpx8G0VBrbFtuDxC3tKV6JfAN8dwFWHDGZQheTK1a4G9KqQMApJfo8ANyudyIKIreYOalNKXahBDj8/n8x0YMs1gqgJqammFhGG4OYHkiKjDzh0qpJwA0l9s2HcriAEgpzwJwigGp3yulfm1Ap2h83z+m8/A3Tu3PpqLh1F9WbyMfZsw/9o9o/cfjvb5Urr4Clrr1XLNOgAoRL1pcmosgZrTe8iCaL7k1rdbCtyql9gWQSuJBV/i+vyMz3w3N7wVmfiwMw21gGwRZqpzOg/88AHsA+GE/9XZmvjoMw1NRpRMyS54DIKVcFcBNBvZ+VSm1H0oYKvU87xAAl8Cw4+QMbkDTxSej7pe7gbzqTfJrufE+NF9aXKfbaM4CxF/PQ3bKRGP7k+NA+LKjhXDakQAiyPErIbPZOlD//i/iBcYfBMY5jrNMFEX3mhbujiiK3nNddzg0p1US0RjHcd6PoqgkDRUsljRwXXdiHMdPENFG6Pq88ohoA8dxdvM8775CoVCO3jNalDwCIKW8H8BUTZlWIlo7CILUC7W/QUq5O4BbYNhpkuNWxJArT4OzzDCTsiWHVYgvN9oP8ZwFxS8iwvCHLoM31tSk2k6iGNHCxWll7f8IDkIsOucatN1r/iaKmS8Nw/AI48Ldk5NSvgpgrKbOF0qpVdDRKMhiqSqklLsBuBHFl8h+0JmL1pKeVeYpaQTA9/0pAM7U1WHmI5VSjxgwqSiklD8FcCsMDFFZktq9pqDpilMhBqdTQVhKgqdeQ+vND/R5nRhUh8zENc0aIwgi43eE5uP0o9DkOshMWheivhbq5beN7klE6zuOk4miqPd7FTOEQojniehA6H0/1He0BihtaaPFoovv+8cCuAo/Dvn3RJMQwo/juGTnkglK6QB4juPcDUAryYiZp4dheIwhm3rFdd2JRHQPDMwo+AbyXAz63ZFo+N/9QW65WzGYofXOx5K10PVc1Oy2tXmD6BsnoJDOMKEukONWhFx7LNSz/wbnjVYlbOK67rwoil42KdodcRzPchzHh35p4PpSyhsLhUJV3o9aBhzC87w/AzgNCaLjRDQuiqKLUKZBX0koWS9Z3/cPh35YsV0I8UuUKLkok8mMIaJ/QL9T2reI2hyGXHMGan+mewtSWcRzk11/9enKoK8QwRlUB5SweZK/9lgMuf5s46OYmflCKeXORkV7oHOMtm5L7WwUReeasMdiSRlfSnkzER2loVGfyWQ2NGZRCSiVA9DEzKfrihDR6UEQfGjCoCJoiuP4QSIaakrQGd6Epe74EzKT1jMlWTnIvkTLvoMyqfRQWmKDb5yA0kVanKWXwpBrz4S/zmomZQWAmz3P28CkaA8EcRyb6Eewh+u6qQ/Hslg0GCKlfALAnrpCURStYMCeklESB8DzvFMBDNKUeS0IglTK77rA933/Hhgc7CNXXwHD77sEcvV03x+cD1D49CuE73+KyHxmerd4y41ItM5ddrhhS7qACE5jHViFKHz6FQqfzOzoGZAior4Wgy8+CdltNjIpmyWiu7LZbGozJ5akUCg8Q0RXasqQEOJ8VMjgMYtlSXzfX0FK+TwAUx/Uqnqfpx4bzWazo6Io+qWmTIGZD0aJGqP4vn8JMxurT5MTVsaQG38HMajelOSPCJ5/A82X347gude/NyjHW3k51OyxLWqn7ZRqiaG/yVolXdcX2h54Bq1/vQf5V9/5rm0wEeTY5ZH76WTkdpwECPOfW5IeBp19JEQui9a7jc3JGRFF0T0ANgbQbkq0O4IgOElKuQMAnfaN60kpd1RK3WPKLotFl85o2r3QzEtbEsdxPgjDqkkBSN9b8X3/cmbWcgCY+c9hGB5ryqae6Gzxq/vU8y3++uMx5K+/hajLmZL8PsxYcOblaLn27h5f5o1dHkvd8H9whg1Oxw4Ac3Y/Dvk+JAKKxjqMeOHG1Nodc1jA/KP/gLb7nu7xdXLd1TD4T/8LUZve72jRBTclqpLogRuVUvubFOyOzpkXt2jKvKWUWhN2ToClApBS7oSOOS4mP/TNSqnhKIFjbopUL0YzmczyzHytzj5ENFcptRuAvDnLusbzvPWI6A4YioxkNlsbS/31rFT7+S86/0YsvvyOXl8Xz12I/NOvoWbPbVOrPJBrrIzW2x8puv5+0O+Php9iy+MFJ1yAtiKevKMv5yD8z8fITd00nTHLRMhstAZYhVCvv2dKdQ0hxFdxHL9mSrA7oih6x3XdyQB0rh6GOY7zThRFuomFFosWvu//CsBfYX6I20WlHualS6oOgBDiAgDr6Ggw8/FxHD9jyKSeWMp13ccBGHlE9jecgKX++ltQNr0kt/DDzzDvyN8X3fUunrcQ5HnwN5yQij3OkEbICSuj/aHnOqb0dQcRGk8+CLX775CKHQAQPPc6Fv72iqJfH82cDWfkUHgrL5eaTf764xG3tCN86wMjekS0jRDi0TiOZxoR7AEhxBtEdDD0ooarR1F0BWyLYEt5ICnluQB+B/P5bx8opfYBoAzrpkpqSYC+768MYF9NmbfCMDQWju8BklJeA2CUCTF/rVUx5NozU89wb7nun30ehbv4+ntSHZ+bmbQuhj92JXI7b/Fj58cR8CeuiaF/Pw91h+2Rmg0AsPiau/q8pvWW9J33hmP3Ndn3wCeiWwCkl1zSSRiGrwG4TlNmNSnl3gbMsVj6ii+lvAXA8SlofyaE2AZV1gUQSDEHQEp5E4Cf6WgIISbn8/nUO6B5nnc4EV1qQiuNITfd8dVm01CY8WWf1w2772LICcYKHLqF8wEKH89EPH8RUJOFN2YkRENd+vuGBXw5flfEbX28NSLC8EcuTzVZEwAQMxac/he0P/isKcWS5APU1NQMD8PwfQA6v8QPlFJjUcIhR5YBz2Df9+9iZt3GVl3xuuu627e1tfX9i7gCSCUCkMlkloN+TeW9pTj8pZRjieiPJrScZYZhqRt+V5LDnwsRCp9+lWht4aMvDFvTNZTx4a02Bv4ma8Ffa9WSHP4AEM2a2/fDHwCYEX5ags+xIDSefij8DcebUtxPSrmPKbHuaG1tnQXg95oyK0kpdzFhj8XSG5lMZrSU8tmUDv+HlVKbVevhD6TkAERRdAz0EumYmU8zZU8P+DCUCSrqcljq2jMhltJtd1AcHKjEE+/i9tTzKcsK5zWu4XTW9gFyHQz6w7Emcw7+kslkRpsS6w6l1EXM/LWmzAlGjLFYekBKOSGO42eh34G2K65TSu0AYHEK2iUjDQegvnOQiA53hGH4uhFrekBKeSoA7Uk05LkYctUZ8FY1PNWuB0RNFuQnG0/gNDUatqaycDSGK6Ue/l9yr5osBl9wPMQQI05jQxRF1yD90t5WIYRue9/1bHdAS5r4vr81gGeg17+iKxjAmUqpaaiinv/dYdwBkFIeBr2kpAjAGWas6R7P89aAoSeRxt8dCX/jNUxI9QmZsIQu6bpqQTQ1wBnZ9w7OlPXhjlkmBYu6xxnWhKYLjgP5yVopLwkRbel53jQDZvVIEAR/AaB1jySE+F9D5lgs38PzvAOZ+X6YT44tMPOhSqkzDOuWDdMOgAfgV5oatyil3jVhTA8IIroMfRv32CW1+/0EtXtNMWBS38ntuHmf1/jrj4MzvCkFayqL3A59/7fJbjsRIu3ZBF3gjR2Dht/8wogWEZ2fzWZNP/X8kDwRnaOpsZOUMo3QrGXgQlLKM4joGhj4bv8BLUS0Y4mq0kqGUQfA87y9oVdKFxHR2abs6Y7Oec/avZ/9tVZF4+mHGrAoGbndtoazzLDiFxCh4dj90jOogqg/+Kd9Sjok6aH+yL3T69jYC7mpm5gqD2yIoij1mRlBEFwF4BMNCdKcvGaxLImUUt4AQHvoXBd8xcybBUFQVU1+isFoIyDXda+C3p3LzUqpq0zZ0xWZTGY5Zr4DQLIL9E5EUwOG3npuyTLbu4I8F3LNVdB+39Pf6//fHfVH7o2aMkUrSg3VZOGtOKqj1C7upe8BEQad9Stkt1gPcJyO1/fUyCgl/A3GQ738NqLZ83WlVndd919RFL1vwq5uiIQQIRFtr6GxWhRF9jPRAgAAIABJREFUlwIITBllGZA0eJ73TyJKY1z2247jbBEEgbEWnpWEMQdASjkBwFk6Gsx8QBzHswyZ1CVCiKuhm/hHhCGX/roktfS94S69FDKbrgX16jsd9fZdIGqyaDzlF6j/1V4ltq68eCuMglxzVQQvvQle3PX0P6epEYPPPRY1u2/z7Z+RlFpVFkkhR8DfaEKHQxdoVyNs0Nl1LzVPJo7jd1zX/SWSV9F4QojP4jh+1aRdloFDLpdbmogeJaKNTWsz8/QwDKcUCoXZprUrBWMZw77vX8rMhyddz8yPhWForEVaV7iuO1EI8Qw0f+7an++IQWfppjqYhcMC8tNfRv6JV1D4YhY4r+AMHQx/g/HIbb8ZxJD+nfnfE9weoP2R55F/6jUUvpwNimKIpZdCZuM1kd1uE4j6mh+vCUPEC8pT4dP2wLNYeJqRvlQnKqV0M/Z7REr5WwCnaki8qZQqfQatpeqRUo4D8AAMdXD9AXd0Ntfq1zXTphyArJRyJoDE9UxEtF0QBA8ZsqcrhJTyJQDr6oh4Ky6LYQ9cknqbX0v5iZtbwfnyRKcXnHJJx0wFPRa7rrtKW1tbso5RRVBbWztUKTUDQOKJV8y8bmerYYulKDKZzFZxHN8JIHnNbzcw80VhGB6DATCzwkgSoOd5e0Lj8AfwdhAED5uwpTs8zzsQmoc/eS4GX3SiPfwHCKI2l850wCJoOOlAOMO0qzXqoijSupbrjZaWltlEdJOOhhDiEFP2WPo/nuftH8fxgzB/+EfMfHgYhkdjABz+gCEHQAhxsM56Zr4A6f6DZ4not7oidYfuDjluRRP2WKoBQaDa8lQFiNocGk8+SFuHmadJKVc3YFJPe5wPjc8vM+8DIP3+2ZaqR0p5GhFdh/TK/C4zrFvRaDsAUsrVmHmihsSCMAxv0bWjJzrnP4/Q0XDHjET9Uam3W7dUGCIrQZ5OV+vk+Jushew22rlNAumURn2LUuq/zDxdQ6LO87x0x0Naqh23c2LrmTDf7XIWM08KguABw7oVj4kIgNapyMw3AWg3YEd31MRxrDcCUhAG/+HYxK13LdUMgWoTX29rU3/Cz+HotyfezfM87ZbXPUFEuuW71ru2dEetlPIeALot5rviQyLadKDmoJhwAHQ992sN2NAtUsqjiKjvfWGXoHbPKfA3MDa5zVJlkOcZadWbBKexHnX65ZtERGeasKc7lFJ3EdGcpOuJaFJNTU0fulpZBgK5XG6ElPIpAFNTkH9BKbVREAQfpqBdFWg5AJ7nrQVgJQ2JF1Me+lMP4DgdAVFfg4bjDzBjjaVqETW59MfsdENux0nwxo7RldnB87z1TNjTDSqO4xs11jtKqZ8as8ZS9UgpVysUCi8AWDsF+TuVUlsBmJuCdtWg5QAQ0Z4665k51a5/vu//EsBgHY36o342oGvoLZ24TvmugASh4fif61YkEBGlOoZXCHElNJIBhRBa3yeW/oPruhsDeBqAsXnZ38DMFyml9kC6V89VgY4DQAB211jfHIbhbRrre8Nj5iN0BNzlRqD2gB1N2WOpcqimfLkAcsLKyG6tPb5iF9/3UytjCYLgPSJK3LyAmTfN5XJLm7TJUn1IKfcRQkwHYHpqWURER3aW+fXSH3xgkNgB6Awn6sQl7wbQqrG+R6SUewBYVkej8eSDQbI8d7+WyoMcB5QpXyJo/ZF76VYkOHEcH2PKnq6I4/hvGstFFEW7GTPGUnX4vn80gBsBmG62kgewdxAElxjWrWoSOwBEtKvOxkR0u876ItCaN+6tujyyU8y1l44XLUb47icIXnkHhc9m9T6gxlKRUK73KEA8dyHUOx9CvfMh4rkLje3tjFgKuZ220NIgomkAhpix6MeEYXgngN4nU3WPdQAGJo7v+5cx859heEotEc1h5klKqTtM6vYHdB4ndLIyFwRB8KjG+h7JZDKT4jheS0ej4YQDAKH/Psw/+SoWX3or8q++A0TfHfrOsMHI/XQy6o8o3whaS9+hzlyAHw3riWO03vkYWu94FIWPv/jeX7ljlkHN7lujZtfJ2u+puoN2Qdu9T4KDMKlETkr5S6XU77QM6Z45zPwEESWa68HMG6Mjb0d7JKKlaqiRUt7CzDukoP0xgO3CMExzMmbVkmgaYDabXYaZf4+EedFEdHMURXclWVsMQohzAIxLul5OWBmNvzlEL+mKGQtOvwwLT/8LCjNn/2iyHLe2Q736Dtruno7sFutBDDbe0tqSFg6B8985AHFLG+Yf9Qe03vEo4gXNP3p5vKAZwXOvQ/3rv8hssZ7WtRLVZBEvaEb4tlbl0opRFF2MlLpvOo4jiShp8oxwHOfVKIr+Y9QoS6XSJKV8AMDkFLRfklJObm9v/ywF7X5BoseRQqGwHfSKotIM/w8BoDUXuuHYfbV7wDdfeDNarrun19dFX87B7L1PQryoPJPnLH2HPO+7u3hmLDjpQgSv9X5eBa/9BwtOulB7zHDdATvp5qYs6/v+VlpG9EAYhv8AoDPPeDtTtlgqF9/3V5BSvgDA+ChfAHcrpbZsaWnpt6N8TZDIASCiKUk3JKK5QRDotA3tEd/394dGAok7ZhlkttArly58+hWaLyo+FyqaNReL/nSD1p6W0kKZDACg/ZEXELz4ZtHrghffRPujL2jtLYY0Ijt1Ey0NZk5zAM8CAI9rrJ+CsnVdsJQC13UnMvNL0Osj0yWdZX67Amgzrd3fSOIAuAASPz0w8wPQSxLqTV9rgkrdobtr39O23HQfuBD1aU3bHY8gbuvXo6f7FZSVgCC03tb3IZZJ1vyQ2v12AITWGbljbW2tVofMnmDmf2osX1pKaVtv9lOklLsIIR6F+TI/BnCmLfMrnj6fdK7rToTeGMYHNdb2SGfziNWSrhdDGlGzy5baduSf7ntb6bgtD/WqvfasJjgsQCW4i1dvfYi4Re/hxF1uBPyNtdr7yzAM99Myogccx3lIU8JeA/RDOsv8/g7AdFONAMA+SqkzDOv2a/rsAAghEmX3dhIppVLL/icirabpdfvtYKTbW2HGl4nWhTNmau9tKR3x7AXJyjnjGNGXidvmf0vtPnrt0ZlZe8hAd+Tz+RkA3k26npm3MWeNpQIQnuddmEaZH4B5cRxPVkrdali339PnXwQRbaqx38sA5mms7wmh1ZvAEajZc1t9K5jBKmGJVl4nb8pSajjq2zXP99b+sIwwAf56q8MdpTU/Z900OwMyc+IoABFtCPMz3y3lwZdS3kxER6Wg/QmATQqFwrMpaPd7+uoAeMy8rsZ+qYX/M5nM5gAStxHNTFoPztJL6RtClLikz84cqC6cpuS/L52130KE3I56jYGYWaedd48IIXQ+77m0RxhbSsJg3/cfA5DGnIdXPM/bSCn13xS0BwR9cgA8z1sbQOKuNcycmgPAzFpjiXXDqUvir7VqsnVrjzVmgyV93GWHQzT13dkTg+rhjDDTjC+34ySQm6idxzekNoAnCIKnAbQkXS+EmGjQHEuJyWQyY6SUzzOzXslK1zyilNqqtbX16xS0Bwx9cgCEEDr1movCMPyXxvqeEHEcJx4lKoYO1i79W5LcjpP6vEZOWBnuaDsHpaogQm6HSX1elp0yUbvPxDeIpgb4E7WaXq7h+77xUqxOAgDPJ13MzNYBqFI8z9uAmV8EsIppbSK6XCk1FYBtnqJJnxwATU/ueaRUmuF53rpElLikKbfD5rpPUd8jO3VTyNVXKH4BERqO+3nRL49mzUPzRTdjzrTTMHu34zD3F7/F4qv+gWj+ogTWWnSoP2x3iLqaol8v6mpQu99PjNqQnaJ9TpoLf/2YxNMBAaTx5GhJGSnlTkQ0nZkN3Kl+DwZwZhAEhwFInoBj+Za+5gDozCPV+SLoESLS+gLL7bC5KVMAdPSLH3zxSUWHh+t/tScyk4pIrYhiNF90M76auD8W/el65B9/CcHLb6H9oeew8Kwr8NVG+2Hh/12NeLHtf1EqnBFLYfAfjy3KgSTXQePph8IZOtioDZlN14LIZRKvZ+bEjb16Qwih87kfnslkdCaOWkqM53kHo6PMz/SAEwVgP1vmZ5aiHYBMJjMawIjEGwmROBRYBIlrhp0RSyW+s+8Jb8VlMewfF8Bfv/t+JqK+Bo1nH4GGE6b1LhjHmH/ceVj0p+vBYdd9lLg9wOLL78BXkw5E6+0P24mDJSI7dVM0XfrrHpNInZFD0XTxycU5en2EMj78TbSuASbB/Bc2ACCfz78EjcZfcRzrPHRYSgdJKc8loqugN2SuKxYKIbZVSumMmrZ0QdEXkVLKnQEkHeBTUEoNgkZCUA8MkVJ+jYS1pXW/2BWNp/zCsElLwIzg5bfR/vhLiD6bhbg9D2foYPjrro7sthtDNNYVJbP4stux8PfX9GlrOW5FNJ5xGPz1E89FshRJ3NqOeH4zghfeQP6ltxB/3VHtKoY1IbPhePgbraHbv79H8tNfxvwTLki8noi2D4LgAYMmfYuU8lUA6yRcfq5S6kST9liM40sprwWwTwraM5l5+zAM30hBe8DTF09tgsY+/0Y6hz+klFtDo7FEduuUHzCI4G8wHv4GyTubRl/Px6Lzb+zzOvX2h5i9+3Go2WVLNJx8MJxhZkPPVUMUI25pBeWy3w3xMQz5EuR7yExaN5Wn/N74xsFI2oMijuNtAaTiADDzs0SU1AGwLYErm0G+79/FzGbvUTt4y3Gcqe3t7V/0/lJLEvrybZj4MbIzGzQViGhzTjhdTdTXQFZB6V3LjfcmbxzDjNZ/PI72h59H3RF7oe7gnxrpdljpcFhA271Poe3WhxC8/h44H4BcB+4Ko5DbYXPU/nxHiIZaY/uR63TMkCjTtQtlfcg1V0Hw8tvJ1hNtZtikJbVfBHB0wuU6Dx6WFMlkMqPjOH6AmdP4En1YKbU7bKZ/qvTlyXkNjX1SC9/olAplNl0ntSdCk+Snv6ytEbe2Y9Ef/opZWx2C9ofTTMcoP/mn/4Wvtz0M8485F/kX3wTnAwAAFyKE783Aoj9dj6+2OAjBM2arUsv9XsrozQYYD70ZHz2h8/kfiY4R35YKQko5IY7jZwGkcfhfp5TaAfbwT51iHYAsgD7Utf2I4uel9o1GaAz/yWxR+lBtEgofm4uAFT6bhbmHnInZ+5yE8P1PjelWAoXPZmHuwWdgzr4nI/zwsx5fG89diDkHnIr80+acgHI7AJrDgRzf9zcwZcuSKKXeB9CedH0mk7FJLBWE7/tbA3gGHc6ZSRjAmUqpaQAS9lO39IWiHADP88YDSFooH4dhmMqYO9/3N4TG/X9ms6TXkiWEudusfx2CZ/+Nr6cchgWn/QXxwup2tOO2PBad2xndeOSFotdxWMC8o88x1z/BL2/renfMSK0SwxQb70TQGwxkrwEqBM/zpjHz/QDqDUsXmPlQW+ZXWoo9PFfX2OMjAK0a67uFmRN3JnRGDoUzvAoii0TG2sb+EC5EaLnuHsza/EC03HAvEFVZ2SAz2u5+ArMmHYjmS25NlCcRz1uElut1Rtd/BzmdeQBlRK6ZvKQ1pZat3/CWxlobASg/JKU8m4iuhfkhTc1ENDUMwysN61p6oahvKyLSacaRZvlG4hh+NZXGZSaZa1PcFdGCZiw45RLMmno4ghfTuq0xi3r7Q8ze7X8x76hzEM3SGzDZds+TZowCjHaUTIJcM3nnVSJaG30oDe6jduI3VhzHthlQeZFSyhsA/CYF7a+YeVIQBKmNibd0T7GPK6M19kiWllwciUOD/jqJUwdKTt0hu5bkfjl89xPM3uN4zDv0bERfVOaMjWjeQiw4+UJ8/ZMjELzyjhHNwiczEbcY6p5Y5jwAucbKOssbs9nsKFO2/IDEEQAiWt6kIZY+0eB53gMA9k1B+y3HcTYIw/DfKWhbiqDYCIDOB/B9jbU9MRgaSSiyihwAd7kRaDz90JLt1/bAM/hqy0Ow6LwbwO1ByfbtCS5EaLn2bsyadBBa/vYAECcr/exanIG2vBGpckcAvJWWhajNJl4fx3EqdfdE9IHG8lFInoNkSUgul1taSvkkEW1lWpuZpyulNm1vb//ctLaleIp6XGHmxA5AHMczkq7tiUwms0acsOaapAdvldFmDUqZ2v13AIiw8Kwrvy1rSxPOB2i+8G9ovf0RNP76oI4Jh0VOsIvmLYR69T+IZs5GtKAZ8YJmiLqajjG4wwZDrjUW7rLDi7YlePbfWHD6XxB+0HNmf1LIdUBFdmTsVavcZaVCwFt5NIJ/Jcu560y4u9+sUUA+n/9CShki2f2xl81mR7a3t6fzBrD8CCnluEKh8AA6nC/T3BiG4cHo6O9vKSPFfFv5AIr/tv7hYt//pFAwn8Wukxnsrbxc2Z/UklC730/gbzgBC069BMHzpemMGX01B/OOPActN96HxjMOgxy3YtevmzkbLTc/gLYHnkXho96dejF0MHJbbYCafbaDXKPre+vC57Ow8Kwr0f5QanOkAADeqsuba9MrBCDIbISij7grjkrsACC9znsFAF8ASPQwEYbh8gCsA1ACMpnMVnEc34kU+kIw80VhGB6DjpI/S5np9QrA9/3linldN+RbW1vTukxOnO3krVq9V4reSsti6K3nYsgVp8Edldgv6zPBy2/j658cgQUnXYh43ndlc4VPZmLuwWfgy4n7o/niW4o6/AEgnj0fLbc8iK93OApfb3/E9xyauC2PRX+6HrO2PCT1wx8AanbfxqygU95KAHfFZXWWp9Yak5lnJF1r8wBKg+d5+8dx/CDMH/4RMx8ehuHRsId/xVBMBGC0hv4MpPTL1rmW8Far/qTi7HYTkdlyPSy+8k4svvRWxIbusHsk5o6n/PueQv3R+yJubsHiy25P3H/+G9RbH2D2Xicgt+MkZDZdG4vOuwHRrLmGjO4Zd/mRqPmZ1jTpH0GuAw7LN67cW0nLAUjtoBVCfMzMWyRZS0SjzVpj+SFSytMAnAHzlSAtRLSnUiqVWROW5PTqAMRxPJyKvPvtgk+SLiyC0UkXeisnXlpRkC9Rf+TeqNljWzT/+Ua03PJgSULPcXMrFp51hXHdtn8+ibZ/PmlctztEQy2GXHaK+Sl9wkU5rzfdMcvoLG9AR4LtfDPWfAczJ249SUSlC3cNPBzf9y9l5l+moD2LmX+ilHotBW2LJr3GKoUQTUnFiSitDE+ChgPQlwS0asAZNhiDfn80hv79fMgJWmVgAwY5bkUMu+eiVKJB5Jb3CkDUZOEMSt6ozfO80eas+Q4dB4CZE38PWXqkTkp5f0qH/7tCiI3CMLSHf4XS6zcVMyduQ8fMc5Ku7YlcLjccQCbRYkFwll7KrEEVgr/uahh270UYfP7xEEsNKrc5FYloqEXjyQdh6D0Xwh1jupX5N5uU1wEAAGfpoYnXpnXfLoRIfK+j8z1k6ZpcLjdCSvkkgG1TkH9BKbVZPp+fkYK2xRC9flMRkU4EQK9FWzeEYbhc0rXOsCHmQ76VBBFqdpuMEc9ch/pj9+3fP2tfEISaXSdjxJPXou6wPdIt16sEB2Bkcic3rfv2OI4Tfx/ofA9ZfoyUcrVCofACgLVTkL9TKbUVgNIk8lgSk2oEII7jVN4ARDQs6Vqvn4X/u0PkMmg4dj8Mf/QK5LZPbdR7VSDXXAXD7r4Qgy84HqIprYm330FCpNRQt3icEckdAGZOHj7oAZ0IAOxIYGO4rrsxgKcBJH6Q6g5mvkgptQc0pj9aSkcxDkBiz1sIkUoEQMumahgAZBB3+ZFouuw3GHrzOfBWNv55r2ic4U0YfP7xGHbPhVo98vsMAaDyRgGcYVoPzKl8SIIg0Pk+aELZ3arqR0q5mxDicXT8e5okIqIjO8v8qmyq2MClmCuASowAJH68ERrJUdWMv8laGPbgXzDojMMg6mvKbU6qkOeidtpOGD79atTsNrnoDoZGbRDlPatEY63O8rTC7YuQfM67BKD1Qw10fN8/GsBtSJo/1T15AHsHQXCJYV1LyhRzEZr4xBRCGC8l6iTxF5ROdvQPKXw+C23/fBLqtXcRz1sIZHx4y49EZvIGyG6xftkbwvwQ8lzUHrgzsrtsieY/31SdI4B7IbPVBhh05uHlr/QgAaDrXgDq7Q/R/tiLKHw8s6NN8qB6eCssg8zkDSBX77rTYl8RDclbG+s4/b3AzDw/6RVeNpttbG9vX2zaqAGA4/v+JcxsfKAIEc2J43iHMAxfMq1tSZ9eHQBm9pP2AXBdd3EQpNK3PvkVgIk74DjGoj9ej8VX/h0cfr/NcfDCG2i5+QHIcSti8AXHV+TMAWdQPQadeThqdt8GC8+4HMHLOqPaKwN3zDIYdMahqY9OLpoufL+4uQULz7oS+Sde+dHfBc+/jpYb70Nmy/XReMohEPV6D7tCY7ZBmiV3RNQCIJEDEMexNGzOQKBGSnkLM++QgvZHAKaGYZjWwDdLyhRzBZD4Q9fa2prW1JrkUYkG/Sji/OPOQ/Olt/7o8F8S9faHmL37cQjfm6G9X1rIcSti6N//hCHXnglnZCp5X6nzTVnf8EevqJzDHwD9IAcgbm3HvEPP7vLwX5L89Jcx79CzEbfq5VDpRACQQg/4JUjcIYmZfZOGDACapJSPAEjj8H9JKbVREAT28K9iiolR63zo0mqHltgpoZrko1IBoPXvj6H1748V9dp44WLMO+occKF8bWGLITt5Q4yYfnVH2WCmSr5jS1nWlwD+QQ7A4gtuQvh+cX1wwvc/xeKLbtbanzJaD8tpPmknfihgZhsBKBLf91eQUr4AYOMU5O9WSm0JIJU+L5bSUYwDoPOhS8sBSHxKkadRFx/HaL7wpj4tCd/9BO0Ppz/QRhfK+mg4dj+MmH4VclM3NSPqOMCkTYAD9gFvvw1QZyaHy19/PIbdd0nJyvp0ib6ai9Z7n+rTmrZ7nkD0tUbSvF7/hzS9QJ2oYJV4p+XF87wNAbwAYCXT2p1lfrsCaDOtbSk9vTkAAsUlCnZFjI4RoMbReRIgmfxJUb31AQqfftXnde33PZN4z1LjLDMMTZefgqG3nQt3uRHJhVwXfOpx4EP2B289CdhnN+APZwBDkl8vi9ocmi4+CUPv+GO3Y4krhiXyZvLTXwaivkWBuBD1el3Q4/Z6EZHUnrSJSCcCYB2AXpBS7kJE05nZdLtTBnCmLfPrX/TmAOh84NK6/4cQIvkXlKvhALyR7LoreOO9xHuWC3+jNeCvu3ri9bzlpsBKK3z/zxrqwXv/NLGmGFyP3E5blKWsr68saaH6z0eJNMJ3P06+v+fq/DtJpFRzH8dx4qig67r2CqAHOsv8/g5A757zxwQA9lFKnWFY11JmejsNdeKIejNie4CZE9ul82QUL2hOtI7nL0q8ZzmJ2zQS0VbsZsjOiit0/edFUJKRx6ZY4viMFyarXIvmJ3u/fWuC5+qMapZIwYm3EYBUEJ7nXcDMR6WgPS+O450KhULl32Na+kxvp6FOqCfNx7TEdnEfQ7FLQtmE/TNypvtulAadhECavwBdDiael/xeW1TTv+MSPzxlk/07av28zD1WqRRBWpmrOncTlZ1NWx58KeX1APZMQfsTAFMLhcJ/U9C2VAC9XQHofIOkNoVG6ylC40vRWyHZnHW5wqjEe5YTnVpyPP40kP/xEzs98Ghye/RK20rKks6Pu9zSiTQcjRwMDhTAXbpgRS1Hevk7yRN4idJKKq5WBvu+/xjSOfxf8TxvI6WUPfz7Mb05ADph/NTqsnTuEUnDAZDrj0/0NOdvvm7iPcuJp+O4zJkLOvtPoP+8B7S3A59+AbroCuDV1xNLugkdsLKwxNmb2WiNRBJ+wnUAEOe1ovepXd8RUWIHoFAopGZXtZHJZMZIKZ9n5k1SkH9YKbVVa2vr1yloWyqI3g7pCB3h9iQ9bV10XAMkfgzpDp0nAZ0IgKjLoWb3bTpa6Ba7piaLmr2nJN6znHirao6F/+Qz4HfnGbsLkqsnzx8oNQT+9o0v1xkLb+Xliu4DAABytTHw11o1uQHtWg/LaR60ySt4bAQAAOB53vpRFN1LRMa7dxHRNUEQHIqUIkCWyqKYg13nyyCta4DEjzeaT0ZoOP4AOMsU38m04dRfwGlq1NqzXMi1Vq2owUGZTdcptwlF8z2vlwiNp/6i6ARU8j00/OYQvf2D5GclEaVZ462TyDfgIwBSyp2I6IkUDn8GcHIQBAfDHv4DhmIcAB2vO61L28RfUEkzsr9BNNRi6K3nwl1+ZM8vdAQaf3MwaveZqrVfOSHPRWaL9cttBgDAHTUc3ljNiEQp+cGQJW/smI7GRb10ohS1OQy+4ATtGRKs4egyc5plKzYCkBDf938F4E4AOcPSAYB9lVLnGNa1VDjFOACJa5EymUwqs3eZOXEqedJSviVxlx2O4Q9fhoYTp8Fbcdnv/Z3IZZDbfjMMu/di1P1yd+29yk3t3tuV2wQAQM0+21VF/f+3dJGA5284AUPvPA+53beBGPz9DoaiqQE1e26LoXeeD3/9cdrbx+1aka6F2gZ0T+IadSFEq0lDqgiSUp7LzJcAcAxrLxRCTFFK6fWetlQlxcQkmwH08rjbNVEUpeIAENHcpGtNOABAR4lc/a/2Qv2v9kK8uA3x7HmgmhzEkEaQa/ozWj78jSZAjlsR6u0Py2aDqMuhpsoiKRx3nfoihgxC44nTgBOnIZ6/CHFzK0RDLYTBMdUAQBrlrilHABKPGs7n82mNF69kfCnltQD2SUF7JjNvn8/n30hB21IFFBMBSPxlwMyVFwHQbK7SFaIuB3eFUXCGN/Wrwx8AQISGEw8sqwl1h+wGx/ABmT69576KwQ1wRy9t/PAHoNXxkojSGvKSRfIIQAxA7/6u+hjk+/7DSOfwf8txnA3DMLSH/wCmGAcgcTjQcZxUst90IgDR3AUmTRkQZDZfB7kdNi/L3u6YZVB3WBVepUTlbZfujhkJiMRXJm+ZtOUbstls8kEQHZHIAdODPpPJjJZSPsfMaXyuAz4UAAAgAElEQVTwHlZKTWxvb/8iBW1LFZFqDkAcx6kMmRdCJHYACp/b0tYkNJ71KzgjTM8X6RmSHpouPAHkV1kLeGadJjxGEPW18Ncam3T5XSZt+YZCoaDzBhownruUckIcx88CSPwL7IHrlFI7YOBFUyxd0KsDQESJw+1ENDzp2p5g5s+Tro1mzi77l3M14gxuwJCrT0/c1jYJg/7vSMg1VinZfsYo89P/N9RO2ynJsnuUUu+atgUAHMcZrLG8Ogdq9BHf96cCeA4J8656gAGcrpSaBltOaemkVweAmWclFWfm4gvm+0AQBJ8hYTiQ8wHiOQPmYcIocvxKGHLD70rSk7/xpANRs8e2qe+TCnFlOAD+hhNQs/s2fVky03Xdw9OyJ47jxAmAzJxWXkLF4HneIcx8D4Baw9IhM09TSv3WsK6lyinGAfgqqXhaEQB09Cb4Muni8LPEPs2AJ7PBeDRdfzacH5SxmYI8F4P+cAzqDk+jvXlpiCskAgB0NK7KFecEvEdEW7W1tSX+XPUGESUbitCxtj/fV5OU8gwiuhLmW6i3ENFOYRheb1jX0g/o1QEQQug4AIk/8EVof5J0beGjxDcIFnQ4AUPvvQj+uqsZ1XVHDcdSt/yhYnoPJKZQQUPrBKHxxGlouvTXkOut3lUvhS8BnKqUWjsIgvfSNCWO49Eay1NzTMqM7Jzmd3oK2jMBTAyC4MEUtC39gF69zTiOv6KEDViYeXSihcVpzwCwaZK16t2PUTkNbqsTd9RwDL3jPLRc/080X/g3RBr9FUh6qD1gR9Qfu1+vnfKqAZ2R02nhbzAe/gbjEbe0If/Mv69qPv0vtzDz50EQlKzBAxElbuXIzP0xAlAnpbwdQBrDQt5xHGdqe3v7ZyloW/oJvToAnud9VSgkbg29NDrqftuTCvTAB0kXhu8mDh5YlsQRqD1wZ+R22xqtf7sfLX+7H4U+XK84g+qR220y6g7cBc7IVApGykMlRQB+gKjNoX7PyZfNPvH8f5dh+9FJFwohZhq0o+xks9lRURTdD2C8aW1mfjwMw10xQBInLckp5tFeSCnbkHyIx9g0ZkpLKXdGwnIl0ViHkW/+3bBFFsQx1NsfIv/EK1BvfYDww88Qz2tG3NwCUZsF1dXAXWEU5GorILv5OpDrjwPJtOZFlQlmRJWcZErEM8b/NMl0T22klM1IOB+EmdcOw7AcTotxpJTjADwAQGPedrfcqJQ6GHozXCwDhGISTmIAHyNhTSoRjQFg3AEQQrwZJ8y2jhcuRvTVnJLXtfd7hICcsDLkhJXLbUnZ4Ap++gcAcpw0+/z3xFLQGA4WhmG/SNzxfX9rZv47gDRaW/5OKXUqUhjBbumfFPsk8JHGHitprO2WfD7/CTSaFAWvpVLqbBngcFjhk1QFleVO2PO8MRrL5wNI3PyrUvA87+fMfD/MH/4FZv6FUuoU2MPf0geKcgCYWccBMJsq/h0M4O2ki4NXEi+1WLoneb5MSSBXvFimrXVGHKZanVAKpJQnEtFfAZi+82olol3CMLzKsK5lAFCUAyCESOwAMLP+bNNuIKLEgyyUjQBYUoDDyr4CiB3n1jJtrZPs9r4xK0qP4/v+5QDOQXE5V31hFjNvHgTBfYZ1LQOEYq8AEmfcA1hdY22PxHH8QtK14X8+QtyaRnGCZcASx0AFlgB+i6B4xvLbPVmm3XUcgPLNotajTkp5PzP/MgXtd4UQG4Vh+FoK2pYBQrERAJ14eUM2mzXd1xoA4DjOc0nXciGCeuUdk+ZYBjisKj3875StmY4QYkBFAHK53Agp5ZMA0uhn/YJSarN8Pj8jBW3LAKIoB6BzbGTi2qY4jtdOurYn8vn8xwASdypsf+Jlg9ZYBjoVnwBITlmeFnO53Ahm1im5qar7Oinl6oVC4UUAaXzv3aaU2gL9ICnSUn6KrgcmosQzwpl5vaRri+D5pAvzT75q0g7LAIfDyh6yRq5zQzn2jaJoDY3l+bSmE6aB67obA3gKwLKmtZn5IqXUPgAC09qWgUnRDkAcx29q7JOaA0BEzyZdW/hkJgoz+muLcUtJieOK7gAIR0Qfj5lydzm21nwAeANAhYdWOpBS7iaEeBxAk2HpiIiOCMPwaCScgmqxdEVfJk8ljgAAWB8dGbDGa1SZ+VGd9fnpL6P2wJ1NmdMt4X8/QeHzr8Ft7RDDmiBXXxGiLpf6vpbSwKrj6Z8LEcJ3P0Y0ez4AwBk6GN7YMSDXKad5ICE+AlG5Do+JSRcSUVV0//N9/2hmPh99eKgqkjyA/YMguMOwrsXSJwfgXxr7DPZ9f0wQBDr9BLpEKfWOlPJTAMslWd92/9PpOQBxjJZbHkLzpbci+uLr7/0VSQ/ZKRPRePJB/asP/gAlmr8Iiy+7A213TUfc3PK9vxP1tcjtvAVqD/4pRO7/2TvvaCmK7I9/b8909bxAjmICM6gYMWfXLOY1rjmsYXeNa1h1za45/tYc1zWtARUVdVEwK2BAFDEBCij55Znpqu66vz9mWAFfmJmunp736M85nuOB6VsXeO/V7ap7v99UJPnpROKlSBbObYhblfqw1vpzg7mEQcJxnP9j5lNNB2bm+QD2U0p9bDp2TAxQRLWqlJoMIF3qQlrr7Up9tiOI6PVSn3UnTYU/Z77JdADk3ggX/vEq1F10+282/yW/n35pPObucSrcCbEoUWfGn7cYC464EM2PvvSbzR8AdGMzmv81GguPuwQ6Ep8AgpWk/4tgYdi2vSGAHgFCBHnxCJsaIcSoMDZ/AD9YlrV9vPnHhEkxx1WKiEr+ZiSiHdvLI5lMbu84ztlCiOscxznPcZzdAIhCYjNz6X7XzEi/WnIbQZvUX3kvMq933J+oG1uw8MTL4P+8wHgOMeHDno+FJ18Ob0bHZnXe9DlYdPaNZfcLIJFYMGONfX4s66K/sk2AZ12lVJCrx9CoqakZIIQYB2BkCOE/lFJu5bpupxt/jOlcFHVfpbUOUo22WgA4jrOHEOJry7Leyd+hXcDMNzLzG0KIX4QQlwBo99xUSvkmArhfpUePL/XRVlFfz0DzY4WLc+mGZjTc+IjRHGLKQ8uTYyA/L1ypVk2bgfSL40LMqBUS1ovlXfBXiCjI/f8k5O7AKwrHcdZVSn2AcJqbn5dS7op4zC+mDBRVABBREB3xNaqqqpaxv7Rt+xRmfhVAW/ZxvQFcJYT4aPlnl6MJQMnNgPLzb6C+NfeC1Pz4KwAX1++Yfmk8dEOTsRxiykPz468U/Uz6+TdDyKRtfKZ/lHXBZdmh1AeZ2fzRXECSyeS2zPw+gCDmRq3CzLdLKX8PIJYojSkLRRUAiUSiZOldAPA8b+cl/59MJrchon8WmMNGvu+PBdCzrQ8w83+C5Nb8ZOm3CMuTfb/4viVWHuSkqcZyiAkff3ED1Nczin5OffsjdH2Zij07Oe+ndfadXp7FliXve1+y532QEd8wyI/5jYX5MT9NROcopc5CPOYXU0aKKgAymcwcBJDlJKK9lvx/IpG4AcVNIazjOM51bf2mUuoFBDguTD83FuyWfIuwDK01/RWCV+JzMdHgz55X9EkPAIAZ/rxF5hNqBUpaz5ZlodbWJtozwOPadd2SRb5M4zjO2QCeRgfXkSWQBXCY67q3Go4bE9MhRc+sEtFbAdbbA0AymUxuz8xF3w0y8/EA+rbx240ASp4G0PVNyIwp2VrgV5hzojClPFrpUrIxyxDE+Y/LYRtsEUtPXRb+Qq2jtd6r40+1yVcAFpvKJQAkhLg+pBn/xVrr3aWUkRVpMSs2RX9BM3OQC8xeyWRyK8uySnXHEkKI9sYJg10DPGKgV4oIVt9eJT2aGGD6ZDEmTBK9akt/tl9vg5m0Dtn25DlDDyrPUcNvqSWikkd/mXm8wVxKpUoI8SyA80OIPZ2ItvE8790QYsfEFETRBYCUcjwC3FMlEoljABxS6vNE1KbGtpRyFID6UmO7n34N14BDoLP5sLI+FxMNVs/uSPQvfiNPDOxT0nNFYyevDX+R1hFC7IoCx3hbw7Ks1wymUwp9hRBvAjgohNgTbdvexnXdwsdHYmJCoJg7+CUsBPAFgI1LWZCZT0JOFrgktNbtdU9liOgJZj691PhN9z0LZ8T6pT4OAKg5ZDekR79d1DPOthsjsVIQw7SYcsLKA3s+qvbdAc0PFSexXz2yPUmM4vDnLkJ27EeQ02ZAN6eR6NMD9tA1ULXXdi0/DT84MvlYItqbS+mPyJF1XXe8wXSKwnGcNfPaImuHEH60lPIIKWVLCLFjYoqipI1YCPEPABcazqUgmHkzpVSbgkS2bW8cSD/cIqw07kEkh6xccggwY/7hF8D9cHJBH6dkAv2euwXOJuuVvmZMWdENzWBXQtc3Yf5hf4Ve1FDQc1bfXuj/9A2wepR+fQAAuiWDpjueQMuot1rtOSE76bHy/i6lvBHlN9NJ2rY9h4hK1bh+Q0q5h9GMCsS27S0AjA6Qe5sQ0YOu656KTmJuFNP1KampRWs92nQiBTJHKdXu5q6U+hxA6T6/mtF0d6BWAoAIfW6/AMk1CigiiNDj8tPizb8zofX/zH+snt3Q67qzYNVUdfiYVVuF3tedGXzzb2jGolOuRMtzY9tsOGXlJQFcK4R4GoAdaMEicRxn5yAbaBBp7yAIIfYnonEhbP4M4ELXdU9CvPnHVBCtWpTV1NQMJKJdLcvaWgjR1/O8Oiw1Yqe1nmNZ1mlEVFO2THPc6ft+h1MIlmUREZUs0ammzUD1/jvD6tmt1BCwaqtRM3In+PMXQX0zs9XPJFYZgD63/RU1B+5a8jox5Ue3ZIClJjaSK/WFs90m8L77qc3xPrHROuh107kQw4Lrxyw+/1bIz6cV+vGhiUTCyetolIVkMvk3AJsGCHGu7/tl1cZ2HOcMAA8DcAyHdgEcK6W8x3DcmJjALHMF4DjOusx8E4C9sezpgAvgRWa+WSk1AQCEEA8BOL5smQK+ZVlrZrPZQiT7qoUQPyGAYEfNwb9D71v/Wurjy+DPmY/Mmx/D+/FnwFWw+vaCs/kwiK2GR24TG1MkzPAX1QO69ftt9c1MuB9P+dUOeEAfOFtsAHvdwUaWz/z3I9RddHuxj/lEtJ7rut8bSaJ9bCHEXORUPEvhOyllW8qgYUBCiOsBmPlmX5Z6y7IOzGaz40OIHRMTmP8VAI7j7JVX02v3fJKZ/8vM11iW1RvA82EnuBQvSykLfqsXQlwF4JKSV0tYGPjfe2Gv1ebQQcwKiG7JgFuiUWplV2H+788t1Tjqeill6H07juPszczF6yP/SlnyzOMIIR4FcFgIsX8EsI+UMvhYUUxMSFgAYNv2psz8LDrY/AGAiHazLGs8gEtDzm35dYs6QrNt+/8QxEjE12i44ZGSH4/pgjCDM25ky7c8/VoQ18jtTebSFsx8eMDnnzOVSwf0dhznDYSz+X+WTCa3iTf/mErHAmAR0b0Aqot8dpMQ8mmLn1zXLWouuKWlZR4R/TvIopnX3of7biXbkceUE53JlqzyGBS/rrHoccPlGGgql3boAeDgAM/PUkqV3sBbIKlUarAQ4j1mLtmoqC2YeayUcqd0Ov2z6dgxMaaxHMfZB8DmUSfSAfcAKFp3NS/fGegndt3V9wF+7M+xwqMZnI7Ombb5vuegm9NBQoTefW7b9lEo/kXif+RPIUsWDygEIcRwrfV7AIaGEP4RpdTeyMmSx8RUPFbQI7syIG3bfqikB6X8GjkDj5JRX89A8xOvBgkR0wXgdLbNxr+w8WbMQUtwC+HQj6OJ6KQgz+cLgNBwHGdvAO8DCCDy0SoM4DIp5fEAlOHYMTGhYQEYEXUSHTCqpaWlZJs8IroCJZweLE3jTY8WLPQS0/VgX0NnIrJoZ0b99Q8DfqAvYSDkhl3btjdDsGvB7z3PC2Q33h62bZ/MzC+igD6nIlHMfLyU8krDcWNiQsdC6eM6ZcGyrEDzs3m97UC9AH5dI+ouuytIiJhODLdkQj6YbpuWF96CnBT45X1W2I5zlmWdHDDEowjnb5mEEJcT0X0oTfq8PZqJaH+l1KOG48bElAULQCW/2k7LZrPFieq3gmVZlwOQQWKkXxqPzBuhvaDEVCjs+WA3ms5/vbAOTXc8aSLURQgyEdMx3Zj5iADPa8uyHjOWza+I/JhfGJbIcwBs67rumBBix8SUBQvAJ1En0Rb56YTAbwXZbHYmET0QNE7dpf+EbgrUiBXTqWBwU0tkb//11zwA3RTYM2aSlPIJE/m0heM4JwHoXurzzDy+QIGvYuhh2/arAI42HBcApiQSia2klF+EEDsmpmxYRFSpx1cZ13WN5ea67qUAAnmj+78sQP3ldxvKKKbS0RkJVtFIt2fGvIesgRFUrfU5CLeESTLzWQFjGP0ZVFVVtaoQ4l0iMq6xzcxvSim3z2Qys03HjokpNwnf979LJBKbAyin/GYh/Nv3/UAd/MuRSSaTLoA9gwRRU3+AvfbqsNdZ3VBa5mDlwZ30FdyPpkBO/gb+vEWwenaDVZWKOrXI4awL+dEUuBO+hJryPfTCOlh9eoGcNnxyNEM3tOc8HR56YT3qzr0ZnA189TBKKXWjiZzaQghxOIATAoSoU0qdBEPd80KI4cw8DsBaJuItx2NKqcMAxMeAMV2CJVLAtbZtv0REO0eazVIw85ZLfAcMkhRCfAZggyBBrB61GPja3UisbNwxtCTYlWi65xk0PTgKun65TSthoWq3rdHzklOQXK0cWjCVhW5sQeNt/0bLk2NyJj5LQcJG9f47o+dFJ8Lq23O555rB2UBtI6WhGYv+dC3cCV8GjSSJaAPXdb8zkVZbCCE+QQDjn7y/yHkmckmlUrtqrZ9DTpDIKMx8h1LqLER2IRQTY56lzYBSQogLAFwIIOpXxk+llJuFEdhxnD2ZOXDjTmqr4ej7xHWRm/noxhYsPOHvHW4YVvca9H3oSjhbBKp9OhX+vMVYcMQFUN//1O7nEgP7oN/j18FeO+f7wK6EbmguR4q/ofGup4Mq/gEAmPk2pdTZBlJqk1QqtYvWOohAgSaidU2YFNm2fSwR3Q/z1sceM5+ulLrfcNyYmMhZevfyfN9/23Gch3zfJyIaDkBEkRQzX661DqU50ff97xOJxPoA1g8Sx5s9D5yVSO0QxPU0OIvPvhHZcRM7/By7CpnXP0TNQbvAqi1ZrK3TwJ6PhcdeAvlVx3sLN2eQHT8RNYfuAUomcps/l/9FT078CvXXPmBi7Tn5o+pQpQuJ6F4iWjNAiNellHcGzUMI8Xciug1t2JsHoJmIDpZSmryKjImpGH7zDaOUatZav+H7/r2JRCIDYCMAVWXMqUkpdTwCju21RyqVeldrfSIC/rnkp1/DXnu1yPoB3A8m5zaMAmFXgpszqNptqxCzqgzSz41F8yMvFfx53dAMK+XAHrYm4JW/8c+fvxiLT78WnAm+ZxPR0b7vTzaQVpskk8ntLMu6OkgMIjrL9/0gVxQJx3HuBnAelrM2N8BcZt5dSvmO4bgxMRWD1c7vLZJSXi6lHALgYiIq2YasGJj5XwBC7b5qaWmZy8zB7x2ZUXf+rR0eMYdF8+PFu662PP9mpI525aLlieJveZoffxXslv/en5WHuotuh19vREL+Mdd1C698SiSRSATa/AH8EHCGvpsQ4hVm/mPAPFrja8uytlZKVeyIdEyMCdorAJbQIKW81nXdIUR0FoBQx1/ys/+ho5R6mJnfChpHN6ex8MTL4S8uv55S9sPiX/LYlZCfTwshm8pBp7OQk78p+jl/7kL4s0tWnS4NZjRcdS/k5G8NhOJ5UspQ7/0BIJVK/Y6ZdwwSg5lvQolGXdXV1SsJIcYD2CNIDm3woZRyh2w2OzOE2DExFUUhBcASWlzXvV1KuSYzHwvAeHcxEb0npZxiOm4bcCKROBkGThu8GXOw6OQryvr2yFJBL6wv6Vmv3JtcmdFzF4G90rTz/bkLDWfTPk33Pov0q+8ZiUVEf0JArYtC0FoH0r1n5vmlyucKIYblPQPCaL55Tkq5K4DyfhHExEREMQXAEqRS6l9SyvWZ+TgAxb9qtQEzB9L9L5ZsNjudmf9iIpY78SssPuvG8vnFB1knIle78lH6n4/L+HeTfmk8mh4w5tHzUth6/8D/HPW2DhKDiG4HULS7UiqV2gk5N78wmm5ulFL+HiXkFRPTWSmlAFiCUko9KqUcRkT7AZgUMJfpUspnAsYoGqXUIwhoGbyE9CvvFNWUFwRKObB6dCvp2cTAvoazqSysvr0Aq7SesES/XoazaR13wpdoMPe18rMQIqgZTyEkmPm6gDGapJRFO2sJIQ7RWo8B0LPDDxeHT0R/klKej3jGP2YFw4Q7lnZddzSAlx3H2ZeZLwawZZExfCI6AyF2/reHlPJUIcTWAFYLGqvpvudg1dag+1lHGcisfZwR6yMz9qOinqFkAmKT9ULK6Fey4ych/eI4yC+/h15YD+rZDcnBg1C917aoPnBXkG3amO1XrO41sNcbAjV1elHPJXp1R3LwoJCy+hX1zUzUnX9rydcUy+FprY9sbm6ebyJYeziOcyozbxgwzD0Airq7EkJcCOBamO/0TwM40nXdFw3HjYnpFBidm/V9/1vf9x+wbft9rfVqRDS4gMc8Zv6zlPIpk7kUSZaIPiWioxHsVAQA4H44GVZtDZzNhhpIrW1ICKRfLs4ssXrfHVFz4C4hZQTo+iYsPOlyNN72ONTX06EX1YMzWei6Rngz5iDzxodIv/wOUlsOD/dt21XIvl3coVTNobvD2Wp4SAnlUN/MxKIzroVuDGzys4RLlFKB7K4LpFcikXgeQBARiWYhxOFSykL/8AnHce5CTpzM6ObPzPMB7KmUCiJkFBPTqQlFxs7zvOla60eJaCwRrYScLndr38Cfaa2P9DzvuTDyKAat9Y/JZDINYHcT8bLvfopE354QG4VnsWCvuQrcD76AP6ewlz+qctD3nxfD6lWycVu7cMbF/N+fCzlparuf03WNSI9+G9V7bA2rt3HVVgCAPXQNpF99F7qusNE6q3cP9LzqDFhVTij5AEtt/svLNZfOGCnlGSjD0bVt29cbkAq/OZPJFDqiWCOEeAZAGEdp31mWtUsZG45jYioS00dqrZJKpQYz8/5a67Usy0ow82yt9TjP8z5Chd27CSGeAnCYkWBE6HnpKeh20kFGwrWGP3ch5h9+Przpc9pPxU6iz50XoWrv7ULLpf7Ke4tqahMbr4sBL94OUDhfhurbHzH/iAugF9S1+zmrtgq9bj0fTohXI+rbH7H49GtNzfoDwGwp5SYoQ8e6EGIYgM8RTGa3Xkq5BoD2/zEA1NTUDFBKjQYwIsB6bfGhlHI/xJ3+MTHhnAAsj+d59b7vf6y1HuP7/iu+77+rta5IO03f98ckEon9ABhx+sm+/UlOMnj7cCSDrdpqVO+3E/SiBqhp01stp8QGa6HP3RcjtWMo9goAAL+uEYv/cj1QxL22P3cRUiPWR3L1lULJKdGnJ2r23QHerLnwfmj9y01sNhS9bzwXYtgaoeQAhLL5e1rrfbXWxiZw2sOyrCeIaO2AYa71ff/1jj7kOM66vu+/hYCGXW3wvJTyAADG/iFiYjozZTkB6Gw4jrMOM38Mgx3H3U4/DD0vOD60t10gZyObGT8R/qx5YKWQ6NcbYsT6EBuE4Yy6LOlRb2HRmdcX/VztMSPR6+o/hZDRsvhz5iP9+gfw58wDNMPq2xPOFhuGVnwsQX7yNRb/9RboRnPmQsx8qlKqLIJZeZOdR4LEIKKFruuuiQ42Xtu2t7Is6yVm7hdkvdbIu/mdjRLFh2JiuiLhtWJ3YlzX/TaZTO5vWdYbAIxcCjfd9TT0/EXodf3ZoXXAW317ouaQ3UKJ3RFy6g8lPadKfK5YqEc3VO+7Q1nWWkLmzY9R//d/gl0jVvdLuL5cm39tbW1/KeXNBkJdhQ42fyHEIQAeY2bTTqSaiM6TUt5qOG5MTKcncMd7V8XzvHcAHAeDPQotz47FgqP/FpnVbJhwiV3tfl2otg8AAG7JgNPl1Xdpeeo11F10u+nN/xkp5d9MBmwPKeVtAPoEDDPNdd272/uA4zhnIqfFYXrzdwEc5bpuvPnHxLRCXAC0Q3408QqTMd0PJmP+QWfDmzXXZNjIoZrSjBUT3WsMZ7IsujkN3VK+zZ99Hw3XPoCGmx41qrhIRO9LKY9BmY6wHcfZC8ARQeMQ0TkA2qqCSAhxPTPfBvM/ixZrrXeLeLw4JqaiiQuADpBSXgngYZMx1Xc/Yf6+f0b2nU9Nho2UZImWyPZ6Qwxn8ivcnAang9vrFoqua8TiP1+HlueNj5Z/57ruAQDK9YfpbkiW+7V2HP+qhBDPAjjfwDrLM52ItvE8790QYsfEdBniAqBjWEp5MgCjOut+XSMWHHsxGv/vKYArahKyJKp2GgFKFj9UktplC/PJMKCbWqDLuPm7n0/D/CMvhDvhS6NxiWgBEe2NMo6tCSHuRHBVTA/AX9v4vd6O47wBIIz52Im2bW/jum5ZJiRiYjoz8RRA4QghxPMA9jEduGr3rdH7pnNh9SxN279SWHzOjWh5dmzBn0+uuSpWGnsfkDBZhzJ0Q7Ppu/d2lmM0P/YyGv/5NOAbkfb9H0S0gJl3LadgjRDicABPBo3DzLcqpc5Z/tcdx1mTmccACDpW2BqjpZRHADAmsxgCNTU1NbW+79f4vt+LmWuTyaTNzNXM3FrDsWdZVhMAeJ6XIaIsAJ1MJhdlMplFqOw/a0yFExcAxSGEEC8hBB9yq29P9Lnlr0jttLnp0GXDr2vEvD1Ph//Lgg4/S45Av//caFZ8RzN0QxNYeeZitrdccxr1V96L7FsTjMeOYvOvqqpazff9yQg+/jpLSjkMwDLdrrZtb2lZ1ugwxvyI6G7Xdf8MwGwVVjgpx3FWB7BaXgZ9deRcC/sipykyIP//pTXLtE0GOQvoRcy8KP91M8+yrBnMPGvIsgYAACAASURBVJOZZyqlZgBoMLxuTBcgLgCKp9ZxnJeZeUfjkS1Ct1MOQY+/HheqWU6YeLPmYuHxf4f69sc2P5Po3QN97roYzjYbGVuXfQ1uaDJlsNMh7nufoe6a+ztUGSyFKDZ/5HT332JmE7OSB0gplzHYEULsD+AJBPMSaA0GcJGUsngRitLonUqlNmbmoVrr9YhoHQDrIHdlUslXqnUAZgL4AcCXAL4goi9c152OClNjjSkfcQFQGtVCiOcA7BlGcHvYGuh9w9kQw8PzEQgTVh5annoNmdFvQ37xLXQ6CxI2kmuugqo9t0W34w8wet3BSoHrm8Fl6KXQDc1ovOUxpF95J5T4+c3/d1LKL0JZoA2EEBcDuNpAqFFSymXu9h3HOYOZb4d55VEXwPFSysBXFm3Qz3GcrZh5BICNAGwMA46hFUYTgC+JaIrW+nMAHyqlpiC6k5SYMhIXAKUj8r4BB4YSPWGh2wkHoMd5x4FCNKgpB5xxQ/szcDqbG/Mrw+afHT8J9dc9CL2wKDfbgiGihfk3/7Ju/qlUahet9esILgzWlEgkhmUymSW6yySEuB5tNwMGoc6yrIOy2ex4UwGFEEOZeWci2grAVginT6Ez0MTMHxHR+5ZlvZ/NZj9GrlCI6WLEBUAwkkKIRxCOY1lugVUHotfVf0Jq5zB8UToxzNDNaXDGDX0pf/5iNN72b2Te+DDMZaYT0d7l7l6vqqpaVWv9iYl7eWY+XSm1RPTHEUI8ClPGWsvyI4C9pZTt2052QCqVWt33/d/lXQ53ARCuLnTnxQcwGcAbWuvXPM97H7kpj5hOTlwABIeEEJcBuCzMRZztNkGvy06Fve7gMJfpFLDvgxuaQ7/v56yLlqdfR/ODo8IeKZxo2/bIlpaWeWEu0gq24zjjmHnboIGYeaxSanfk7pN7OY4zKpQ+GWBKIpHYe6lThmJI2La9MRGNBLAvgE0R/wwshRZm/tCyrJctyxqVyWR+ijqhmNKIv/gNYdv2qUR0J0L0VyA7idpj90P3M4+E1aNzjwyWCmdd6KZ0uEf+mpEe/TYa7346tOP+pXhJSnkkIhjnchznXmY+xUCo+kQisWEmk5mdSqUGa61fBTDUQNzleU1KeSiKO45OCSH2AHAIcpu+MYOvmP8xGcCzRPS067rfRZ1MTOHEBYBBHMfZi5mfBhDq7mz1qEW3Ew9C7YkHwupmuqm6QtEauikNdmWoy7gfTkbj/z0F9c3MUNcBAGb+p1LqTETQcGXb9olE9ICJWMx8jFLqMdu2NyOilwEMNBF3aYjoQdd1T0VhR89CCLE3gEOR2/RXzGo5Gj4D8B/Lsp7OZrMzok4mpn3iAsAwtm1vRESjAISncZsn0as7uv3xENQcux+sErX4OwVSwW9sNqqtvwyakR0/EU0PvQA1rSw/szQRXeC67k3lWGx5UqnUzlrr1wAIA+FGSSkPchxn73zxW2sg5tIwgMuklFd18DlKJpNbJxKJPzDzYQB6G84jpngmEtETrus+hpxWQUyFERcA4dBdCPEvAPuXYzGrWzWqD9kN3U87FImBfcuxZHkIu9FPMzJvfYyme5+FN2NOOGssBxEtBPAH13VfL8uCyyGEGAbgfZg5Cp8tpdzEtu0DiegumL/+Usx8slLq0bY+UFNTM0ApdTyAEwGsZXj9GDO4AJ63LOv+/NRGrDtQIcQFQHhYQogrAFyMMv09k7BRfeAu6HbigaGa7JQDdiV0U0sob/16cQPSo99Gy7NjC1ItNAURvWdZ1uGZTKY81cZv6SeE+ABmNkptWdZuWusdEE4DbDMRHdqWmZBt25tZlnUKMx8N8+p6MeHxPYAHbNt+JIKm15jliAuAkHEcZyQzP4zgvurFrbvpUNQcsReqRu4Iq9q0zXp4sPJyLn6m5Xw1w53wJdKj3kT27UllUwzMwwBuklL+DdGNT1ULIcYDMDVPehWAwQCONhRvaeYgN+a3vB5ClW3bRxPRmQCGhbBuTPmQAP7DzDcrpT6POpkVlbgAKANVVVUre573KBHtWu61rW7VqB65E6r33wnOFhsaNt4xBzPnNv6sa/SA0J89D5k3PkTLC2/B/7l8b/tLUUdEx7mu+1IUi+dJ5pUr9zMUbxIzNxPRTobiLc1vxvyqq6sHeZ53BhGdwsxd6I4rBsiNkFqWdZPrum8gvh4oK3EBUD4sx3HOYeZrYKb5qvgE+vVC9d7bo3rkjnA2HwZYFVAMMOfU/NIZY9/66vufkH1rIrLjJkB9F92IMjO/mUgkTspmszMjSyJ3FfUvmBOrYiJaFMZGzMxvKqUORt64JpVKrcHM5zPzcQA6txxmTCFMYeZblFJPIHdCEBMycQFQZmzb3oSIHgWwYZR5JHr3gLP9pkjtuDmqdtocVt/yj0dzxs3J+GodOI6c8h3cj75AdtwEeLMiv1psZOa/KqXuR7RvNOQ4zt3M/McIcyiUx6SUJwGQQoihAC4CcARC1NWIkDTyDn4AfGauR66w8vBbjYMEM3cHAMuyqpg5BaCGiPowcx9UtgFRqcxi5quVUg8DKJOv94pJXABEgy2EuBC5BsHo32yIYA8dAmfEBnA2HwZniw2QWMm4Y2sOZuiMC2SyYL+0jV+3ZKAmfwP3k68hP5sGNfWHct/pt8driUTilEwmMyvqRGzbvpmIzok6jwK4Wkr5d8dx1mTmy5Hb+DvjxuYht3nNJKKZAGYw88xEIvGz7/sLk8nkokwmswg5C19T9HEcp4/v+30SiURfAKtrrQcT0RDkejSGAOhlcL1yMoOZr1BK/RuxOVEoxAVAhAgh1iOi+5l5u6hzWZ7EoH4Qw9eBvd5g2OsNgRi6BpKrr1T6tYFm6EwWnM4WruLHDP+XhVDf/wTvh9lQ3/0E74dZUDPmBD41CIF6Zj4n/9YSOUKIyxGyPLUBPGY+PZlMvqa1voSZjwdgR51UAXgAvgMwBcBkIppCRF9ms9lZqEyN/B62ba+NnKPhhgA2JKKNUObG5AB8A+AKKeXTACruG78zExcA0WPZtn2yZVlXV3qDEzkCiVUGILnqACRXWwnJVQcg0b8PrF7dYfXujkTvHqBe3ZcVJfI86LSbU/DLb/yccXMWvmkXnM7AX1AHf0Ed9PzF8BfWwZ+3GHphHbyZP+euCCobDeDxZDJ5YTqd/jnqZIBOs/k3AzgJwCYAzgRQyaMq3wP4gJnfBzBJKTUVQKjmEOWgurp6kO/7GzHzVsy8HRFtAfNCTiaZQkTnuq7736gT6SrEBUDl0NO27cuI6Ax0jregDrFqq5c5MWDXBbtd50qPiN7VWp+jlJoUdS55yLbtG4no3KgTaQ8iWgBglNb6ACLqH3U+y6EBfMrM7xLRe7Ztf9DS0jI36qTKRNK27Y0sy9qWmbclop1NuESGwEtEdF7sOxCcuACoMBzHWTs/KfD7qHOJaZOfmPlSpdRjqJyxJctxnLs6ScNfEypIn5+IFjLzGwDGSClfBxDJvGgFYtm2vTkR7QlgL+Q0JBIR57QECeB2KeXVABqjTqazEhcAFUoqldqJma+qxP6AFZg6IrrGdd07UVljSkkhxMMA/hB1Ip2IrwE8w8yvKqUmIr5bLoQ+QojdkZM43xdATcT5gJnnAbhEKfUgKqcY7zTEBUCFk0wmt0skEtcw8w5R57KiQkQLmPkuKeVtAEL3By6SaiHEEyiT70Qn5zsATwP4j5RyStTJdHKqhRD7Iue4uDcilmMmoneZ+RQp5bQo8+hsxAVAJ8FxnH0BXBCfCJSVWUR0o+u6D8Ds6JYRamtr+0spXwKwZdS5VDC/AHiMmZ9SSn0WdTJdlG5CiJHInUDtgehGOLPIjZTegFg/oCDiAqCTYdv2pkR0FrquSEolMIOIbndd915UaLe34zhrMfOrANaOOpcKRDPzW0R0n5TyBcSbQdnIyzYfDeBU5HQIomBK3kXy44jW7zTEBUAnxXGcNbXWfyGio9F5hT4qCQ/Ay0R0f96qt2KFR5LJ5I6WZY1C/O++PLMBPJRIJB7MZDLRaUDHAEDCcZw9mflkAPug/C8rPjPfrpS6GBVaxFcCcQHQ+XGEEPsx8yl5s6H437Q4ZgN4PJFI3NUZNg3bto8jonsRkZ9EhfIJgJullM+gMoV4VmhSqdRg3/fPJKITUf7pjykAjop7Plon3iy6EI7jrJtXUzsM0R2/dQYyyL3tP+C67lh0jg7wpBDiagAXRJ1IhcDM/KZlWXe4rjs66mRiCqKb4zgnMPO5AFYt47pZAJdLKW9E5/heLxtxAdBFEUKsj5yWwNEA1og4nUogDeAtZn5GKTUKvzVdqViqqqpW9n3/GQBbR51LBeABeAzAjVLKr6NOJqYkhG3bhxPR3wCsW8Z1X7Nt+/gVSNipQ+ICoOtjJZPJrSzL2hvAngA2xQry755XnHsRwPOu674FwI04paJJJpM7EtHTRDQg6lwiRgN4goiujBXgugwJ27b/QER/R5leUph5vmVZx7uu+2o51qt0VoiNIAC9HMfZQms90LKsha7rfoSchWenpaamZoCUcg8i2gPADgBWiTonU+QV3d4lore11u8opSaj8x75WUKI8wBcgxV72oMBPIvcEe7UqJOJCQXbtu3jiehiAKuVYT0N4Cop5ZXovD8fjBAXAK2QP3K9Drkj9KXtej0ALxLRha7rfh9Ndmapqqpazff97Ylom7zGwDB0jg2HAcwAMJGZ3yGit/MbRKdXA6uqqlrF87xHiWiXqHOJmDeY+fx8IRfT9XEcx/kjM18GoHcZ1ntFSnk0gLoyrFWRxAXAciSTyR0sy3oe7VtlukR0qeu6N6PrVZCObdvDkLMM3RDAcABDAayMiAQ+mHk+ct28X+b/+yLvyNYcRT5hIoQ4GMB9KM8PwErlu7zrW9zct2LS27bty4noNIT/MvIDgIOklF+EvE5FEhcASyGEGA7gPRQ4qkJE7xHRsdlsdnq4mVUEwnGc1QAM0VoPJqLViGggM/chor7M3Cf//90AVHcQqwU5Lf1m5ERa6gHMIaI5zPwLM8+yLGsuM8+SUv4MYHGof7LKoNZxnNuY+cSoE4mQBiK62nXdO1BZXgsxESCEGAbgVgC7h7xUGsApUsrHQ16n4ogLgF9JCiEmAdioyOeamflcpdT96ALHz4bpgWVPDTKIRTl+g+M4uzHzPVhxpzWYiB6ybftvzc3N86NOJqaycBxnJDPfDmBIyEtdI6W8FCvQz/G4AMgjhDgKwL9LfZ6Z37Is69S4QzmmCPoIIW4GcGzUiUTI95ZlnZzNZsdHnUhMRVNt2/ZVRHQmwrUkfkJKeQI64cRQKURl2lCJHB3kYSLahZm/EEJcDMA2lFNMF0UIcYRt21Ox4m7+HoDrpZTD480/pgDSSqlzmXlrAGE2hR7pOM4bWEF6cOITgDxCiDoAPQ2F+0prfarnee8ZihfTRXAcZ21mvg05C9UVlU+Z+aTYne83CAA1rfy6BtBQ5lwqGVsI8VcAlwJIhbTGN0S0j+u6P4QUvyKIC4AcJIQw3c3PAJ5OJBLnZzKZWYZjx3Q+ugshLgFwJlZcHX8fwD+klFdgxdDs723b9mAiGkJEg7XWqxJRH+QmjPoA6IecoVOhLx5pAI35/+oBzCeiucz8CxHNAzCDmadLKWdgBTjCzqudPoHcpJJxiGiB1nofpdTEMOJXAnEBkEcIUY9c05pp0sgddd6ICvSUjwkdy7btEwBcvYKr+c3UWh/dRU/F+qVSqeHMPJyZhwPYEDmb5u4R5cMAZjPzNOTGZr8CMEUpNQVd72eQY9v2P/IW6WHsZ41a65Ge570TQuzIiQuAPEKI1xHuuMlPzHyZUuoxVLDVbIw5UqnUrlrrG5CTX16ReVxKeQa6xjG2bdv2ZpZlbZ0XztoKwKCokyoQD8AUIvpYaz3Bsqz3ukrTsuM4ezDzwwBWCiF8mogOytuEdyniAiCPEOJAAM+XYamvAVwipRyFFWjcZEUimUxuR0RXEdFOUecSMU0ATuvk89WWbdubENFeRLQbM48AUBV1UgaZA2AcM49PJpOvZzKZ2VEnFIB+QoiHAOwbQmwXwOFSyhdCiB0ZcQHwKySEeB7AAWVabyIRXea67pgyrRcTMrZtb0FEVwLYI+pcKoBvkFNY64z6/T2EEHsB2IuZ91jBrm4+B/Cq1vplz/M+RudTOqV8r83lMD/l5gE4Vkr5hOG4kREXAMvS3bbtUWXWYP8UwLX5E4HO9s0WAyCZTG5jWdaFAEZGnUuFMEpKeRxyzWqdhSrHcX7HzL8HcDA6VrPs8uTNtcYQ0TN597xOc3XpOM6ezPw4zI/zaWY+USn1iOG4kRAXAL9F2LZ9XV5wopw6CV8z83VKqacQy6B2BiwhxP4AzgOwTdTJVAg+gEullNehc1xvJRzH2YeZj0FuLLMrHe2bZjaAx4joUdd1v4k6mUJIpVJDtNbPA9jYcGgfwJFSyv8Yjlt24gKgDZLJ5I6WZT0CYHCZl/4FwD22bd/b0tIyr8xrx3RMlW3bxxLROch1esfkqCeiw1zXfSPqRDoilUoN1lqfCOB45EyuYorjA2Z+SCn1JHJTTpVMlRDiAQBHGo6r8o2BLxuOW1biAqB9ujuOc0tEBi0ugKeZ+f+68hxqZ0EIMYyZTyKiY9C+U+SKyEwA+1T4fT85jrM3M/8ZwG6IVVBNUMfMDyUSibsq3BCNhBBXArjEcNysZVn7ZrPZNw3HLRtxAVAAjuPsy8x3A1glohS+IKIHXdd9HMCiiHJYEam2bftQy7JOYuZto06mQplo2/Z+LS0tc6NOpA0c27aPJqKzAQyLOpkuigYwWmt9ved5H0adTFvYtn08Ed0Ls1LtLVrrPTzPe99gzLIRFwCF09227WuI6HRE9/bgAniBiB5zXfe/iHsFwsBKJpPbJxKJI5j5cIQjDtVVeFFKeRRy9s6VRg8hxJ+Z+U8rWBd/pBDROwCuz083VVwfSF6b4zmY/b5uYOYdlVJhehSEQlwAFIlt21sS0X0ISX6yCBYT0SgieiqbzY5DJ+rQrUAomUxuQ0SHEtEh6DzCLpHBzHcqpc5G5X3d1TiOc5LW+m9E1D/qZFZgvgBwtZTymagTWZ68hPAYAKsaDDs7kUhslclk5hiMGTpxAVAathDiHOTulGqjToaZ51uWNZqZX5FSvoHKfCOrNJxUKrWd7/v75Dd9kz8MujrXSClN36cGpcpxnNMAXMjM/aJOJiYHEb3v+/7Fnue9HXUuS5NvBB0LYE2DYSdLKbdHTgCrUxAXAAGorq4e5HnetQCOQeX8XboAxhPRy8z8ppTy66gTqhRSqdRg3/f3IqI9AeyCCijelqIR0WnHF8PfpJT/iDqJpXEcZyQz34HyT+zEFAgzjyWis6SUX0WdyxLyP7/HAhhqMOxrUsqR6CRmV5WyaXVq8gpwtyOnC15p/ALgLWYeZ1nW+K5ub7k0qVRqDd/3t7Usa1tm3hHAelHn1ApfM/Ob+emCSi4AmIjOcl33jqgTWYJt2yPy33dbR52LCQQlUG0ll7k5r9ddytRPMfNdSqkrANRFnUyefnkfmE1MBSSie13XPdVUvDCJCwBzkBDiCABXAVgj6mTagogWMPPHAD4mogmu605Azlq0s9MtmUxukEgktsh37G+Lyr7Ln8PMlwPQRHQPzHYmm0Yz8ylKqQejTgQAamtr+0spbwBwNCp8nK+fXY3BVT2xutMDg1M9sVqqOwaKWvROVqGPXYU+ohq9kynYlPjfM35LFl5zGn4mt/l7rNHMChIaae0hrT3M9lswx2vGHD+NOX4LZqlm/OKn8bPfgixXWlvGsjDzfAB/zRujVUKjYE8hxBgYfIEjovNd173RVLywiAsA8wjbtk8ioksQjjNVGPyEnG3oFwCmMPNUpdT3AJqjTatVUkKIIQA2QK4Rc8P8f0PQOb6e65Gzh75DCHEugCtQ2XkzM59cKZu/bdvHENEtqDAthiRZGF47ABvVDsCGNf2xQU0/bFjTH73t0sUFtfLgNTTDay7cwdcH43vVgC/kIkyWizBFLsYUtRh1fuWdJBDR28x8WoVcU3YXQowFMMJQPJ+I9ql0B8FK/sHT2akWQvwFwPkAekWdTCkw83wi+gHADwBmMPNcIpqjtZ5v2/bsTCYzH7meA1N0S6VSfXzf72dZVh+t9SAiGgJgMBENYeYhyBVVnfHr1mXmfyqlrgXQ4DjOPREJTBUFEf3Fdd07o84jL+t6D8K17C6Y7kkH23RfBVv3WAXb9FgVm9euhOpEOIc47PlQDS3wmtMAl/bCPMtrxmdyId7O/oJxmTmY4VVMn5oL4Mr8iU7U9+a9hRDjYG7Ca5FlWZtns9mZhuIZpzP+IO1s9BBCnM7MZ3XRsaQsMzcSUQOARmauAwAiSqOV4oCZewIgy7IcZq4G4CD3NtcHgChj3uUizcwPJJPJmzKZzCwAtUKIZwDsGXViBXBRXtc/SshxnD8x8z8A1ESZyIY1/bF77zWwZ5+1sHX3lZc5ti8HuUKgGV5TcPXdGV4TxmXmYHz2Z7yT/QUNOnJJkUkAjpdSfhllEjU1NQOUUm8DWNdQyM+klNsCKPwYp4zEBUD5qHYc5yRmPg/xyNmKQCOAfwohbmtubp4PANXV1St5nvcKDDYcLSHf22Fy/O1qKeWlBuMVTU1NzUCl1MOIqFgiACO6r4xD+g3Fwf3WwypOZfRosudB1jXBb8kaieeD8WF2Hp5NT8eLLTOjbDx0mfkvSqn7okoAAKqqqlb1ff8dmJsqeTTvjllxxAVA+RG2bR9FRGchejGhGPP8RER3uq57P4CGJb8ohBgG4FUAq4ew5kvIjTIZMSdi5juUUmeaiFUqjuOMBPBgFDP961b3wTEDh+P3/YZh9VTlCkFqqSAXN0Jnzb29u+xjbGYOnmn5Aa9nZkXVUBj5yZPjOGsy83sABpqIx8xnKKXuMhHLJHEBECGpVGpnrfWfAewHoLzniTGm+RjArVLK57DcXWbeWXIUwukFuZGIehvsJ3hBSnkwcvruUeDYtn1zXnK7bD+fUlYSB/cbihMGboTteq5WrmUNwPBaslCLm8C+2c26UUuMTv+IB5un4TN3odHYHaC11jt7nvdOORddnvyY6XgA1QbCSWbeRin1iYFYxogLgAog3+B0OhEdG6uYdSqaiehJrfV9SqlJrX0gPxr6MHK9DibxiehMZl4M4AlDMSdIKXdGRBavVVVVq/i+/wzKqKexitMdf1plBI4bMBy9AnTsRw1rDVWf7w8osVGwPT7IzsXdTVPxavon6DJM7jHzW0qpXUNfqAOEEPsDeA5mXtC+kVJuhgpSao0LgMpCCCH2A3ACct3O8alAZfIJM9+vlHoC7ch+CiEuAPAPmP8+SwM4koimMvMnALoZiDnDtu2tW1pa5hmIVTTJZHJ7y7L+A0NHrh0xvHYAzlxlCxzWf1jZm/nCRGdl7lpAqlDi/+g14+GmaXik+ZuwGwdZStkHFSAY5DjOX5j5dhOxiOh+13VPMRHLBHEBUKHk34aOB3AUzHWkxpTObACPA3isADnThOM4dzLzaaaTyIuo7KeU+kQI8QHMzC3XAdg2qnlsx3HOZuYbACTDXmtE90H4++AdsHuvitXqCg4zVH0zVGNLKKcBANCgJR5o+hp3NH6JxpAKAWbeWin1USjBi8S27duIyFRfzEFSylGGYgUiLgA6AbZtb0xEhwM4DLHeedkgogXI2S8/nXdcLORevEYI8SSAkSGk9B0R7eW67g9CiEsBXGkgpm9Z1p7ZbHasgVjFkswXSqHLpm5UOwCXDd4B+/Qx0ifZKdCuhLugAeyFN16/2M/ilsYv8EDTNLiGGwaZeSul1MdGg5ZOQggxGsBeBmItSiaTw9Pp9M8GYgUiLgA6F5S3Iz4YuQ0mPhkwzy9E9AIRPZvNZt9GEXa3eYna0QC2CCGvD6SU+wNYaNv2JkT0MczIB18opbzeQJxi6SaEeBpmfqC2yapOd1y7xi74ff+hoBXxxx1ryEVNORGhEJntt+Da+k/xdPMPxnoE8lcAi40EM0MvIcQkGJB6Z+axSqk9EF2zLYC4AOjU5M1ufkdEI5HrGeiKQjrlYCqA0Vrrlz3P+wAlfFPmx4bGwNAo3nK8IKU8EjkxEUcIMRE5+eOgvCilPBBl1mOvqqpa2ff9lwFsHNYa1Qkb5626Nc5ZdUtUWZVss1AevOYM5KKG0K4EljBV1uHvdRPxZnZO0FATpZRhFNKBEEIMB/AhDEwGMPPpSqm7g2dVOnEB0HXo4TjODlrrXYhoF+Q2iPjft3WmE9E4Zh5n2/bYoI1vyWRyW8uyXkQI+vTMfLtS6hzkixIhxPXIyUsH5Wsp5ZYos3e54zhrM/NYAKHN2h3Ubz3ctOZuWNkx0RvZddDKg5xfD63CaRBcmudapuPCxR9joS5NrIiZj1NKPWo4LSMIIf4A4DEDoRoTicT6mUxmtoFYJRFvEF2XvkKInZh5eyLaAjn1OdOjaJ0BH8BXRPSh1vrDRCIxPpvN/mgquBDiYAD/BpAyFTOPJqLzXNe9dckv2La9KRFNQPDpkCYAW0gppwWMUxRCiPUB/BchmWStJGpx5zp7YmSfdcIIX1bSvgrHW4A13IWN8FvCV6at811cXD8BTzV/X9QR0xDR4+dvmhesioiPx9vDtu07iehPBkK9lL/ai4S4AFhxELZtb2JZ1pbMPAI5FcKhqGwb2mLRAL4DMBnAZ5ZlTcxmsxMQ0ltuvnv9Jpi3pM0COFpK+exSv5YQQnwEYHMD8Y+QUj5lIE7B2La9qWVZrzNzX9OxCcCJgzbBtUN2Ro+k6TqsPMxxm3DH7Al4edF3+DHbAMU+uicdbNltZfxh4IY4rP8wgz0MDFXfAlVfnsOf8dmfcfaiDzCzAAOi1ZO1eH3gvhjUrdd7zuTbd6TKLQLs/BSOie/Hw6SU/zEQp2jiAmDFxhZCrIdfrXXXQ67BZU1EbLzSAR6A6QCmJWPLZwAAIABJREFUAfiGmb8B8JVSagrKI7Jh2bZ9i8GxoKVZpLXe3/O895f+RcdxzmTm2wzE/5eU8lgDcQrGtu2tiGgMgJ6mYw+wa/DA0JGdeqzvqflf4fRvx6DFb3ucbtseq+KZ9Q9GH9uEKF0OvyUDd1EDoMNvAUmzh+vqP8O9TVMhufU9fTtnIB7svxP6WzlBJislZqUSfYbT55fXh55gCTiOsw4zf4rgPyvnSinXRwQNj3EBENMqNTU1A1zXXdOyrDWIaKW8Ne8AIlqZmfsDGIBwpG2bAMwFsADAAiKay8yzmflHZv4xmUzOymazswGEf5HZOlVCiH8DOCiE2NOJaG/Xdb9ZZsGcJsRUBBf8mS6l3AQ5o6KykL+2eAuAcVH9ffusjXvW2Rv9RCXXqu3z0sJvcdjU56ALaM7bqHYA3tnkWKQsc3IJ2lVw59cZlxFui5leEx5qmoa3sj9jnp9GDSUxXPTBEbVrYc+q1X6zIVki2WR1T23hfHhzWa+rCsW27ZOI6H4DoR6WUp5gIE5RxAVATFC6V1VV9fB9v7vWukcymawGAGauZuZWew6IqIGItOd5acuymi3Las5ms/XIvb1HZkVWAH2FEC8C2CaE2BNt2x7ZWkOiEGIUgAMCxve01jt4nvdhwDgFI4RYn4jGmz72d6wkblhjV5y68mYmw5adBi+LYRPuwUJV+Ije31bfDpcN3sFoHlp5cOcuLlsRUCyUTEq7NrWbPfHmSL0B2kII8RyCvxBw3iugrMJHcQEQE1MAeb+GMQhHe+F1KeXv0UqvQiqV2lVrbUKk53Ip5RUG4hSE4zhrMfM7MNzwN0h0w1PrH4Qtu69sMmwk3DlnIs77/r9FPdPLrsKMrf5kfLSRfR/uvMXQMjzRoCBQIuFb3aoPTE28aXTUubRCLyHEZAS3ef8kP/pYtr4H081LMTFdDtu2t/B9/yOEsPkT0d1Syn3QeqNiUmttQoN8opTyGgNxCqKqqmoVZn4Thjf/HXuujgmbn9glNn8AeGXhd0U/U6cy+LjRvIAcJRJwBvSBJSpTSoR9P6EbW15wR5x5WNS5tEIdEZ1sIM5mtm3/wUCcgokLgJiYdhBC7E9E44iov+HQDOAK13VPRxtqg47j/BHA+gHX8Zj5j1jOojhEuuVFfozO+Z86aDO8OvwI9DPYBBc1U1sWlPTcly3zDWeSgxIWnAG9YInKHAxirS2/0X1Sjjj7+KhzWR7XdV8H8C8DoW4A0N1AnIKIC4CYmDawbfskAM/CjB/40kjkxvwub+czPQG09/uFcp1S6jMDcQohIYR4HMBGpgISgEtW3x63r70HktS1flw1lWii0+iF1yZDCQvOwN6wnAo9CdBMXmPmQbnJuUdHncvySCnPyZt1lQwRDRBCmBD6Koiu9R0VE2MGEkLckO/uNe1QV2dZ1h5Sysfb+5Bt25caaJ6bVs6jf8dx7oBBE6SUlcS/hh6ASwdvbypkRdEzUZpmQW+7ynAmy0JWpZ8EMHnp9KMVeB2wiIjOMhDn3FQqNdhAnA4J3X4zJqaT4QghHgJwZAix5zDzPtlsdnJ7H6qqqlrN9/0zAq6ltdanICcqFDqO45zLzKebitczmcILGxyKrXusYipkq3zWNBcfNM7GPNkMmxJYPdUDe/ZZE/3t8EcLN6odgJ8XFy/Gs1HNgBCyWRYmwqRUCybUTcc82YwqK4k1k92xa9XK6GlFLyjKWpPfKJ/Ibn5OU2rSLa9Gnc8SpJRPCiEOB7BfgDAprfUVAELX64inAGJifqWX4zgvMLPZOascnyWTyX3S6fQvHX1QCPEggEAzwUR0r+u6odvsAkAqldpZa/0GDL1Q9LKrMHqDwzCi+yAT4Vrlg4ZZOOv7NzC5+bc2EBYR/jBgQ/xjjV3QN8Seg4d++RynfVvc3jVIdMO3W50Om4KqQbfNq4u+x7nf/xfTs3W/+T1BFk7uNhQX9dgUNQb1CEqFkgkvWdV9K/HpdZ9EncsS8gX8VAQTCPIBbBC2XHdcAMTEAEilUoO11q8iJ49slLz158EoQIAnb5YzFcE20zop5ToAFgaIURBVVVWraq0/YeZ+JuL1t2swZqMjsEGN6Z7LXxm1cBqO+fpFSN3+3PvaVb3x+kZHhWYqlNUeNpxwL35yGwp+5pa1dscZK5tQn22du36ehHO+e6ND7f4RTn882383dLei7xWw7ESWa3qtUz3xmllR57IEIcQlAK4KGOZpKeXhJvJpi7gHIGaFRwgxXGv9LkLY/AE8opTaGwWq7zHzlQj4Jk1El6EMmz8Ax/f9Z01t/gNFLd7a5OhQN/9v04twwrTRHW7+APBdZjGOnfZiQSp9pZCyknh4vZEFK/vt1msNnDYoPPGjd+t/wrnf/7cg456J7nycu7hsmlLtopWfokzjp7zT5RVjBCGlvAnAzIBhDrVt21hDbWvEBUDMCo3jOLsBeBeA6ctmBnCFlPJ4FChbLITYAMChAdf92nXdewLGKAjHcW4HYMSzva9djTHDj8DaVb1NhGuTy2e+g7RfuIr0u/U/4eVFxc/rF8p2PVfDSxsehkGi/VOGowZsiGc3OAQWhXdo+7cZ44oqdp5tmY5P3XLUmR2jXdnXXbyo3d6aMpNFcNtuyhfzoREXADErLLZtn8TMr8L83K1i5uM7GPNrjcsQ8HuSiM5BGXwShBAH5PUFAtMjmcJLGx6GYTVGDhLapMHL4sWF33T8weV4dG64+8qOPVfHlC3+iNvW3gO79hqCNat6ob9dg+G1A3DKoE0xfuNj8FARJwWlMLVlASY0zin6uadavg8hm9LwM3Idd+Ozn486jyVIKZ8horcDhjnAtu3Qjn2i7+KIiSk/JIS4EsAlIcRuJKJDpJRFabzmncWC6om/4rruawFjdEh1dfUg3/fvZwNH49UJGy9ucCg262ZUNLBVPm76GV4bTnTt8WEJG2Ox1CYEThu0WahH/O3xfkNp1+cfub9toowSryV9oNzsnL+IT265I+pcAEBrfRYRTQJQatcmEdGlCO4F0irxCUDMioYQQjyKcDb/OQC2d123OIH3HOch2PejBnBBgOcLhZRSj5gw+LGI8Mh6+4U+6reEn7PFj9wBwCKVRkZHZT5ZHn6RzaU95xduZFQuvJbMrXLTC/9XSVVXV68khDjYcZy/2LZ9om3bm6BMe59S6nMA7Wp+FMBIx3HC8CCJC4CYFYravJtfGCpiXyUSiW2klF8U+2BNTc1AZg6a05NSyq8CxugQx3HOJKLdTMS6Yc3fYf++ofxca5VS788JQKKL/6gs9e8mUYGDZOxry3dbxm3crf+2QogxnufNBvAsM99ORA8Q0adCiMmO4+xZjnwsy7oMOfXPkkMAONtQOr8JHBPT5amurh4khHgXgPFvemZ+S0q5bSaT+amU55VS5wII0sHsE1HQkaMOyTv8GVEWPH3Q5vjzyiNMhCqY1VI9SnpugKiFsMKbu68EVnNK+7tZNVlrOBMz/N+iz7p9KxuXfL+3ts9twMyvOI5jQrmvXbLZ7EwiCuQTwMzH1dTUDDSV0xLiAiCmyyOEGO553gQAG4cQ/jGl1F4ACh/mXpbuAE4JmMO/XNctvrutOEhrfS8M+CLs3HMwblrrdwZSKo4R3VYqqZFux56rh5BNZbFDz9VKepffvqbynBn/2fgVLl48AR7rjv5IFjPf7DiOMfnqNheyrKsABDFxcJRSp5nKZwlxARDTpUmlUrsCeAeA8Z9UzHyHlPJYBDjecxznOASbQlCWZV0d4PmCsG37BCLaJWicVZ3ueGzo/khEYOxTkxA4YsAGRT930qBNQsimshic6oldeg0p6hmLCCetscX/s3fmAVIV1xr/6t6+dXv2GRhW2VFkEfcogiKCivuGStQY4xafSYzPPM36XjTGRKMxGt8z0ahR4xIXjMZdXFBRUUBUEAFZBGQZmIVhZnq6b93lvD9mUJBZum/V7Z6eqd+f0HXuYZi+derUOd8BM7tOduQTUYvr6hdmssQIguBetAzfioxkMrmeiO6VNPMjyKkL7oYOADTdFsuyLgiC4CUA4fKb7eMR0fdd170SSEs3pT0YEUlF9Yyxv6dSqTUyNjqjqKioP2PsFlk7thHDY+POQB8evc5+e1w7bDJ6ZyDve1rl3phcpnSycZfl1j2PQYGR/gCgK/c4BHsWVYL3ytr02k65ZfvHGXd6MMb6WpYVab89AFiW9XvIzeboZVmW0volHQBouiWtxWr3A1A90izBGDvddd17ZA21ZidGS5jwAfxR1o/OcF33VgAVsnb+NPIYHFwSnb5/OgzgxXhy3AyUxTovuTiifAju2fukLHjVNRhTWIkHx5wCO41rktMrR+P64VMAAGZRHGZR7kX4kuRhdnJDqLWMsR9xzscpdmkXmpubN8nWAjDGlF4D6ABA090wbdv+KxHdDvWzLqqI6EjHcZ5XYSwIAtmJf884jhOpEkssFpsI4BxZO6dW7t1lUumTygbj/YMuxKmVe7d5FdHLKsBvhh+JF8Z/G6Wx3E++yyanVu6NuQdcgKPKh7X55RnAi3HHXtPxyNjTdimM5L3LwMzcbier3Aa4IXQeWokRUTa0A25FS8tuWPa1LEtZ9WzX6+HQaMJTwjl/AhFU+gNYZhjGCalUaq0KY60Tw1ZDQowrCIJJnue9p8KfdjA45/MgKfc7gBdj4cGXRDpZLyw1bjPmN2zCFtEEbpgYapdhQtkgxHJQo9DV2CQasaixCltEEwoNC3sV9sKBxQPabRn0mpIQNfVZ9vJrPhV1OGLzv2XNnC2EeFKFP+3R2oocelwwY+wex3FkC4dbbKkwotHkmsLCwgGe5z0HIAoptXlCiFOgcMAO5/xaANdJmHhPCDFJkTttYlnW91qvUULDAPx7/ExM7zVSkVearoxTVQs/JdPyHp6mwMWIDY/KZAEAYIMQYjSAhCK3diMWi002DENGIrhJCDEQQDhlq53QYa4m7+Gcj/U8bx6i2fyfEkJMg9rpegzyYkS3qnCkA4oYY7+XNXLZwIP05t+DsHqXIVfnymLDwgS7n6yZQZxz2SE+HeJ53tsA3pcwUWxZ1kwVvugAQJPXxOPxKQDeARBFs/YtQoizACRVGo3FYpMAyOyKXwghpHOdHcE5/zEAKYH+AbwY1w8/UpFHmnzAsGKwynJ31XN1mZLpuT8BEO1kKuB2mcWMsUtVOKEDAE3ewjk/JwiCl6GgQv0b+IyxHwkhfgq5Nr82MU3zAkkT96KlAyAqStEym0CKv4w6Ia1qe033wiovyVlB4OT4ABxdIC35Ucw5j1QhUAjxNGOsWsLEISq6FnQAoMlLbNu+EsDDAFSXaacAnOM4zp2K7e6ggIjOlFjvxWKxB1Q50xac86sA9JKxMbPvOJzQe09FHmnyCsZglZXk7PE3VkwAly/ivAJAbwXutIcIgkCqJRCA9DWADgA0+YZp2/ZfWtv8lP7+EtFWIpoSZRUw5/xUyKmOPd/c3LxJlT9tUA5A6vRTbHLcPHKaInc0+UistACGlZtp83tapbi8RPpwXNIaCEeGYRj3QC7DqAMATY+iiHP+tKx6XjusNgzjCNd1P4jA9s6cJbOYMfY3VY60Bef8J5CURf3ZkInoz7vmkBhNtmCwKnKXBbi6bD8MMKVrEa6AZCasIxzHWcEYe0fCxCjLsqTmm3QdEWeNpmN6c85fBBDFFJkPhBDTfN//MgLbO1NomubdAHjI9RuEEFcggrqEVgpjsdgjkBj4MyxejgfGnKL76DUwrBj8ZgfkS7XlhYIzE/3MQjzXvE7GjG2apuv7/hxVfn0TwzA8xtjpYdczxrb5vv966OeHXajRZAvbtvfmnM8HMDEC8/8SQhwFQKYgJy045ydAbpjH3xFh8Z9lWd8jokoZGzeNnBpq4p6me2KV5y4TNKNoBCbGpSfo/hjqZ4l8heu6sxB+kigAnC3zfB0AaLo0lmVNADAXwAjVtlun+Slv8+sAmeI/AHhciRdtYzDGpO48DywZgNMq91blj6YbYBbaMLjqcRzpwQD8T9mBsmZKbdv+rgJ32iMJQKald6RlWQeHXaxDdU2XhXN+JoCHiEh1L1nAGLtaCHGbYrsdEQdwgsT6JUKIz1Q5800456cBkCrbv374kWAKRGACIrzfsAFvb1+PKqcJMWZgaEE5jq0Ygb0LoyzM1qiHwSorglPdtkRwinzMSW3Ex04taoIUipmFkbFSHF80BH0M+a/9hHg/HBEfgLmpzaFttNYc/R8iunpjjD1BRKGDDMbYaQAymoH81dqwD9VoosS27auI6I9Qn6VKAThfCDFLsd0OsW37RCKSGSL0P0KIG5Q59A0sy5rDGJsSdv3EssGYs7/8pNK59evx41Wv4LNE2zcyx/UaiTv2Og5D45FlZTWqIUJyYw3I83b544ebPsdv6j9Ejb/7hNwYM3Bh8d74dflBKM5gRHFbvJuqwklbXpKyYRjGUalU6k0pI+3DOedVCK9nskgIEUoFVV8BaLoajHP+ByL6E9T/ftYFQXBstjd/AAiCYLrMesZYZOl/27ZHMcakJPuuHTZZ2o+na5bj+MX/bHfzB4CX61Zj8kcPYnmzSmVmTaQwBqt017rS67YtxBW177a5+QOARwHuaVyG07e+gsZAbrbApHh/HG7L1QIEQfAfUgY6RgB4WmL9AYWFhaFUO3UAoOlK2JzzfwKIQov7CwCTPM+bG4HtTmGMyUwoXOQ4zkplznwDIroUEtnAg0sGYkq5nBLz6uQ2XLL8ebjUeY1jlWjCuZ89DSfwOv2spmtgFheAGS3bzbPNa/HnhiVprVvoVONn2+Q7c39VLl0LcEZhYeFAaUfaQTLAZ67rHhNmoQ4ANF2FSs75G1AgbtEGCyzLOkwIsTwC250Sj8dHANhLwkSUGQsuc/8IAD8ZfKi0Ezesm4smP/2T3tJENR7ekt4mosk9zDBgFhcgAOE32z7MaO0/m1ZhqaiTev6EeD8cLtcRYHmed5GUEx3gOM4bAGrDrmeMHR9mnQ4ANDknHo8P55y/g2ja/F4RQkxLJBJbIrCdFkQU6su5Ey8ocaQNOOenMsb6hl0/PF4uXfmfDFw8VZ15bPbIlk+lnqvJLrGSQryf2oI1XkPGa59IrJF+/mUlY2VNXIro9kwPwKsS66cjhK6PDgA0OcWyrEN9338fgPL+McbYX4UQJ0LB3GwZiOhYieUbhRBRHnWlBhP9ePAhMCVFfxY1VoVK5y9o3ARPbva7JosYVgwL/XAn+QViq/TzjysYjIFy6oBDYrFYFIcUAAARyVQqVsRisYxTcToA0OSM1tPnGzIn0HYgAL9xHOcHiHZqXjoYAEIX2DHGXkZ0yn/lAELdHQItmv/f6Tte2okq0RRqnQh81HrZknDQqGCLEa6gb7PXLP3sGDNwQYncOYMxJqvl0S6u674EIHREaxjGURmvCfswjUYGy7IuQcvdturh4QItbX7XKbYbCsuy9oWEkpjkqaBDLMs6A+FliTGz7ziUxuSHMcrIBnP9CssrbCvcr5ulSFr6guK9pWy1BgBR/dJVA/hIYv2kTBfob48m2zDO+XWMsXugXoiq3jCM6UKIRxTbDY1hGEdILPeEEKF1vjuDMSZVcHnRgP2U+BG2p78sFke5pVojShMlQwvDzZkaYqqRFO5nFuDEgiEyJvaIxWITlDjTNi9LrJ2IDPd0HQBosonNOX8UwLUR2F4P4PAIxTpCQUQZR+U7YIzNA9C2hJo8lQCmhl28b3E/HFyipitqfFFf9LYyTwQdWT5EifKgJnuEbRedXBCqzb1NLioZLbWeMSY10bMjgiCQyfiVcc4zmoOsAwBNtqiwbfsVAN+OwPYS0zQnCSGWRmBbltABABG9pdKRnbEs6yRIZGAu6L+vMl9MZuCi/plnE74/ULq3W5NlxhRW4ojyzE7gBSyGc4tlumh3ZVK8v9SoYMbYDESkout53nwAoQseMj1w6ABAEznxeHwY5/xdIpJSm2uHl4UQk5LJ5IYIbEsRj8eHAxgUdj1j7D2F7nzTdujWRIMxzOgzRqU7+PnQSRhZkL4S6sm9R+GYCuXzoTRZ4I49p2c0MfJX5QeiUsFcgB0YYDilUEq4anCE1wAuYyyUrj8AMMZ0AKDpOnDO9w2CYC4AtTtGCw8IIU5Bjtv82iMIgkNkljuOM0+ZM7tiAjg67OLDy4ZgAFc75rXY5Hhqn7PSsntE+RDcN/okpc/XZI+xRX3wwIgTYLPO29YvLRmDy0ul+/d345TCYVLrDcOQkvbuCCJ6V2K5DgA0XQPbto9Byyjf0KfgdiAAvxFCXAjAVWxbJQdIrF2KiO7/Y7HYYQB6hV1/Zh+5O9T2GFNYiQUHXYxLBx6IYnP3avH+vBi/HzEVL44/B2UxXfyXz5w+cCzeHHgKji0YBLONbPpoqxwP9jkKN/eaACOCbPuEeD/0NwtCr2eMZdxyl4FtmQBgOIA+aT9L4kEaTbtYlnUhY+xuAKqHgXtE9APXde9RbFc5nPNXAIQSAWKM3eU4zuWKXQIAcM5/B+CXYdYajGHdYT9GX6tIsVe7kgxcLGqswianEXEzhkG8FPsV94PB9Curu+BsqYOfdFDrp7DU3YatfhKlBseeVilGxEojf/5P697HPY3Lwi53hBC9IHFf3wHlnPNahDygG4YxNZVKzUnns6rbsDQaxjm/FtFU+jcxxs4WQkTWG68SItqPhdywJNOAnRFa/OegkgGRb/4AUGBYmFQ2OPLnBER4o34t3tj2BardZhQYFg4q6Y/TKvfWWYaIMQtt+EkHvc04JpvqqvzT5dTCYTIBgB2PxyemUqnXVPrUSj2AZQAyqujfARHtC0AHAJqswznn9wKQHwy/O5uJ6EQhhIxQRtYoKCjYw/f9fhImQhcCdUIRgP3DLp5eMVKhK7nlw8bNuHTF81jaxvjh/1r9Gi4dcAB+NmQiynUgEAlGXF5ESoYJ8X4oMzi2hxw3HATBFABRBAAAsAAhAwAAactz6hoAjSrKLMt6EdFs/ktM0zzUdd282PwBIAiC0JssgKQQIpLxv/F4/BBIXMtM79U9Ku9frF2Foz5+qM3NHwAaPQd/+vJ9jJ1/F/6yaWFaY4o1mWFYJpiZuy3IBMNEW2pCYJR1AKHnf7RmANJCBwAaaQoLCwdyzt9kjE1TbZuI3hBCHJFMJr9UbTtiZEqXlyKiGQZBEITWJai0CnFQSfZTtapZ3lyDcz97Oq0BRLVuM65aORsHLrwXz9dGEpP1YBiMeGglaiUcXiAVABwCoESRK7vAGFsssXwfpDkZUAcAGik45/t4nvc+JNLKHfCQ67rHA9gege2oGSWxVubL3xmhp5kdUTZEevJfV+CKla8gGWTWPPJ5cy1mfPokpn/yCD5uqorIs56HmeNrgCNsqYA21ppRU04qlfpEYnmBbdtp3dXl/7dZkzPi8fjRAN4FEEW11u+EEBegZbhPPhJauowxFtWgewYgtIDJYWWquzmzz4KGTXi7fl3o9W/Wr8Nhi+7H91e8gM0hpxhqvsawVTcJZcY4XoFeZvgaj0zS7RlSTURbwi4morR0V3QAoAmFZVnfDYLgRQCq+3V8IrpcCPHfiG4MbuQQUei5o4wxmei/XeLx+FAA6cvtfYOJpfkfAKhI4wdEeLDqE4ybfxduWDcXCT9fY9TcY/AYkMPWTgMME+3wtboRBgCARCaQMTYsnc/pAECTMZzz/2GMPQD1Pf5NjLFTXNe9S7HdbFMKIPTlommakcw0IKK0q4O/SYFhYb9imaaGrsGnia3KbCV8gd+unYtx8+/CvZs+gk+hR7n3YFhLEJBDJsWl6gCiDABCvweCIBiezud0AKDJhJht2/cCuB7qRaSqiGiK4zgvKrabdSzLkrn/TyQSidCpv46QOa0cVDoA3EirrqhLk/DVC0duFk344cqXMHHRA3hL4nqhp5Lra4B9rNCimEBLsW8kEYxhGGvCrmWMpRUAaB0ATboUc84fI6ITI7C9ijF2vBBiVQS2sw5jTGbSyFpVfrRB6ABgv6K+Kv3IGQNstTMMdubjpioc+8kjOKn3XrhxxFSMKuzd6ZptbhLvNmzAm9vWYmHTZtSIZmx1m9HgpVBuFaB3rACjCnvh4JKBmFo+DIeW7tHt1BANnuM6ACv0rRgAxDnnewkhQisKdcBaibXD0vmQDgA0nVJYWDjA87znABwUgfl5rQN9aiKwnRMYY3sQhS5f+EKlL98g9BXAuKK05cW7NFPKh+LRLVHVWLbwfO1KvFK3BpcOOAD/Pexw9LZ2Hz37YeNm3LlxIWZVL2u3HXGbm8Q2N4lVyTq8WLsK1+NtDLZLcUH//fCDPQ5q024+Yli53YYqTBsDzUJs8kOr+u6LFuU+pRCRzLtAXwFo5OGcj/U8bx6i2fyfEkJMQzfa/AGAiPaQWBtVAGAACC3jN76bZABm9BmjfJJhW7jk4y+bFmLcgrtx+4YPIIIWWYd1qe04dcnjmLjofjyyZUlaWgQ786XTgBvWzcWoD/6Cm9a/m/H6rgjLcQAAAOO41DVAJHUAQgiZd0EJgE5TUDoA0LRLPB6fAuAdAFLDs9vhFiHEWQCSEdjONQPDLjQMI5JL5IKCgj0AhFJdMRjrNhmAYpPjzlHHZ03PYJubxM9Wv479FvwNP1/9Og5YeA9erlstbbfJF7j2i7cwYdH9WNac3/EzMwwwI7dbkeQ1QFTymAkiCl21allWp+9tHQBo2oRzfmYQBC9Bom2sHXzG2I+EED9FHrf5dQQRhe6XiyoD4LrusLBrB9ulKGpjPG++cmLvvXD/6JPbHDkcFWtS23Dbhg+Utwx+lqjGpEUP4MXa/C6fyXUWQCYDwBgLnfFLw/basGsNw6js9DNhjWu6L5zznwF4AoDqKSjNAGY4jnOnYrtdCsZYaHmxIAg2q/RlB+lWBbfFsHi5Sle6BDP7jsP8gy7G0RWhfyxdhoQvcNbSWZhVHUUdWnYwrNx2mIy4gnm8AAAgAElEQVSUGD8sE/CnwaawC4lIBwCajDAty/o/ADdBfZtfbRAExwoh/q3Yblck9IW5aZptT6eRJF1hkLbojgEAAIwsqMAL+56DZ8fPxJjCTt+VXRqPAly4/Fm8madtiMzMbQAwMCY14nog1L8vAQCMsVqJtboGQJM2RZzzpxljP4zA9mrG2ETP86Kccd9VYJBQR3QcJ/QXviMYY6FPKUPjZSpd6XJM7zUSiw6+FPeNPhl9LamNIKeIwMd3lj2DTaIx165kTK4DgEozjlj4uhAbQCQRJBGFLvAgIh0AaNKiN+d8NoCTI7D9gRDiMMdxPo/AdlekFGlO4moDD0C9Ql++Ip10YHt09wAAaCl0/E6/8Vh6yH/gmsGHIW7kvjI9DNUigctX5J+WFovldisywdDPKAi93rKsSK4BZDIA+gpA0ym2bY/knM+DxJS4DnhGCDEVQCRp7a5IPB4+X05EdYioMJIxFrqMv38W2ua6CqUxGzeMOApLDrkMZ/cdG01eN2Jerludd6OLWSz3KpMy1wCGYURSCBgEgb4C0ERDLBabREQfQGJyXXsQ0R1CiBloKfzrMQRBEPq4zBirU+nLzhBR6DLnXjG1taABEapEE1Y016LW7Zq/HkPsMjw05jS8c+D3cHj5kFy7kzHXr30blEdNNum0AQoKsNFPYJW7HYkI9A8GmOGFlYIgkJor3B6GYchcAXSaAcjPPJdGGs75mQAegvpK/4AxdrUQ4jbFdvOCIAgqjJA9zTLpvs4gokoWUkJWleLc6uQ23LT+XTxXuxLb3K/lH4bYZZjZdyyuHnIYyhUHG7IcXDIQr+13Hp6qXo5frZmDtalIbmiU80nTFrxVvx5TyqOQ8IiADn4333Gq8L/bl+Ct1GY45H/15/vx3vhO8V74XvHeMvf3X9HfDH8FYBhGJGky3/frJN4nnaY0dAagB2Lb9lUAHof6zT8FYKbjOD1y8wcA0zRD5xGDIEip9GUnGGMspxmAR7YswQEL78E/qhbvsvkDwHpnO275ch72nX83FjVG0gUpBQPDmX3GYPG3vo8bR0xFWRcLUtrjkS1Lcu1C2jDD2K2OPgDh53Xv4+SqlzA7uWGXzR8APhG1uKbufRy35UXU+PJfnWIj/EwCIgofPXQAY0xGKK1ToQsdAPQsGOf8D0T0J6j/v68LgmC6EGKWYrt5BRGFVpdhjDkqfdkJjpDZPouZKInZUg9/pW41LlnxfKeytVvcBE5Y8hi+dBqknhcVthHDTwZPwPJDLsfVgw/r8tMRX6hdhSD8TIrswgD2jVP87+s/wt2NnWsbfOhU4+zqV+FKjmMuYFIJ8agCAJl3QqdfXB0A9Bxszvk/Afw0AttfAJjked7bEdjON2RGm0UZAISiwJS7JXQCD5eteCHtjWibm8RVK2dLPTNqelkF+N2Io7DgoItxQu89c+1Ou9S6zfisOY/qb3e6BljmbsPt2xenvfQjpwZ3N34m9fg4Cx/QRZgBkJGO1BkADQCgl23brwKYGYHtBZZlHSaEWB6B7XxEJgBQqxP7NaGP8FzipQgAs6qXYbNoymjNC3Ur8UUe3LWPLqzE0/ucjZf2Oxf7FveTtscAnGUOxqz4JMyJT8Xt9oEYzOTqL5Ym8igA2Im7G5fBz7CI8a8NS6XKHmUCAMOQ6CHsAJ0B0EgRj8dHcM7fI6IjIjD/ihBiWiKR2BKB7bxE5goAEWUACgsLQ/tkSRZXza5bk/GagAivhliXK6aWD8MHB16Eu0adIDVkaGZsCH7Kx2AoK0Ixi2GSUYl74oegjIWPKdcku34g9RXG1xmA15s3ZLx8k9+M5e620I+XuQKIKgNgmqYOADThsCzrEN/35wHYW7Vtxth9QoiTAOSf7Fi0hH5bS6b72iUIgtABgOw99+fJcJ2NnzdH1hARCQZjuHDA/lLV6OfHdp9L0Bsc043+oW1u96KqK1XPji6VJHnY4CdC2Vjpbg/9fJkMACKqAUgkEvoKQJM5nPNTGWNzGGOqB7kTgF84jnMJWpTrNLsi853yO/9I5hBR6DebKfmKSPpuqHXNeTrnPmzvvQGGXqzt93VfieyyoEh+paKhtU4kKfF/L/N7I3ndFdVoyXBfoBY6PYzoAKAbYlnWJQBmAVDTwP01AsD5QoibFNvtToT+whKRTP1AuxiGEdonV3ID6c3D/QpWWpEcqCInbMAUgLA0aPv0uiQIn8aviOXfz7HMtENnUnqb4Vs0JYOlqOp3ZN4JnX7vdQDQvWCc8+sYY/dAvchTvWEY04UQjyi2262IumgnDIZhhH45iUAuADioOFz6+uCSgVLPzRUjCsJPTrzVXY4m2vUE+7q/BW/7W0PbrAwZgOWCHY0iJhj25ZnLVjAAB9jhZ/IIuTbCSOp3ioqKQgcARKQDgB6EzTl/GMC1EdjeSERTUqnUmxHY7m5EemcXhkQiEfrlJCDXWz2jz5iM11RYBZhaMUzqublitMRY4WVBA2Y67+Iv7ko84X+JX4jF+IX4RKqyfa+C0PpPOeDrf+lphbvXQ3TGJLs/Ko3cZAAirN+RqSnSAUAPocK27VcAnBuB7SWmaU5wXfeTCGx3O7piBgASQYlsBuDQ0j1wbMWIjNZcNehQFJtRXalGy/6S7YBbycH93he4RSzDa36V1OZvMIZvlUQiUR8NO/1jLygelZE0rwGGn5UfIPV4mWA3CIJIMgBEJJPJ1QFAdycejw/jnL9LREdGYP4VIcSkZDKZeU9Oz0XmRRDVrhfap2TgwpdUWPvb6JMwxE5vRtK0iuH4r8ETpJ6XS06uHJVrF75ifFHfvJEtBgDa6fes1OC4p8+UtFvzri7bD4fHw3dLAEAzSRWeRpUBkPkP1AFAd8ayrIOCIJgHIPM8a+f8Xbf5ZY5MKpCIosoAeAg5lTEgwjbJVrIBvBhzDjgfR3YwmMZgDJcOPBD/2ucsJYNdcsWYwkqpawCVnNNvn1y7kD5EQLBrvuNwuz9m9T0GI2Kl7S4rNiz8odcE/ELy9A9Aap4AYyx8/2EHEFH7//jO6XSOgJ4GmKfYtn0CET0OQPUUKgJwnRDiesV2ewSe5zkS07simSjWSg2AUHNt69wkKiUnAg6ySzF7v/PwZv06PFO9HCuTdaj3HPTlhdi/uD/O6jMGY4v6SD2jq3DxgP1xzerXcupDjBk4N48CAArazjJNjPfHewNPwwvN6/FaagPWe01wKUA/swAT4/1xRtFwqTbJnamTyOITUeixvR1hmmZp0M7PpjPSCUp0AJCHWJZ1IRHdDbkWkbbwiOgHruveo9huj8EwDJmTQJRHx1qEDABq3GaMQm8lTkwpH5o/I2pD8v2BB+JPX76fsQSySi7ovx/6WaEHU2YdCtqvdrCZiTOKhuOMoswLAzOhTi4DEEkAEARBendnbUBEnb6L8jfX1jPZ0eb3d6jf/JsYY6fozV8Oy7JkJOzU7LJtIHNCqcsjNbmuQNyI4eohh+Xs+UUmx6+HRaH8HSEhT7kq2SaRATAMI5zkZSdIXgHoAKAbwTnnDyK6Nr/DHcd5KQLbPYpEIlELhC7eLkVEhYCMsdCBycYuOp63K3P5wINweHmohIs01w2bjP48ytsk9ZCX+wBgoxdOfhgAfN+PZOqSYRgVYdfqDED3ocyyrBcBnB+B7SWmaR6m2/yU4QIIvWMWFhZGkgUgotBqMmtTkdQ3dWtMZuDve5+M0lhUdZ1tc0LvPXHFoG9l9ZkqCLzcSha7FGCzH6pOFgBgWVYkAQARhW5tSKcGQAcAXZzCwsKBnPM3GWPTVNsmojeEEEckk8kvVdvu4YQ+bXueF0kAYBjGurBr1+kAIBRD42V4bOwZiBvZKbXar7gf7h99ChhY5x/uYlCOA4ANfiLj8cM7kWpubq5S6c9OhBZyYIx1OqVVBwBdGM75vp7nzQewfwTmH3Jd93ikcU+kyZjQ9+2GYURSCEhEX4RduzaVRyNluxjTKobjyX3OhB1xELBvcT+8uO85KM+jvv+dIT+3AcB6T6pgcx0gKZnZDkQUWlmKiDoNSnQA0EWJx+PTALwNYA/VtonoDiHEBYhugEVPJ3QGwPf9SC6OiWht2LVf6ABAimMrRuDZ8TPRR7KVsj1O6r0XZu97rnSrZi4hL7fTH79wpepc1ipyYzcYY6EzAEEQbOrsMzoA6IJYlnVBEAQvAQjdAtIOHhF933XdKxG+UE3TOaHTgYyxSHqdXNddG3ZtnZvMaUtbd2BK+VAsOPgSTC5TF98VmRx/GDkNs/Y5ExV5Oj0RAECEwM1tBmCZuy30WsZY6OxaGgwKu9A0TZ0ByDc45z9jjN0P9W1+CcbY6brNLyuEvm8HMEyVE99gG4DQR/klifAT6TQtDODFmL3/eXhi3AxptcDz+o3Hp4dchv8cdGhe3vnvDPn+16MAc8RSET4AkLle64QKAKHHSzqOozMAeUTMtu17AdwEKP9GVxHRkY7jPK/YrqYNZF4IUWUAWvks7MLFTZ3WE2nSgIHh1Mq9sejgS6Tu628eOQ0DeYlCz3JH4OY2/Q8Ay7zw11yMsdDfq46wLEvmXVCPNOS/dQDQNSjmnD9DRBdHYHsVY+wI13U/jMC2pg1k7tuJaJg6T3aFMbY47NpPE5F0OfVYTGbAkph5IFGx3uUIRG7T/xv9hJQKoGEYob9XHcEYy2yM5q6sSedDWgo4xxQWFg70PO95APLTLL4BY+xtx3FOBxCJSpWmbSzL+sIPX9U8CC3XP51O8sqUIAiWMBYuubSocbNibzQWM0Ov9bqAcp4qAqH8Vz0jPhEy4p3YHlUbNWNsOIW/GkkrANAZgBzCOR/ned57iGDzB/C44zjHQm/+WSeZTG5C+A4L07Ztmci/XYgo9Enl8+ZaVIvwSmma3ZGZeuhSbk/NKgmc3DYjzUuFv95ijC1BdAXVe0usXZ3Oh3QAkCNisdhEAG8BUD4ZpbXN71zIzabXhMcHEPpUQETjFfryFZ7nLUbIlxUBmN/YaU2RJgOskFMjAcCj7pEBoCDIuQjQfEeqwDWS9D8AEFHocY5EpAOArgrn/FzDMN6A+uEvPmPsR61tft3jDZG/pPUFbId9lXmxKw0AVoVd/N72DQpd0chcAbjdJAAInNym/5PkSV0BBEGwSKE7O8MAjA272DRNfQXQFeGc/wzAwwBUi4Q3A5jhOM6diu1qQkBEn0osjyQD0Mp7oRc26ABAJTJXAN0lAxCkcpv+X+TUwJG4TmGMhf4+dUQ8Hh8CIHSbB2NsRTqf0wFA9jBt2/4LImjzY4xVE9FUIcS/VdrVSCGTGowqAwAiejfs2vkNG7FdjwZWhswVgBt0jxoAP8cBwJxU+GstxliNEGK5Qne+Qib9D6AumUymFa3rACA7FHHOnyaiyyOwvQbA4a7rfhCBbU14ZAKA4WgZDawcxljoAMCjAHPqZTSONDvT4zMARDnvAHg9uTH02tZgOpICQCIKPdKRiNKe7KoDgIgpKirqxzmfA+DkCMzPE0Ic6jjO5xHY1kjguu5nAMIqnLBYLCZzAmgXIcQySHSGvFInU9qg2ZmeXgPgO25OFQBr/BQWS9z/ywTTaXCwxNq0rx91ABAhtm2PdF13LoAoBnQ/I4Q4GhKT5zSR4gBI6x6uLUzTPEyhLztDAN4Ju/jl2tWgbiRCk0tkMgDdQQgoSOa2Sen11AYEEj/HIAjeVujOLshkAJBB9lELAUVELBabRET/hvpKfxDRHa7rXgVd6d/VWQxgXJiFRDQJwK1q3fnK9suMsVPCrN0kGrGosQoHlYQeUtYpjZ6DF+pW4e369dgsGhFjBobaZTiu9544qnwoTImNsysRkygF6g41AH5zClV+M55tXoePRA2qvSTKTRvDYyU4qXAo9uPKX5278GKzlH5Preu6C1X5sjPxeHxoEAR9JUzoACCXcM7PBPAQANXDuQPG2DVCiD8ptquJhsUAzgmzkIgmKvblK0zTfCmQUJJ7cutnkQUAT2z9DP+16lVsdXcXHfrfjQuwb3E/3D3qBBwYYQCSLXpyDYDnuvhd9QLc0bAEqTaq8P+4/RMcXzAEt1dORF9D/aTDpsDFq+nVybXHbLTofSgnCIJDJZY7ruvqGoBcYdv2lQAeh/rN3wFwnuM4evPPE4IgmBd2LWOsn23be6r0ZwepVGotgNDVy09WL4vkGuCuTR/iu8ueaXPz38Hipi045pNHMK8baBJYRs+sASAQLl7+HG7e/nGbm/8OXkqux/GbX8TWIKnch5eS65Gk8EOIiOglhe7sAmPsSInlHyEDATgdAKjDsCzrdiK6Hep/rrVBEBwthHhMsV1NhHietwASmv5BEExS6M4uyLzANjgN+KAhfPV0W3zUWIWrV72WVljR5Aucv+wZNHr5LXTZUzMA9276CI/VpRd/rvEacEVN6JKVdvlXQmqCL3HOZ6fxOc45P5dz/jjnfAnnfDXnfKFlWbdzztu9GiSi0AEAEc3P5PM6AFBDAef8ScbYlRHYXsMYm+R5nvpvgSZqmtESkYfCMIzIAgDTNF+QWf/4FrUTUG9YNzcjffsvnQb8vSrtTGeXRGYaYL7WALjk48Z1mRXPz05ukJXr3YVtviPV/w9gYSKR6HCAgG3bJ3HOVwJ4BMDZAPYBMALAQa37xBLO+c3Y/Rq+DyQUABlj72fyeR0AyFPJOX8dwBkR2F5gWdZEx3FCV5NrcouM8A4RTVXpy86kUqk3iSj0W/XRrZ+i2VfTw93oOXg5RHvhE1sjGcOeNWSuAPI1A/B2/XpsFI0Zr3ta7sS+C483r5ZV/3uyo7+3bfu/iOhZAEM6MgPgGtu2d1Fu5ZxPhoRQnGEYOgDIFrZtj+Scvwcgipat54UQR3UWaWq6NpK9wiNt2x6lzJld8Q3D+FfYxfVeCv+uUROXLmqqCrWhfdRUBZGnJ2FAdhpgfgYA8xvCnbwXimplPjzStFJmOXUUAHDOTyWiW5DmJk5E3+ecf3V4ZIxNk/BtUyqVyihS0gFASCzLOjQIgvcA7KXaNmPsLiHEaQD0/NU8x7IsWbGQ45U40gaMscdl1qtKwVe7zaHW+RSgzlNfIJYtZK4A8jUDUO1kfvoHgGpfzf/zAmcrPhVSE9I/aC2ibYsYgP9F5if4G9C6FxORzPf9jUwX6AAgBJzzUxljbzDGZHo124IA/MJxnMsRUYuJJrskEokqSEwGJKLjFLqzC6lUai6AzWHXz61fhxXN4ZXUdhA3wncjF0iszTVyGYD8fD3YXrjsdgFT8//8D7nTPxhjT7T3d7ZtHwtgcAizY2zbPoZzPhbAsLC+EZEOAKLGsqxLAMwCUKjYtABwvhDiJsV2NTmGMfaqxPIpUP+7tgOfiDq8z+wIQktvviwjCypCrevDi1AaUz1UM3vEJF6/+aoEOJTCdUcPj8mPxqgOUpiVkJKy9g3DaDcAIKLQ8r1EdBlj7ISw6wHANE0dAEQI45zfzBi7B+oFlOoNw5guhHhEsV1N10CmZzhu2/YUVY58E8bYfTLr/1G1uMO+/XQYXdgbe9iZTz6dVj4MTO1gzawSk5oGmH9XAH5zCkfaA0P9j00t2EP6+Xc3fNah7kAavJJMtj89iIhkopSTiei7EutXpVKpjCd16QAgPWzO+T8BXBOB7fUADk+lUm9GYFvTBXAc5w1kIM7RBlEMkgIACCEWA8iod3hnnMDD3RsXSfnAwPCDPTI7PDEg4zVdjZ5WA+A1NmNorBjTCzLLkpcZHDOLRkg9u5k83N8kXbR6T0d/yRiT6VWMARgfdjFj7PUw63QA0DkVtm2/AmBmBLaXmKY5SQixNALbmq5DExHJ6DiciQhlu4mowxdbZ9y9eZF0S+AVe3wL+xb3S/vzFw88AIeWyp8Kc0lPqgEIhAu/dfjPTb0moMTgaa+9qeLQjD7fFo80rUSdn5IxUSWE6FA7g4jmyDxAkufDLNIBQAfE4/FhnPN3ZZSZOuAVIcSkZFJOkFqTHxiGEfoagIgqbds+SqU/O+O67mMAGsKurxYJ3LM5tN4RAMA2Ynh2/EyMK+rT6WfP6jsWt408Vup5XQGZccD5lgHwGr/u9BgaK8aTfY9Bhdlx/YYBhusrvoVvF8spYjvk48/bl0jZAPAAOlH1bB0OtFb2QSFItmYZM0YHAO1gWdZBrVruYyIw/3chxMkAwvXEaPIOInpZ0kQUGagdNDHG/ilj4JYv56HJF1JODODFeO/AC/Hb4VMwPF6+y98xAN8qHYiHx5yGh8ecBi4hotNV6ClSwOT78Jp2beM71O6LDwaegYtLRqOXuWthIGcGjikYhNn9T8QVpftIP/+Bps+x0ZeqUwkYY/em8TlCJ9cEEfEaWlRHAQBFRUX9bNu+gnN+H+f8Cc753y3LuhjAbtW2+VtBEyG2bZ9ARI8DKFZsmgBcJ4S4XrFdTR7AOV8LYGjI5XVCiP6QmC3QEbZtjyKiZZA4FPx2+BT8dIi6IYYbnAZscBpgsxgGx0tRaUXVDJEb/vjlPPxqTbis8dWDD8PvRkSWFFKKW98It76p3b/3KMA6v+mrccCDzCIUG5aSZyfJw0Ebn8JmP5zWRCv/EkLMSOeDRUVF/V3XXQdA7s4iA4jo+67r3sM5Hw3g5wDOBdDWD7AJwE2tnWY+oDMAu2FZ1qVE9G+o3/xdIrpIb/49FyKaJbG8l23bxyhz5hs4jvM5AKn5ALdt+ADbPal71l0YZJdiQukgHFDSv9tt/kDPyACQH8Br6HjzjTEDI2OlmBDvh9FWubLNHwDubVwuu/kjCIJb0/1sq+7HM1IPzAwyDGMD5/xxAEsBXIC2N3+gZU+7gXP+FFprinQA8DWMc34DY+xvUF9w1cAYO9F13QcU29XkF1LKe0R0nipH2iKTF11b1LlJ3LT+PVXudHtkagDypQjQa0yActSyuM13cHuD3N0/Y+xdz/My+qU2DOMuqYdmCBG9gJaBQ+nu56dalvUHZLCgu8M55w8C+FUEtjcS0WTHcWTEYDTdgNYioTUSJs4A0EuRO7vhed5bAD6QsfF/GxdgZVJKarXHwCUyAPkABZ2f/qPkhu2LZCv/QUR/zHRNa0t3evOO5WEIcZXPGPsx53xs9/4NTI8yy7JeBHB+BLaXmKZ5mOu6+T23VKMKAhBaeQ8tokBR/J7uzC0yi0Xg4+erQ7Uk9zj62+FvGftYRQo9iQZve+5O/0tFHR5slO77XyaEeDbEOmKM3S378IiJEdFFPToAKCwsHMg5f1NyAlObENEbQogjksnkl6pta/KX1uJSmfWXqfKlLYQQ/wIg1dP3fO1KvL5N3fjW7sr4ovCjRMYWVSr0RD3k+XAbcjPLjAD8vO4DFXLJ1wEIFcE4jvMAdqrM74owxib32ACAc76v53nzAewfgfmHXdc9HsD2CGxr8hjXdT8C8LmEiTGxWExdqf3uEGPsWlkjP/j8JSQk2wK7O8Pi5ZhQOijjdSUxG9MqhkfgkTrc+kaAcjOv4J9NK/GOUyVr5lMhhEzRbj2AducGdAWIaGiPDABaq6nnAohCSux3QojvomW4j0bTFlI994ZhXKrKkbZwHOc5SNYCrE3V43frZMQPewY3jjgKBsvsCvfnQyai2Mxal1nGBK4HL6GuGyQTav0Urq1fqMLU/yDk6X8HRJTVYsBMYYwle1wAYFnWBa1Vk/LjpXbFI6LvCyH+G8jTUV2arGAYxv2Qe7mcDSDSHDBj7NeyNv68YT4WNYaeNtwjmFg2GH/ec3raVVxn9BmNqwYdGqlPchDc2u05O/3/bNsHqJEs/APwoRDi37JGXNf9AJLXaRGzNP/ltDKAc/5rxtjtAFT/u5sYYzOEEFL3u5qeged5203TnABgr5AmLNM0m3zff1ulXzvj+/5q0zQnAhgZ1kYAwsLGzbig/34wu3nFuwwHlQzApPLBmN+4CbVuss3PlMZs/M+wybhl5NFd+mfpNSVzVvn/cvJL/Lb+Q2k7hmF8x/M8JUUshmEQYyyyYV4yENGfeooSYIxzfjeAiyKwXUVEJ7muK/+bp+kxcM7PAPBU2PVEtMV13WEAIsu1cs7HAPgE7QuLpEU+qdblkoAIb25fhznb1mJNchuSgYcBdjEOKx2Ek3vvhbJYvHMjOYT8AKlN1SA/+5X/NUEKkzY+g61B2wFUBjwlhDhThU+tFHPON0J9xlmWjUKIvXpCAFDCOX8SwPQIbC8zDOOEVCq1NgLbmu6NxTlfD6B/WAM7JEAV+rQblmXdwRi7QsaGwRhe2vdcTCkPq4IcDVvdBGZVL8M79V+iSjQhbsQwNF6G43vtieN7j5QS6sl31jvb8eTWZfigYSO2ugmUmjaGF5TjlN6jMLViGFgblxaiZju8puyf/gnAt7e+itnyc9Ucxtg+juOsUuDWV9i2fScR/UClTUlcwzCOS6VSb3TrAKCwsHCg53nPAzhAtW3G2NuO45wOQKueaELBOb8RLdrdYVkuhBiLaGtOKmzb/pyIpGoOBvISLDz4YvTuIpK+/7txAa774q12BxiNKazEvaNPwsElA7PsWW7xKcBv1r6N2zZ8ABG0rTY4oXQQ7ht9EvYs+FqTyk8JOFW12XJzF+5q/Ay/qJOqWd3B74UQysXgOOfjASxWbTckjYyxcx3HeR5QfxfeZeCcjwuCYA6A0RGYf7x1OET7Ey40mk6IxWJrAVyB8EO5KmOx2ELf92XaCjsjZRhGE2PsRBkjjb7A5811OKvvmDZPj9nk11+8iWu/eAuiAzndGrcZT2z9DEeWD8Egu6tlb6Pj4hXP4a5NH8LvoIhvg9OAWVuX4ZTKUehlFYCCAM6WOiDIfuHfx6IGl9a8BU8+Bt4ghPg2Iuje8n1/aywWOwbAENW2M3EDwGOmaZ6eSqW+apPoutUkErT2Sb+FCH7gRHSHEOJcAI5q25qeheM4qwG8KGODiK5FxFM9Xde9mzEm3dP3XO3nuHn9PBUuheaN+rW4Oc15BU2+wAXLnkWzH8kAxi7HA5s/waNbPiHNxygAAB1BSURBVE3rs1vdBL63/FkERHC3NYG87M8m2OY7+F71HKTUzEW4AhEe6HLYEugCeAjAPkKI85LJXe9Jul0AwDk/0zCM1wH0VmzaZ4xd4brulZDsD9VodmAYhtQAHgAH27YtdTpPgwDAJVBQcHjd2rfwSt1qeY9C8tu1czM6K65N1eMfVV0lexsdHgX4/frMYrwFDZvwYtUyeI3ZV/wLQLi05i2s85Ts2U8KISKd4CeEeJIxVh3lM775SAAPMcbGCiG+K4RoczZBtwoAbNu+Ei0T11SXy6YAnOM4zv8ptqvp4aRSqTkA5svYIKLfI+LvsuM4KwDcJGsnIMKFy5/D2lS9Aq8yY7NownvbM1fmfqomW3Ndcsf8ho1Yl8pcuPTJzUsj8KZzbqhfhNdTG1WY2mZZ1o9VGOoEh4gezMJzEkR0h2maI4QQ3+2soLG7BABma6Xl7VD/b6oNguBoIYTMEBeNpiNul1w/nnN+mhJPOkAIcSNaZo5LUes247QlT6Dey65a3PyGcBvGwsZNij3penzYFE4698PUVsWedM6jTStx+3Y1WRkiuiaRSEjrBqcDY+wuRJc9biSiOyzL2tN13SuTyWRav+zdIQAo4pw/HVGbxRrG2ETP896NwLZGAwAQQjwBuTHBAHA9ov8+CyJSInO9rLkGZy6dBSfwFLiVHjVuuBa1Zt9tt1ugu1Ajwv1saoLsBnHvpKrwk7p5qtpeXnJd9+9qTHWO4ziriUjpqEzGWA2A3wghhriue2WmwUxeBwBFRUX9OOdzAEShtDRPCHGo4zhRVlhrNEBLfYns9dI4zvk5SrzpANd1FwGQlgkGgLn163HJiudBWVLOLjTC6RmZzECBEVPsTdei0Az3sylC9n4uK9x6nF/9BhwFRX9EtNWyrAuRZdl2xtidikxtZIxd5TjOUCHEdWgZPpQxeRsA2La9t+u67wH4VgTmnxZCTANQE4FtjWY3HMe5F/KaEjcCiLzRXghxCxHNUWHria2f4ZdrlJjqlJ371jNhRLw8a/K7W90E5m3fgDn1a/FpYmu7vfiq2Svkz2aklZ0WyfVeE2ZsmY36QEnzFRmGcUEikdiiwlgmCCGeBbBAwsQXRPQfQoiRjuPcDsmRw3kZ1lqWdQARvQr1lf4gojtc170KutJfk10aAdyClk08LIM559cIIX6jyKf2CGKx2Pm+738CBd/BP335PopNjl8NPVyBa+1zQEl/9OFFqBaZVa0fUzEiIo++5oXalbhp/XtY0LBxlyNpeSyOs/uOxa+HTUafCEWUJpcPgW3EMr6SObog83HGmVITpDBj62xs9NV0GxDRn4UQLysxFuLxAC4E8A6A8gzWLSeiG13XfRSAsnuzvBMCKigoGBQEwVzGWB/FpgPG2NVCiGuhp/lpcoDv+x8bhnEJY6xIwswhnPOHPM9rUOZYG3ie1xiLxZYD+DYU6BC8Vb8OpTEbE0qjmNDdgsEYmgMXb9evT3tNjBm4d/RJkSkYBkT4z9Wzcc3q17DRadzt71OBhw8bN+MfVYsxpXwoBtolkfhRaFpY69Tj46b0D8XFhoW/9j4i0uuRWj+Fk7e8hM/dzDsU2mGh67rnQeEmmim+71cbhjGHMTYdQFknH/8YwI+FED8KguBjKD6Y5l0AYBjGvYyxQxSbTQE4Vwhxn2K7Gk0mCMuyAsjNrbCIqJ/v+/9S5VR7+L6/wjTNGIDJKuy9tm0NevNCfCtC+d1DSvfAc7WfozrNgsBfDj0cZ/SJQky0hZvWv4c/ftm5OFJz4OLfNZ/jvH77oNjkkfhyWOkgPLrl07QLHm/tdRgOjfeLxBegZfOfsXU2lrrblNhjjNWYpjnN87zcaBbvRBAEG33ff8A0TQctU0F3vkvxALzKGLtKCHG17/tLEdGhNK9mARQUFAzyfX8d1NYu1AZBcJrnedJKZxqNAgo456sAyOyCFATB4Z7npSd5J4fBOX8ewPGqDP562ORIrwM2iyactPgxfJrouIXtx4MOwc0jp0UmXbwutR3j5t8FN4Oitu/0G4/7Rkc3XXZ5cw1OWvwYvnTaTyCZYPhNxbfww9JxkfmxNUji9C2v4DOhZvNHS4b3BMdxXlFlUCW2bY/yfb8vYyzluu5KAMpSHh2RVxkAxtgMxpjKfucvGGNTXdf9SKFNjUYGLxaLOQBOkLDBGGMH+75/L6KvZSHf9180TfMsABUqDL5Vvw6pwMO0iuEqzO1GiclxYf/9UG7FsUk07ZIN4IaJaeXD8de9T8ClAw+MdG7BrV++j7nb07+OAIDlyVpcNvDA0FX7nVFpFeKiAfsjxgxscBp20WooZDEcXzgEd1dOxsmF0U123OAncHKV0rQ/APxCCJENIZ5Q+L5fGwTB+iAINiGLMvN5lQHgnN8AQNW0pgWWZZ2ci0pQjaYTbM75CgCyb9lftor3RI5lWfsxxuYCUHZJ/cM9DsYfRx4Dg0X7mqpzky3jgM0YBvBiFIRsF8yUSYseCCUy9MS4GTi1cu8IPNoVvzmFjVWbsdVLosSw0NcsgB3xiOQVbj1mbFFX8NfK40KIc6Bru3Yjb9sAJXleCHGU3vw1XRQHcmOCd/Br27ZHKbDTKa7rfsIYOxsKi6vu3LgQMz97KvJhPL2sAowt6oMR8Yqsbf4AsCYVLr29Jgsyyn7SgVNdj0ojjrG8AoNjxZFv/nNTmzG96gWlmz9j7B0hxPegN/82yasAgIg61DVOB8bYfUKI0wFkf4KFRpMmQojHWk/UMsQB/A1ZyvQ5jvMyEV2u0uazNZ/j2MWPYKvb/b6uYXv8o1ZPbNn8twEdjARWzT+bVuHMrbOxPVCquLjGsqwZUDDEqruSVwFALBZ7HS1zjcNAAH7hOM4lyGELiEaTLkEQ/ASSd/hEdKRlWZcqcqlTXNe9F8DNKm0uaNiEIxY9iCWdFO3lG2H7+vtZMl2iHeMnHThbtwFBdjb/AIQb6hfhh7VzIUhduQpjrIYxNr2pqal7/dIoJq+KAD3PazBNcxyATMtPHQAXCCH+GoFbGk0kBEGwyTTNYQAOkLHDGJvMOX/U87ysVBb7vv+GaZojAOynyma9l8LDW5ZgqF2G8cV9VZnNKQubNnfaidAWvx0+BX24+iDAb07Bqa7P2sl/m+/gu9Vv4JHEStWmG4noeCHEEtWGuxt5lQEAgFgs9p8ZzlWuNwzjOCHEo5E5pdFEhGVZv0SLSqAMZUEQ/APZC/gDIcSFaBnNrYxm38X3lj+LH658KWsSuVHy7b6Zt9GNL+qLMUWVyn3xmpJwtmZv818i6jC16jlVI313JmkYxqmu636g2nB3JK8yAADgum6TYRizW9sBizv5+BoAxziOI6O9rNHkDNd1m0zTDAAcLWlqmGmaju/7snUF6UK+7z9rmuZBaBE6UcaixirMqV+HoyqGojwWV2k6q4wsqMCb29djfSq9xAwD8LfRJ4XW7W8PryEBUZuV5BAIwH2Ny3FxzZtRTBIUjLEZjuO8qtpwdyXvAgAACIJgi23bjwZB0Bst1wHf/HckieivruvO9H1/Qw5c1GiU4fv+AtM0TwMgK7s22TCMl1t7jbOB7/v+04ZhTGSMKW3q3+A04B9bFmOgXYJ9i6NTo4sSBoapFcPwTPUKbPc7b/3++ZBJuHSg1G3QrhBBbGuEW9+kzmYH1AQpXFz9Jv7auBSeenkKHy1qrv9Wbbg7k1c6AO3Qi3M+lTE2BACIaI0QYg6ypKSk0WQDy7IOZYy9C/mgfaUQ4kAA2Xnrt1BkWdYzjDHZLEabnN13LO7YczoqrIIozEfORqcRP1r5El6sbbvJqcIqwO+GT8HFA9Ru/k51Pfzm7BTIv5rcgB/WzEW1+lM/AAgA5wkhZkVhvDvTHQIAjaZHYFnWbYyx/1Rg6oHWO/pswjnnjwE4PQrjfa0i3DhyKr7Tb3wU5rPC4qYteLFuFVYltyHpu+hrFeHQsj1wQq89URqzlT2HPA/Olm0I3OiboeoDB7+p/xAPNq6IqhHfATBTn/zDoQMAjSZ/KOScLwEgPZ+WiC5zXfdvCnzKBJNzfj+A86N6wPG99sT/jToOg+zszKnPN/ykA1FdDwqin3b+TPNaXFM3DzV+ZFmGhGEYp6VSqdeiekB3Jy9rADSaHoobi8U+B/AdWUOMseMYY28EQfClAr/ShXzffzYWiw0EcGAUD1iVrMMDVZ+AGyYOLB4Ak+Vdo1NEENztCYjahsgr/Ve49bi05i38uWEJmimyLEMtER0nhHg7qgf0BHQAoNHkEb7vrzJNcyTke+xNxtixBQUFjwghsimzR77vPxeLxeoBHIsIspBO4OO1bV/gyepl6M+LMLaoj+pH5BXkBxBb6+E1pTcCOSz1gYOb6j/GD2vnYrXX/jRBBaxhjE0TQnwS5UN6AvoKQKPJP8o45x8DGCZriIjmuK57LHKgjsk5PxfA3wGou+Bug2MqRuC3w6fggJL+UT6mS+InHYia7SA/Ot2EFPl4oGkFbtn+CeqiS/fv4D0hxKkAaqJ+UE9ABwAaTR4Si8WOMAxjDhRk8Yjodtd1r1LgVsbEYrHJhmE8DUBtc/s3YABOrdwbvx42GeN6QkagtcXPa4guuSMowMNNn+PW7Z9gkx9tdqGVJ4QQF0Br+ytDXwFoNHlIEATrTdPkACbL2mKMTYjFYnW+789X4FpGBEGwzrKsWUQ0BUCkR/TlzbW4Z/NHWNFciz0LKtCPd6Yjlp8EKYHU1joEyWjGyqfIx8NNK3FRzZt4MrEGjRTttEa09Pj/WghxJfQcF6XoDIBGk7/EOOdzAUxQYMsHMCOH7VRxzvmdAC7K1gMnlg3G1YMn4ITee4J1g1chBQHc+iZ4jYlIht82BAKPJlbhz9sXo8pPqn9A29Qyxs5zHOeVbD2wJ5H/v/UaTQ8mHo+PCILgYwAlCsw1E9HUXOqo27Z9BRHdCsDK1jPHF/XFfww8CDP7jkWJwn77bOInUhB1DZHc9S8RdXiwaQUeS6xCIuJRxN9gkWEYM1Kp1NpsPrQnoQMAjSbPsSzru4yxBxWZ22ya5oRkMrlekb2MsSxrAmPsESjQO8iEYpPjrL5jcVH//XBI6R7ZfHRoAteDW9cAX3G6vzEQmJVYg4cSK/GRk/V6OyKiO13XvQb6vj9SdACg0XQDbNv+CxFdrsjcZ0KIKQAymbqpmlLO+f8C+G4uHj66sBJn9hmDs/qOwehC9dP3ZCE/gLutEV4iqayvP0keXktuxNOJL/BK8ssoe/jbhYi2GoZxkeM4L2T94T0QHQBoNN0Dy7bt14noCEX2PhFCTAVQp8heKDjnMwHcBaA8Vz7sU9QXZ/YZg+N6jcT+Jf1yWi9AQQBvewJuQ0LJxr89EJiT2oQXm9fjpeR6NAWRF/R1xEuWZV2YSCS25NKJnoQOADSabkJRUVF/13U/BDBQkcn3hRDHAmhUZC8UBQUFg33fvwvACbn0A2iZOXBsrxGY3mskjqwYin5WUXYeTAS3IQGvIQHyw8v4ehRgsajDnNRGvJ7aiAVONTyKXha4E7YT0c9apamjlSnU7IIOADSabkQsFpvYqg/AVdhjjL3jOM5xALKpFtgmnPNzGWO3E1GXaeQfWVCBiWWDcVjpHjisdBBGFfZGTKH8MAUBvIYEvIbmUPr923wHH7u1eD+1Be87W/ChqM52IV9nPBOLxX7Y3NycrRHVmp3QAYBG082wbfs/ieg2hSZfFEKcgZbJa7mmN+f8NkQ4UEgG24hhbFEl9inqi/FFfbF3YW8MjZdhWLwMBUb6jQ3keXC3N8NLNANB54fiLX4S67xGrPUa8ZnYhqVuHT4T27Il0BOGzQCuEEI8lWtHejI6ANBouiGKiwJ3SAafAqBJlU0Z4vH4lCAIbgOwf659SZd+VhGGF1Sg0ipAJS9Er1gBKq1ClJk2Ck0LNjNBrocSAQTChRP4XxXiNQYCKfJRFzio81OoCxzU+Cls8pux3mtEiqKT+lWMAHCHEOIGANtz7UxPRwcAGk33JMY5fwEtA3eUwBib6zjOSQAinfSSAYZlWd8BcDNjrF+undF0DBG9xhi7UgjxWa590bSgAwCNpvtS0qoUKDs5cGc+FEIch641jKWMc/7fAH4IoCDXzmh2YzFj7BrHcWbn2hHNrugAQKPpxhQWFg70PO99AIMVmv0sFosd09UKt4qLi/sKIX4C4EoA8Vz7o8EyIrrJdd1H0CI1reli6ABAo+nmcM73AfAOgDKFZtcAOFEIsVyhTSUUFBQM9jzvasbYZYh41LCmTdYS0Y2u694HvfF3aXQAoNH0AGzbPpaInoXaDbE2CILTPM97R6FNZRQWFg7wPO8ytGQEciYk1IP4mIhuc133UeipfXmBDgA0mh4C5/xUALMAxBSadQBcLIR4RKFN1ZTatn0hEf0X1F6FaAAwxt4F8AfHcZ7LtS+azNABgEbTg+CcnwngMQCmQrME4HohxHUKbUYB55zPIKJLGWNToN9/MtQS0UOMsb8JIZbl2hlNOPQXQKPpYViWdSlj7G6o//4/JIS4DEDWhsWHxbbtPYnoOwAugs4KZMKHRPQ313UfBtBlVYY06aEDAI2mB2Lb9hVEdEcEpj8xDOOMVCq1JgLbUWC11kfMBHAqgNJcO9QF+RjAE4ZhPJZKpb7ItTMadegAQKPpoXDOfwrgDxGYrmOMnec4zssR2I6SOOf8OAAzAZwIoCTH/uSSJQBmMcYedxxnRa6d0USDDgA0mh6MZVn/wRi7E4C6CTYtEICbhRC/BJDzcXMhMC3L2p8xdjKAkwAciO79vmwmovcMw3ieMfZMKpVal2uHNNHTnX+hNRpNGliW9T3G2L1QWxi4g9mxWOx7zc3NmyOwnTUKCgr28DzvaMMwDieiSQBG4//bu/sYucoqjuPfc+fe5860a6FsKYoFu7wIBNg/SEEoCDQphBetQmwVNZAYsMRggiQEAwEVEuwfpLwoGCyJkABSGhVDG0oioGKVl6KhpWsRW6qkQIUCLV1273Pn3uMfM0gxlG27M3Pnzp5PsplssnvP74/NznnmPvc55f7/+a6qPiUiq4Ig+MPo6OgqIC061HhUq9XPqOoCVf2cqk4Rkc3AY97739AF0yy7UZn/gI0xLeKcWwDcC+z+yLrdJCJvqurF3vvftvraBeqP43i2qp5EYyDRscCMgjPtSgKsA9aKyHN5nv8pTdM19M4hPZOdcz+gcd7DR43B3gxc5r1/qLOxup81AMYYAOI4/oKqLqNNx+iKyJ1JklxB7+4enxqG4WClUjkmz/PDRWQAeP+rr821c+BVEdmkqi/TOKlxCFjrvX+JHj2YJwzD2UEQ3A0cPsaPqoh8L0mSWzsQqzSsATDG/E8YhqcFQfBrYL82lVivqhemafpsm67fraZFUTQjCIL9VXWaiPSrar+q9gdBEKvqZBqrV1HVfQFEJKHZLInIdiBT1W0i8kae51uDIHgzy7KtlUrljSRJ/kVjpT9RxM65HwJXsvu3rnIR+VKSJMvbF6tcrAEwxnyIc+5IYAVwSJtKZKp6a5qm19K7nwaYNomi6DgR+QUwuBe//or3/ghKcFZFJ7R6568xpuS89+u99yeISLvO+K+IyBXOuRfiOD6zTTVM75nknFskIk+zd2/+AAdFUbSglaHKrB27fo0x5TeSZdkDlUrlKOCoNtWYCnyzUqkMZFn2R2xVZnYhjuNzKpXKChqPZI5r4SoiZFm2tDXJys0+ATDG7MqI934+cFMbawhwURzHL0ZRdCm2KDE7qdVqBzvnHlTVFcDMFl326BZdp/SsATDGfJzce38l8A3a+Cx1c2Pcz5xzf61Wq3PaVceUxiTn3I+yLFsPzG/xtVs5ErvUrAEwxozJe38/MBv4Z5tLDeZ5/rhz7lfVarVdmxBN9xLn3AXOufXAdUCt5QVEbJ5BkzUAxpjd4r1f470/nsYTAu12fp7n66IoWtzX1ze9A/VMweI4PtM59yxwP22c0Kiqj7br2mVjjwEaY/ZU4Jy7lsYKrROLiGHgJ977m4CtHahnOiiKohOBH4vI6R0o95b3/rPY3xFgDYAxZi9Vq9W5eZ7fAxzYoZLbgZu99zcD2zpU07RJGIYnBUFwNY2d/Z2Qich5SZI83KF6Xc8aAGPMePQ755YA53Ww5tvAnWEY3lb2IUMTUbVanZtl2dUi0snNnu8BX++xeRTjZg2AMWbcoii6RERuBiZ3sKwH7gMWe+9f6GBds+ci59z5wBXACR2u/YyIXJgkyYsdrtv1rAEwxrREHMdHqOq9wKwOl1bgURFZnCTJ75rfm+4wzTl3CfAdOj8tMQWu994vokeHIY2XNQDGmFaKnHPfB66hmOetNwJ3hWF4t90eKE5zSt/FwAW0abrkGNaq6kVpmv6tgNqlYQ2AMablnHNHisgSVT2loAh1YLmI3JUkyUogKyjHhNHX1zc9TdMLVfVbtO/46LF4YJH3/kYm1nTEvWINgDGmXYIoihaKyCJgSoE5XlXVZar6YL1e/wt2i6CV+pxz84CvAWcBUVFBRORJVV3ovf97URnKxhoAY0xb1Wq1GVmW3Q7MKzoL8G9VXQYsTdP02aLDlNQk59zZwFdpPMLX8tP69tA7qnpVmqZLsOZuj1gDYIzpiDiOz1HVxcARRWdp2iQijwCPJEnyOG2cdVB2tVrt4Hq9fq6IfBGYQzH39f9fDtwdRdE1w8PDrxcdpoysATDGdFIUx/FlqnodsG/RYXaSqOqTQRCsVNWV3vshJvZq8hNxHJ+W5/kcEZkLDBYdaGcisirP88vTNF1ddJYyswbAGFOEaXEc36Cql9CFI4BF5E1V/TOwKs/zVfV6fTU9vKls8uTJB9Tr9RNU9SQaK/xZQFhwrI/yCnCV9/4BJnaD1hLWABhjCuOcGwRuBM4tOssYEhFZnef5amAt8HyapkM0Tpgrlb6+vun1en1QVQdV9XjgRGBmwbHG8paILEqS5KfASNFheoU1AMaYwjUHwlwvImcUnWUPZMAGYA0wpKobVPXlKIo2jYyMbKZxj7ooLo7jAeAQ4NA8zw8DjgYGRaRM0xV3ALc0B0HZ/IcWswbAGNM1wjA8tVKp3KCqpxadZZw8jScOXhaR11R1q4hsbb6+EQTB1izL3q5UKu8ChGG4Y8eOHSmNpmL7TteZQvMWSa1Wm5Rl2RRVnRIEwT6quo+q7iciB4jIAar6aWA6jVG6B1Luce8jqrrEOXfj8PDwlqLD9CprAIwxXSeO4zOAa1X180VnMR21HbgjiqJb7I2//awBMMZ0rSiKjhORy2kcKduNm9JMCzQ3Xd7uvb+VxrRH0wHWABhjul61Wh3I83whcCmwT9F5TMv8Q0TuSJLkLuwcho6zBsAYUyb7OecWAt+m+3eum4+WAyuCILhtdHT0MexxvsJYA2CMKaMgjuO5zXME5gGu6EBmTK8B9zQHNG0oOoyxBsAYU35ToyiaLyLfBY4pOoz5kExVnxCRn3vvHwLSogOZD1gDYIzpFRKG4ckiskBEvgJ8quhAE5QCz4jI0jAMf2nn9HcvawCMMb0oCMNwtojMF5EFwCeLDjQBDAHLROS+JEleKjqMGZs1AMaYXlepVqtzsiz7soicBRxadKAeUW8OUFoOPGxv+uVjDYAxZkKJ4/hw4GxVPRs4jeLn2ZfJ68BjwHLv/UrgnYLzmHGwBsAYM5HV4jg+XVVPF5GTVXUWEBcdqou8BfxeRJ5Q1cebY5JNj7AGwBhjPhCHYTgrCIKTgVOA2UB/wZk6JQOGROTpPM+fEpFnvPfrKHaokWkjawCMMWbXpFqtzszzfBA4Fhhsfh1Gc0hPSb0HrBORNcBaEXl+dHT0OeDdgnOZDrIGwBhj9lwtiqKjReRIYAAYUNWZIjIAzKA75hYkwCZgg6puDIJgI43xxUNJkmzEVvYTnjUAxhjTWmG1Wj2oXq8fFATBNFXdX0SmqWq/iPTTuKXQT2OvwftzDSbxwd6Dqc1X5cOb7HbQeFPfpqrviMg2YLuqbheRLar6ahAEW1R1cxRFW4aHh/+DHbNrPsZ/AawCf1r6eVbdAAAAAElFTkSuQmCC;" parent="1" vertex="1">
                    <mxGeometry x="568" y="115" width="300" height="310" as="geometry"/>
                </mxCell>
            </root>
        </mxGraphModel>
    </diagram>
</mxfile>